<svg xmlns="http://www.w3.org/2000/svg" width="511.703125" height="264" viewBox="-46.84375 -18 511.703125 264"><svg overflow="visible"><svg overflow="visible" class="grid"><svg overflow="visible" data-type="path" class="tick tick-x"><path id="path-uuid-1" fill="transparent" stroke-width="2" d="M 0 200 0 0" stroke="#eee"></path><svg overflow="visible" data-type="text"><text xml:space="preserve" dominant-baseline="central" font-size="14" font-family="DejaVu Sans Mono" text-anchor="middle"><textPath href="#path-uuid-1" startOffset="50%"></textPath></text></svg></svg><svg overflow="visible" data-type="path" class="tick tick-x"><path id="path-uuid-3" fill="transparent" stroke-width="2" d="M 200 200 200 0" stroke="#eee"></path><svg overflow="visible" data-type="text"><text xml:space="preserve" dominant-baseline="central" font-size="14" font-family="DejaVu Sans Mono" text-anchor="middle"><textPath href="#path-uuid-3" startOffset="50%"></textPath></text></svg></svg><svg overflow="visible" data-type="path" class="tick tick-x"><path id="path-uuid-4" fill="transparent" stroke-width="2" d="M 300 200 300 0" stroke="#eee"></path><svg overflow="visible" data-type="text"><text xml:space="preserve" dominant-baseline="central" font-size="14" font-family="DejaVu Sans Mono" text-anchor="middle"><textPath href="#path-uuid-4" startOffset="50%"></textPath></text></svg></svg><svg overflow="visible" data-type="path" class="tick tick-y"><path id="path-uuid-5" fill="transparent" stroke-width="2" d="M 0 200 300 200" stroke="#eee"></path><svg overflow="visible" data-type="text"><text xml:space="preserve" dominant-baseline="central" font-size="14" font-family="DejaVu Sans Mono" text-anchor="middle"><textPath href="#path-uuid-5" startOffset="50%"></textPath></text></svg></svg><svg overflow="visible" data-type="path" class="tick tick-y"><path id="path-uuid-7" fill="transparent" stroke-width="2" d="M 0 100 300 100" stroke="#eee"></path><svg overflow="visible" data-type="text"><text xml:space="preserve" dominant-baseline="central" font-size="14" font-family="DejaVu Sans Mono" text-anchor="middle"><textPath href="#path-uuid-7" startOffset="50%"></textPath></text></svg></svg><svg overflow="visible" data-type="path" class="tick tick-y"><path id="path-uuid-8" fill="transparent" stroke-width="2" d="M 0 50 300 50" stroke="#eee"></path><svg overflow="visible" data-type="text"><text xml:space="preserve" dominant-baseline="central" font-size="14" font-family="DejaVu Sans Mono" text-anchor="middle"><textPath href="#path-uuid-8" startOffset="50%"></textPath></text></svg></svg><svg overflow="visible" data-type="path" class="tick tick-y"><path id="path-uuid-9" fill="transparent" stroke-width="2" d="M 0 0 300 0" stroke="#eee"></path><svg overflow="visible" data-type="text"><text xml:space="preserve" dominant-baseline="central" font-size="14" font-family="DejaVu Sans Mono" text-anchor="middle"><textPath href="#path-uuid-9" startOffset="50%"></textPath></text></svg></svg><svg overflow="visible" data-type="path" class="tick tick-x"><path id="path-uuid-2" fill="transparent" stroke-width="2" d="M 100 200 100 0" stroke="#111111"></path><svg overflow="visible" data-type="text"><text xml:space="preserve" dominant-baseline="central" font-size="14" font-family="DejaVu Sans Mono" text-anchor="middle"><textPath href="#path-uuid-2" startOffset="50%"></textPath></text></svg></svg><svg overflow="visible" data-type="path" class="tick tick-y"><path id="path-uuid-6" fill="transparent" stroke-width="2" d="M 0 150 300 150" stroke="#111111"></path><svg overflow="visible" data-type="text"><text xml:space="preserve" dominant-baseline="central" font-size="14" font-family="DejaVu Sans Mono" text-anchor="middle"><textPath href="#path-uuid-6" startOffset="50%"></textPath></text></svg></svg></svg><svg overflow="visible" class="axis axis-x" y="220"><svg overflow="visible" data-type="text" class="tick-label tick-label-x" x="-8.421875"><text xml:space="preserve" dominant-baseline="text-before-edge" font-size="14" font-family="DejaVu Sans Mono">-1</text></svg><svg overflow="visible" data-type="text" class="tick-label tick-label-x" x="95.7890625"><text xml:space="preserve" dominant-baseline="text-before-edge" font-size="14" font-family="DejaVu Sans Mono">0</text></svg><svg overflow="visible" data-type="text" class="tick-label tick-label-x" x="195.7890625"><text xml:space="preserve" dominant-baseline="text-before-edge" font-size="14" font-family="DejaVu Sans Mono">1</text></svg><svg overflow="visible" data-type="text" class="tick-label tick-label-x" x="295.7890625"><text xml:space="preserve" dominant-baseline="text-before-edge" font-size="14" font-family="DejaVu Sans Mono">2</text></svg></svg><svg overflow="visible" class="axis axis-y" x="-36.84375"><svg overflow="visible" data-type="text" class="tick-label tick-label-y" y="192" x="0"><text xml:space="preserve" dominant-baseline="text-before-edge" font-size="14" font-family="DejaVu Sans Mono">-1</text></svg><svg overflow="visible" data-type="text" class="tick-label tick-label-y" y="142" x="4.2109375"><text xml:space="preserve" dominant-baseline="text-before-edge" font-size="14" font-family="DejaVu Sans Mono">0</text></svg><svg overflow="visible" data-type="text" class="tick-label tick-label-y" y="92" x="4.2109375"><text xml:space="preserve" dominant-baseline="text-before-edge" font-size="14" font-family="DejaVu Sans Mono">1</text></svg><svg overflow="visible" data-type="text" class="tick-label tick-label-y" y="42" x="4.2109375"><text xml:space="preserve" dominant-baseline="text-before-edge" font-size="14" font-family="DejaVu Sans Mono">2</text></svg><svg overflow="visible" data-type="text" class="tick-label tick-label-y" y="-8" x="4.2109375"><text xml:space="preserve" dominant-baseline="text-before-edge" font-size="14" font-family="DejaVu Sans Mono">3</text></svg></svg><svg overflow="visible" data-type="path"><path id="path-uuid-10" fill="transparent" stroke-width="2" d="M0,50L1.0000000000000009,50.5L2.0000000000000018,51L3.0000000000000027,51.5L4.0000000000000036,52L5.000000000000004,52.5L6.000000000000005,53L7.000000000000006,53.5L8.000000000000007,54L9.000000000000007,54.5L10.000000000000009,55L11.00000000000001,55.50000000000003L12.00000000000001,56L13.00000000000001,56.5L14.000000000000012,57L15.000000000000014,57.50000000000003L16.000000000000014,58L17.000000000000014,58.5L18.000000000000014,59L19.000000000000018,59.50000000000003L20.000000000000018,60L21.000000000000018,60.5L22.00000000000002,61L23.000000000000018,61.50000000000003L24.00000000000002,62L25.000000000000025,62.5L26.00000000000002,63L27.000000000000025,63.50000000000003L28.000000000000025,64L29.000000000000025,64.5L30.00000000000003,65L31.00000000000003,65.50000000000003L32.00000000000003,66L33.00000000000003,66.5L34.00000000000003,67.00000000000003L35.00000000000003,67.50000000000003L36.00000000000003,68.00000000000003L37.000000000000036,68.5L38.000000000000036,69.00000000000003L39.000000000000036,69.50000000000003L40.000000000000036,70.00000000000003L41.00000000000004,70.5L42.000000000000036,71.00000000000003L43.000000000000036,71.50000000000003L44.00000000000004,72.00000000000001L45.00000000000004,72.50000000000001L46.000000000000036,73.00000000000001L47.00000000000004,73.50000000000003L48.00000000000004,74.00000000000003L49.00000000000004,74.50000000000001L50.00000000000005,75.00000000000003L51.00000000000004,75.50000000000003L52.00000000000004,76.00000000000003L53.00000000000005,76.50000000000001L54.00000000000005,77.00000000000003L55.00000000000004,77.50000000000003L56.00000000000005,78.00000000000003L57.00000000000005,78.50000000000001L58.00000000000005,79.00000000000003L59.00000000000006,79.50000000000004L60.00000000000006,80.00000000000003L61.00000000000005,80.50000000000001L62.00000000000006,81.00000000000003L63.00000000000006,81.50000000000004L64.00000000000006,82.00000000000003L65.00000000000006,82.50000000000001L66.00000000000006,83.00000000000003L67.00000000000006,83.50000000000004L68.00000000000006,84.00000000000003L69.00000000000006,84.50000000000001L70.00000000000006,85.00000000000003L71.00000000000007,85.50000000000004L72.00000000000006,86.00000000000003L73.00000000000006,86.50000000000003L74.00000000000007,87.00000000000003L75.00000000000007,87.50000000000004L76.00000000000007,88.00000000000003L77.00000000000006,88.50000000000003L78.00000000000007,89.00000000000003L79.00000000000007,89.50000000000004L80.00000000000007,90.00000000000003L81.00000000000007,90.50000000000003L82.00000000000009,91.00000000000004L83.00000000000007,91.50000000000004L84.00000000000007,92.00000000000004L85.00000000000009,92.50000000000003L86.00000000000007,93.00000000000004L87.00000000000007,93.50000000000006L88.00000000000009,94.00000000000004L89.00000000000007,94.50000000000003L90.00000000000009,95.00000000000004L91.00000000000009,95.50000000000006L92.00000000000007,96.00000000000004L93.00000000000007,96.50000000000003L94.00000000000007,97.00000000000004L95.00000000000009,97.50000000000006L96.00000000000007,98.00000000000004L97.00000000000007,98.50000000000003L98.00000000000009,99.00000000000003L99.00000000000007,99.50000000000003L100.00000000000006,100.00000000000004L101.00000000000007,100.50000000000003L102.00000000000007,101.00000000000004L103.00000000000006,101.50000000000003L104.00000000000007,102.00000000000003L105.00000000000007,102.50000000000003L106.00000000000007,103.00000000000004L107.00000000000007,103.50000000000004L108.00000000000009,104.00000000000004L109.00000000000007,104.50000000000004L110.00000000000007,105.00000000000004L111.00000000000009,105.50000000000004L112.00000000000007,106.00000000000004L113.00000000000009,106.50000000000004L114.00000000000009,107.00000000000004L115.00000000000007,107.50000000000004L116.00000000000009,108.00000000000004L117.00000000000009,108.50000000000004L118.00000000000007,109.00000000000004L119.00000000000009,109.50000000000004L120.00000000000009,110.00000000000004L121.00000000000009,110.50000000000004L122.00000000000009,111.00000000000004L123.0000000000001,111.50000000000004L124.00000000000009,112.00000000000004L125.00000000000009,112.50000000000004L126.0000000000001,113.00000000000004L127.00000000000009,113.50000000000004L128.00000000000009,114.00000000000004L129.00000000000009,114.50000000000004L130.00000000000009,115.00000000000004L131.00000000000009,115.50000000000004L132.0000000000001,116.00000000000004L133.00000000000009,116.50000000000004L134.00000000000009,117.00000000000004L135.0000000000001,117.50000000000004L136.00000000000009,118.00000000000004L137.0000000000001,118.50000000000006L138.0000000000001,119.00000000000006L139.00000000000009,119.50000000000006L140.0000000000001,120.00000000000006L141.0000000000001,120.50000000000006L142.00000000000009,121.00000000000006L143.0000000000001,121.50000000000006L144.0000000000001,122.00000000000006L145.0000000000001,122.50000000000006L146.0000000000001,123.00000000000006L147.0000000000001,123.50000000000006L148.0000000000001,124.00000000000006L149.0000000000001,124.50000000000006L150.0000000000001,125.00000000000004L151.0000000000001,125.50000000000006L152.00000000000009,126.00000000000004L153.0000000000001,126.50000000000006L154.00000000000009,127.00000000000004L155.0000000000001,127.50000000000006L156.0000000000001,128.00000000000006L157.00000000000014,128.50000000000006L158.00000000000009,129.00000000000006L159.0000000000001,129.50000000000006L160.00000000000009,130.00000000000006L161.0000000000001,130.50000000000006L162.0000000000001,131.00000000000006L163.00000000000014,131.50000000000006L164.00000000000009,132.00000000000006L165.0000000000001,132.50000000000006L166.0000000000001,133.00000000000006L167.0000000000001,133.50000000000006L168.0000000000001,134.00000000000006L169.00000000000014,134.50000000000006L170.00000000000009,135.00000000000006L171.0000000000001,135.50000000000006L172.0000000000001,136.00000000000006L173.00000000000014,136.50000000000006L174.0000000000001,137.00000000000006L175.00000000000014,137.50000000000006L176.0000000000001,138.00000000000006L177.0000000000001,138.50000000000006L178.0000000000001,139.00000000000006L179.00000000000014,139.50000000000006L180.0000000000001,140.00000000000006L181.00000000000014,140.50000000000006L182.0000000000001,141.00000000000006L183.00000000000014,141.50000000000006L184.0000000000001,142.00000000000006L185.00000000000014,142.50000000000006L186.00000000000014,143.00000000000006L187.00000000000014,143.50000000000006L188.0000000000001,144.00000000000006L189.00000000000014,144.50000000000006L190.0000000000001,145.00000000000006L191.00000000000014,145.50000000000006L192.00000000000014,146.00000000000006L193.00000000000017,146.50000000000006L194.0000000000001,147.00000000000006L195.00000000000014,147.50000000000009L196.00000000000014,148.00000000000006L197.00000000000014,148.50000000000009L198.00000000000014,149.00000000000006L199.00000000000017,149.50000000000009L200.0000000000001,150.00000000000006L201.00000000000014,150.50000000000006L202.00000000000014,151.00000000000006L203.0000000000001,151.50000000000006L204.00000000000014,152.00000000000006L205.00000000000017,152.50000000000006L206.0000000000001,153.00000000000006L207.0000000000001,153.50000000000006L208.00000000000014,154.00000000000006L209.00000000000017,154.50000000000006L210.00000000000014,155.00000000000006L211.0000000000001,155.50000000000006L212.00000000000014,156.00000000000006L213.00000000000014,156.50000000000006L214.00000000000014,157.00000000000006L215.00000000000014,157.50000000000006L216.00000000000017,158.00000000000006L217.00000000000017,158.50000000000006L218.00000000000014,159.00000000000006L219.0000000000001,159.50000000000009L220.00000000000014,160.00000000000009L221.00000000000017,160.50000000000009L222.00000000000017,161.00000000000009L223.0000000000001,161.50000000000009L224.00000000000014,162.00000000000009L225.00000000000017,162.50000000000009L226.00000000000017,163.00000000000009L227.00000000000014,163.50000000000009L228.00000000000017,164.00000000000009L229.0000000000002,164.50000000000009L230.00000000000014,165.00000000000009L231.00000000000014,165.50000000000009L232.00000000000017,166.00000000000009L233.00000000000017,166.50000000000009L234.00000000000017,167.00000000000009L235.00000000000014,167.50000000000009L236.00000000000014,168.00000000000009L237.00000000000017,168.50000000000009L238.00000000000017,169.00000000000009L239.00000000000017,169.50000000000009L240.00000000000017,170.00000000000009L241.0000000000002,170.50000000000009L242.00000000000017,171.00000000000009L243.00000000000014,171.50000000000009L244.00000000000017,172.00000000000009L245.0000000000002,172.50000000000009L246.0000000000002,173.00000000000009L247.00000000000014,173.50000000000009L248.00000000000017,174.00000000000009L249.0000000000002,174.50000000000009L250.00000000000017,175.00000000000009L251.00000000000017,175.50000000000009L252.0000000000002,176.00000000000009L253.00000000000023,176.50000000000009L254.00000000000017,177.00000000000009L255.00000000000017,177.50000000000009L256.00000000000017,178.00000000000009L257.0000000000002,178.50000000000009L258.00000000000017,179.00000000000009L259.00000000000017,179.50000000000009L260.00000000000017,180.00000000000009L261.00000000000017,180.50000000000009L262.00000000000017,181.00000000000009L263.00000000000017,181.50000000000009L264.0000000000002,182.00000000000009L265.0000000000002,182.50000000000009L266.00000000000017,183.00000000000009L267.00000000000017,183.50000000000009L268.00000000000017,184.00000000000009L269.0000000000002,184.50000000000009L270.0000000000002,185.00000000000009L271.00000000000017,185.50000000000009L272.00000000000017,186.0000000000001L273.0000000000002,186.5000000000001L274.0000000000002,187.0000000000001L275.00000000000017,187.5000000000001L276.0000000000002,188.0000000000001L277.0000000000002,188.5000000000001L278.00000000000017,189.0000000000001L279.00000000000017,189.5000000000001L280.0000000000002,190.0000000000001L281.0000000000002,190.5000000000001L282.0000000000002,191.0000000000001L283.00000000000017,191.5000000000001L284.00000000000017,192.0000000000001L285.0000000000002,192.5000000000001L286.0000000000002,193.0000000000001L287.0000000000002,193.5000000000001L288.0000000000002,194.0000000000001L289.0000000000002,194.5000000000001L290.0000000000002,195.0000000000001L291.00000000000017,195.5000000000001L292.0000000000002,196.0000000000001L293.0000000000002,196.5000000000001L294.0000000000002,197.0000000000001L295.00000000000017,197.5000000000001L296.0000000000002,198.0000000000001L297.0000000000002,198.5000000000001L298.0000000000002,199.0000000000001L299.0000000000002,199.5000000000001L300,200" stroke="#1f77b4"></path><svg overflow="visible" data-type="text"><text xml:space="preserve" dominant-baseline="central" font-size="14" font-family="DejaVu Sans Mono" text-anchor="middle"><textPath href="#path-uuid-10" startOffset="50%"></textPath></text></svg></svg><svg overflow="visible" data-type="circle" x="96" y="96"><circle stroke-width="2" r="4" cx="4" cy="4" fill="#c5b0d5" stroke="#9467bd"></circle><svg overflow="visible" data-type="text" x="4" y="4"><text xml:space="preserve" dominant-baseline="central" font-size="14" font-family="DejaVu Sans Mono" text-anchor="middle" fill="#9467bd" stroke="transparent"></text></svg></svg><svg overflow="visible" data-type="circle" x="196" y="146"><circle stroke-width="2" r="4" cx="4" cy="4" fill="#c5b0d5" stroke="#9467bd"></circle><svg overflow="visible" data-type="text" x="4" y="4"><text xml:space="preserve" dominant-baseline="central" font-size="14" font-family="DejaVu Sans Mono" text-anchor="middle" fill="#9467bd" stroke="transparent"></text></svg></svg></svg><svg overflow="visible" x="320" y="76"><svg overflow="visible" data-type="text" y="0" x="0"><text xml:space="preserve" dominant-baseline="text-before-edge" font-size="14" font-family="DejaVu Sans Mono">(0 - 1)  -1</text></svg><svg overflow="visible" data-type="text" y="16" x="0"><text xml:space="preserve" dominant-baseline="text-before-edge" font-size="14" font-family="DejaVu Sans Mono">------- = - = -1</text></svg><svg overflow="visible" data-type="text" y="32" x="0"><text xml:space="preserve" dominant-baseline="text-before-edge" font-size="14" font-family="DejaVu Sans Mono">(1 - 0)   1</text></svg></svg></svg>