<svg xmlns="http://www.w3.org/2000/svg" width="511.703125" height="264" viewBox="-46.84375 -18 511.703125 264"><svg overflow="visible"><svg overflow="visible" class="grid"><svg overflow="visible" data-type="path" class="tick tick-x"><path id="path-uuid-1" fill="transparent" stroke-width="2" d="M 0 200 0 0" stroke="#eee"></path><svg overflow="visible" data-type="text"><text xml:space="preserve" dominant-baseline="central" font-size="14" font-family="DejaVu Sans Mono" text-anchor="middle"><textPath href="#path-uuid-1" startOffset="50%"></textPath></text></svg></svg><svg overflow="visible" data-type="path" class="tick tick-x"><path id="path-uuid-3" fill="transparent" stroke-width="2" d="M 200 200 200 0" stroke="#eee"></path><svg overflow="visible" data-type="text"><text xml:space="preserve" dominant-baseline="central" font-size="14" font-family="DejaVu Sans Mono" text-anchor="middle"><textPath href="#path-uuid-3" startOffset="50%"></textPath></text></svg></svg><svg overflow="visible" data-type="path" class="tick tick-x"><path id="path-uuid-4" fill="transparent" stroke-width="2" d="M 300 200 300 0" stroke="#eee"></path><svg overflow="visible" data-type="text"><text xml:space="preserve" dominant-baseline="central" font-size="14" font-family="DejaVu Sans Mono" text-anchor="middle"><textPath href="#path-uuid-4" startOffset="50%"></textPath></text></svg></svg><svg overflow="visible" data-type="path" class="tick tick-y"><path id="path-uuid-5" fill="transparent" stroke-width="2" d="M 0 200 300 200" stroke="#eee"></path><svg overflow="visible" data-type="text"><text xml:space="preserve" dominant-baseline="central" font-size="14" font-family="DejaVu Sans Mono" text-anchor="middle"><textPath href="#path-uuid-5" startOffset="50%"></textPath></text></svg></svg><svg overflow="visible" data-type="path" class="tick tick-y"><path id="path-uuid-7" fill="transparent" stroke-width="2" d="M 0 100 300 100" stroke="#eee"></path><svg overflow="visible" data-type="text"><text xml:space="preserve" dominant-baseline="central" font-size="14" font-family="DejaVu Sans Mono" text-anchor="middle"><textPath href="#path-uuid-7" startOffset="50%"></textPath></text></svg></svg><svg overflow="visible" data-type="path" class="tick tick-y"><path id="path-uuid-8" fill="transparent" stroke-width="2" d="M 0 50 300 50" stroke="#eee"></path><svg overflow="visible" data-type="text"><text xml:space="preserve" dominant-baseline="central" font-size="14" font-family="DejaVu Sans Mono" text-anchor="middle"><textPath href="#path-uuid-8" startOffset="50%"></textPath></text></svg></svg><svg overflow="visible" data-type="path" class="tick tick-y"><path id="path-uuid-9" fill="transparent" stroke-width="2" d="M 0 0 300 0" stroke="#eee"></path><svg overflow="visible" data-type="text"><text xml:space="preserve" dominant-baseline="central" font-size="14" font-family="DejaVu Sans Mono" text-anchor="middle"><textPath href="#path-uuid-9" startOffset="50%"></textPath></text></svg></svg><svg overflow="visible" data-type="path" class="tick tick-x"><path id="path-uuid-2" fill="transparent" stroke-width="2" d="M 100 200 100 0" stroke="#111111"></path><svg overflow="visible" data-type="text"><text xml:space="preserve" dominant-baseline="central" font-size="14" font-family="DejaVu Sans Mono" text-anchor="middle"><textPath href="#path-uuid-2" startOffset="50%"></textPath></text></svg></svg><svg overflow="visible" data-type="path" class="tick tick-y"><path id="path-uuid-6" fill="transparent" stroke-width="2" d="M 0 150 300 150" stroke="#111111"></path><svg overflow="visible" data-type="text"><text xml:space="preserve" dominant-baseline="central" font-size="14" font-family="DejaVu Sans Mono" text-anchor="middle"><textPath href="#path-uuid-6" startOffset="50%"></textPath></text></svg></svg></svg><svg overflow="visible" class="axis axis-x" y="220"><svg overflow="visible" data-type="text" class="tick-label tick-label-x" x="-8.421875"><text xml:space="preserve" dominant-baseline="text-before-edge" font-size="14" font-family="DejaVu Sans Mono">-1</text></svg><svg overflow="visible" data-type="text" class="tick-label tick-label-x" x="95.7890625"><text xml:space="preserve" dominant-baseline="text-before-edge" font-size="14" font-family="DejaVu Sans Mono">0</text></svg><svg overflow="visible" data-type="text" class="tick-label tick-label-x" x="195.7890625"><text xml:space="preserve" dominant-baseline="text-before-edge" font-size="14" font-family="DejaVu Sans Mono">1</text></svg><svg overflow="visible" data-type="text" class="tick-label tick-label-x" x="295.7890625"><text xml:space="preserve" dominant-baseline="text-before-edge" font-size="14" font-family="DejaVu Sans Mono">2</text></svg></svg><svg overflow="visible" class="axis axis-y" x="-36.84375"><svg overflow="visible" data-type="text" class="tick-label tick-label-y" y="192" x="0"><text xml:space="preserve" dominant-baseline="text-before-edge" font-size="14" font-family="DejaVu Sans Mono">-1</text></svg><svg overflow="visible" data-type="text" class="tick-label tick-label-y" y="142" x="4.2109375"><text xml:space="preserve" dominant-baseline="text-before-edge" font-size="14" font-family="DejaVu Sans Mono">0</text></svg><svg overflow="visible" data-type="text" class="tick-label tick-label-y" y="92" x="4.2109375"><text xml:space="preserve" dominant-baseline="text-before-edge" font-size="14" font-family="DejaVu Sans Mono">1</text></svg><svg overflow="visible" data-type="text" class="tick-label tick-label-y" y="42" x="4.2109375"><text xml:space="preserve" dominant-baseline="text-before-edge" font-size="14" font-family="DejaVu Sans Mono">2</text></svg><svg overflow="visible" data-type="text" class="tick-label tick-label-y" y="-8" x="4.2109375"><text xml:space="preserve" dominant-baseline="text-before-edge" font-size="14" font-family="DejaVu Sans Mono">3</text></svg></svg><svg overflow="visible" data-type="path"><path id="path-uuid-10" fill="transparent" stroke-width="2" d="M0,150L1.0000000000000009,149.5L2.0000000000000018,149L3.0000000000000027,148.5L4.0000000000000036,148L5.000000000000004,147.5L6.000000000000005,147L7.000000000000006,146.5L8.000000000000007,146L9.000000000000007,145.5L10.000000000000009,145L11.00000000000001,144.5L12.00000000000001,144L13.00000000000001,143.5L14.000000000000012,143L15.000000000000014,142.5L16.000000000000014,142L17.000000000000014,141.5L18.000000000000014,141L19.000000000000018,140.5L20.000000000000018,140L21.000000000000018,139.5L22.00000000000002,139L23.000000000000018,138.5L24.00000000000002,138L25.000000000000025,137.5L26.00000000000002,137L27.000000000000025,136.5L28.000000000000025,136L29.000000000000025,135.5L30.00000000000003,135L31.00000000000003,134.5L32.00000000000003,134L33.00000000000003,133.5L34.00000000000003,133L35.00000000000003,132.5L36.00000000000003,132L37.000000000000036,131.5L38.000000000000036,131L39.000000000000036,130.5L40.000000000000036,130L41.00000000000004,129.5L42.000000000000036,129L43.000000000000036,128.5L44.00000000000004,127.99999999999999L45.00000000000004,127.49999999999999L46.000000000000036,126.99999999999999L47.00000000000004,126.49999999999999L48.00000000000004,125.99999999999997L49.00000000000004,125.49999999999997L50.00000000000005,124.99999999999997L51.00000000000004,124.49999999999997L52.00000000000004,123.99999999999997L53.00000000000005,123.49999999999997L54.00000000000005,122.99999999999997L55.00000000000004,122.49999999999997L56.00000000000005,121.99999999999997L57.00000000000005,121.49999999999997L58.00000000000005,120.99999999999997L59.00000000000006,120.49999999999997L60.00000000000006,119.99999999999997L61.00000000000005,119.49999999999997L62.00000000000006,118.99999999999997L63.00000000000006,118.49999999999997L64.00000000000006,117.99999999999997L65.00000000000006,117.49999999999997L66.00000000000006,116.99999999999997L67.00000000000006,116.49999999999997L68.00000000000006,115.99999999999997L69.00000000000006,115.49999999999997L70.00000000000006,114.99999999999997L71.00000000000007,114.49999999999997L72.00000000000006,113.99999999999997L73.00000000000006,113.49999999999997L74.00000000000007,112.99999999999997L75.00000000000007,112.49999999999997L76.00000000000007,111.99999999999997L77.00000000000006,111.49999999999997L78.00000000000007,110.99999999999997L79.00000000000007,110.49999999999997L80.00000000000007,109.99999999999997L81.00000000000007,109.49999999999996L82.00000000000009,108.99999999999996L83.00000000000007,108.49999999999996L84.00000000000007,107.99999999999996L85.00000000000009,107.49999999999996L86.00000000000007,106.99999999999996L87.00000000000007,106.49999999999996L88.00000000000009,105.99999999999996L89.00000000000007,105.49999999999996L90.00000000000009,104.99999999999996L91.00000000000009,104.49999999999996L92.00000000000007,103.99999999999996L93.00000000000007,103.49999999999997L94.00000000000007,102.99999999999996L95.00000000000009,102.49999999999997L96.00000000000007,101.99999999999996L97.00000000000007,101.49999999999997L98.00000000000009,100.99999999999996L99.00000000000007,100.49999999999997L100.00000000000006,99.99999999999996L101.00000000000007,99.49999999999997L102.00000000000007,98.99999999999997L103.00000000000006,98.49999999999997L104.00000000000007,97.99999999999996L105.00000000000007,97.49999999999997L106.00000000000007,96.99999999999997L107.00000000000007,96.49999999999996L108.00000000000009,95.99999999999996L109.00000000000007,95.49999999999996L110.00000000000007,94.99999999999997L111.00000000000009,94.49999999999996L112.00000000000007,93.99999999999994L113.00000000000009,93.49999999999996L114.00000000000009,92.99999999999997L115.00000000000007,92.49999999999996L116.00000000000009,91.99999999999994L117.00000000000009,91.49999999999996L118.00000000000007,90.99999999999997L119.00000000000009,90.49999999999996L120.00000000000009,89.99999999999994L121.00000000000009,89.49999999999996L122.00000000000009,88.99999999999997L123.0000000000001,88.49999999999996L124.00000000000009,87.99999999999994L125.00000000000009,87.49999999999996L126.0000000000001,86.99999999999997L127.00000000000009,86.49999999999996L128.00000000000009,85.99999999999994L129.00000000000009,85.49999999999996L130.00000000000009,84.99999999999997L131.00000000000009,84.49999999999996L132.0000000000001,83.99999999999994L133.00000000000009,83.49999999999996L134.00000000000009,82.99999999999996L135.0000000000001,82.49999999999996L136.00000000000009,81.99999999999994L137.0000000000001,81.49999999999994L138.0000000000001,80.99999999999996L139.00000000000009,80.49999999999994L140.0000000000001,79.99999999999994L141.0000000000001,79.49999999999994L142.00000000000009,78.99999999999996L143.0000000000001,78.49999999999994L144.0000000000001,77.99999999999994L145.0000000000001,77.49999999999994L146.0000000000001,76.99999999999996L147.0000000000001,76.49999999999994L148.0000000000001,75.99999999999993L149.0000000000001,75.49999999999994L150.0000000000001,74.99999999999996L151.0000000000001,74.49999999999994L152.00000000000009,73.99999999999996L153.0000000000001,73.49999999999994L154.00000000000009,72.99999999999996L155.0000000000001,72.49999999999994L156.0000000000001,71.99999999999994L157.00000000000014,71.49999999999994L158.00000000000009,70.99999999999994L159.0000000000001,70.49999999999994L160.00000000000009,69.99999999999994L161.0000000000001,69.49999999999994L162.0000000000001,68.99999999999994L163.00000000000014,68.49999999999994L164.00000000000009,67.99999999999994L165.0000000000001,67.49999999999994L166.0000000000001,66.99999999999994L167.0000000000001,66.49999999999994L168.0000000000001,65.99999999999994L169.00000000000014,65.49999999999994L170.00000000000009,64.99999999999994L171.0000000000001,64.49999999999994L172.0000000000001,63.99999999999994L173.00000000000014,63.49999999999994L174.0000000000001,62.99999999999994L175.00000000000014,62.49999999999994L176.0000000000001,61.99999999999994L177.0000000000001,61.49999999999994L178.0000000000001,60.99999999999994L179.00000000000014,60.49999999999994L180.0000000000001,59.99999999999994L181.00000000000014,59.49999999999994L182.0000000000001,58.99999999999994L183.00000000000014,58.49999999999994L184.0000000000001,57.99999999999994L185.00000000000014,57.49999999999994L186.00000000000014,56.99999999999994L187.00000000000014,56.499999999999915L188.0000000000001,55.99999999999994L189.00000000000014,55.499999999999915L190.0000000000001,54.99999999999994L191.00000000000014,54.499999999999915L192.00000000000014,53.99999999999994L193.00000000000017,53.499999999999915L194.0000000000001,52.99999999999994L195.00000000000014,52.499999999999915L196.00000000000014,51.99999999999994L197.00000000000014,51.499999999999915L198.00000000000014,50.99999999999994L199.00000000000017,50.499999999999915L200.0000000000001,49.99999999999994L201.00000000000014,49.499999999999915L202.00000000000014,48.99999999999994L203.0000000000001,48.49999999999994L204.00000000000014,47.99999999999994L205.00000000000017,47.499999999999915L206.0000000000001,46.99999999999994L207.0000000000001,46.49999999999994L208.00000000000014,45.99999999999994L209.00000000000017,45.499999999999915L210.00000000000014,44.99999999999994L211.0000000000001,44.49999999999994L212.00000000000014,43.999999999999915L213.00000000000014,43.499999999999915L214.00000000000014,42.999999999999915L215.00000000000014,42.49999999999994L216.00000000000017,41.999999999999915L217.00000000000017,41.499999999999915L218.00000000000014,40.999999999999915L219.0000000000001,40.49999999999994L220.00000000000014,39.999999999999915L221.00000000000017,39.499999999999915L222.00000000000017,38.999999999999915L223.0000000000001,38.49999999999994L224.00000000000014,37.999999999999915L225.00000000000017,37.499999999999915L226.00000000000017,36.999999999999915L227.00000000000014,36.49999999999994L228.00000000000017,35.999999999999915L229.0000000000002,35.499999999999915L230.00000000000014,34.999999999999915L231.00000000000014,34.49999999999994L232.00000000000017,33.999999999999915L233.00000000000017,33.499999999999915L234.00000000000017,32.999999999999915L235.00000000000014,32.49999999999994L236.00000000000014,31.999999999999915L237.00000000000017,31.499999999999915L238.00000000000017,30.999999999999915L239.00000000000017,30.499999999999915L240.00000000000017,29.999999999999915L241.0000000000002,29.499999999999915L242.00000000000017,28.999999999999915L243.00000000000014,28.499999999999915L244.00000000000017,27.999999999999915L245.0000000000002,27.499999999999915L246.0000000000002,26.999999999999915L247.00000000000014,26.499999999999915L248.00000000000017,25.999999999999915L249.0000000000002,25.499999999999886L250.00000000000017,24.999999999999915L251.00000000000017,24.499999999999915L252.0000000000002,23.999999999999915L253.00000000000023,23.499999999999886L254.00000000000017,22.999999999999915L255.00000000000017,22.499999999999915L256.00000000000017,21.999999999999915L257.0000000000002,21.499999999999886L258.00000000000017,20.999999999999915L259.00000000000017,20.499999999999915L260.00000000000017,19.999999999999915L261.00000000000017,19.499999999999886L262.00000000000017,18.999999999999915L263.00000000000017,18.499999999999915L264.0000000000002,17.999999999999915L265.0000000000002,17.499999999999886L266.00000000000017,16.999999999999915L267.00000000000017,16.499999999999915L268.00000000000017,15.999999999999915L269.0000000000002,15.499999999999886L270.0000000000002,14.999999999999915L271.00000000000017,14.499999999999915L272.00000000000017,13.999999999999915L273.0000000000002,13.499999999999886L274.0000000000002,12.999999999999886L275.00000000000017,12.499999999999915L276.0000000000002,11.999999999999886L277.0000000000002,11.499999999999886L278.00000000000017,10.999999999999886L279.00000000000017,10.499999999999915L280.0000000000002,9.999999999999886L281.0000000000002,9.499999999999886L282.0000000000002,8.999999999999886L283.00000000000017,8.499999999999915L284.00000000000017,7.999999999999886L285.0000000000002,7.499999999999886L286.0000000000002,6.999999999999886L287.0000000000002,6.499999999999915L288.0000000000002,5.999999999999886L289.0000000000002,5.499999999999886L290.0000000000002,4.999999999999886L291.00000000000017,4.499999999999915L292.0000000000002,3.9999999999998863L293.0000000000002,3.4999999999998863L294.0000000000002,2.9999999999998863L295.00000000000017,2.4999999999999147L296.0000000000002,1.9999999999998863L297.0000000000002,1.4999999999998863L298.0000000000002,0.9999999999998863L299.0000000000002,0.4999999999998863L300,0" stroke="#1f77b4"></path><svg overflow="visible" data-type="text"><text xml:space="preserve" dominant-baseline="central" font-size="14" font-family="DejaVu Sans Mono" text-anchor="middle"><textPath href="#path-uuid-10" startOffset="50%"></textPath></text></svg></svg><svg overflow="visible" data-type="circle" x="96" y="96"><circle stroke-width="2" r="4" cx="4" cy="4" fill="#c5b0d5" stroke="#9467bd"></circle><svg overflow="visible" data-type="text" x="4" y="4"><text xml:space="preserve" dominant-baseline="central" font-size="14" font-family="DejaVu Sans Mono" text-anchor="middle" fill="#9467bd" stroke="transparent"></text></svg></svg><svg overflow="visible" data-type="circle" x="196" y="46"><circle stroke-width="2" r="4" cx="4" cy="4" fill="#c5b0d5" stroke="#9467bd"></circle><svg overflow="visible" data-type="text" x="4" y="4"><text xml:space="preserve" dominant-baseline="central" font-size="14" font-family="DejaVu Sans Mono" text-anchor="middle" fill="#9467bd" stroke="transparent"></text></svg></svg></svg><svg overflow="visible" x="320" y="76"><svg overflow="visible" data-type="text" y="0" x="0"><text xml:space="preserve" dominant-baseline="text-before-edge" font-size="14" font-family="DejaVu Sans Mono">(2 - 1)   1</text></svg><svg overflow="visible" data-type="text" y="16" x="0"><text xml:space="preserve" dominant-baseline="text-before-edge" font-size="14" font-family="DejaVu Sans Mono">------- = - = +1</text></svg><svg overflow="visible" data-type="text" y="32" x="0"><text xml:space="preserve" dominant-baseline="text-before-edge" font-size="14" font-family="DejaVu Sans Mono">(1 - 0)   1</text></svg></svg></svg>