<svg xmlns="http://www.w3.org/2000/svg" width="369.4921875" height="264" viewBox="-55.28125 -18 369.4921875 264"><svg overflow="visible"><svg overflow="visible" class="grid"><svg overflow="visible" data-type="path" class="tick tick-x"><path id="path-uuid-1" fill="transparent" stroke-width="2" d="M 0 200 0 0" stroke="#eee"></path><svg overflow="visible" data-type="text"><text xml:space="preserve" dominant-baseline="central" font-size="14" font-family="DejaVu Sans Mono" text-anchor="middle"><textPath href="#path-uuid-1" startOffset="50%"></textPath></text></svg></svg><svg overflow="visible" data-type="path" class="tick tick-x"><path id="path-uuid-2" fill="transparent" stroke-width="2" d="M 50 200 50 0" stroke="#eee"></path><svg overflow="visible" data-type="text"><text xml:space="preserve" dominant-baseline="central" font-size="14" font-family="DejaVu Sans Mono" text-anchor="middle"><textPath href="#path-uuid-2" startOffset="50%"></textPath></text></svg></svg><svg overflow="visible" data-type="path" class="tick tick-x"><path id="path-uuid-3" fill="transparent" stroke-width="2" d="M 100 200 100 0" stroke="#eee"></path><svg overflow="visible" data-type="text"><text xml:space="preserve" dominant-baseline="central" font-size="14" font-family="DejaVu Sans Mono" text-anchor="middle"><textPath href="#path-uuid-3" startOffset="50%"></textPath></text></svg></svg><svg overflow="visible" data-type="path" class="tick tick-x"><path id="path-uuid-5" fill="transparent" stroke-width="2" d="M 200 200 200 0" stroke="#eee"></path><svg overflow="visible" data-type="text"><text xml:space="preserve" dominant-baseline="central" font-size="14" font-family="DejaVu Sans Mono" text-anchor="middle"><textPath href="#path-uuid-5" startOffset="50%"></textPath></text></svg></svg><svg overflow="visible" data-type="path" class="tick tick-x"><path id="path-uuid-6" fill="transparent" stroke-width="2" d="M 250 200 250 0" stroke="#eee"></path><svg overflow="visible" data-type="text"><text xml:space="preserve" dominant-baseline="central" font-size="14" font-family="DejaVu Sans Mono" text-anchor="middle"><textPath href="#path-uuid-6" startOffset="50%"></textPath></text></svg></svg><svg overflow="visible" data-type="path" class="tick tick-x"><path id="path-uuid-7" fill="transparent" stroke-width="2" d="M 300 200 300 0" stroke="#eee"></path><svg overflow="visible" data-type="text"><text xml:space="preserve" dominant-baseline="central" font-size="14" font-family="DejaVu Sans Mono" text-anchor="middle"><textPath href="#path-uuid-7" startOffset="50%"></textPath></text></svg></svg><svg overflow="visible" data-type="path" class="tick tick-y"><path id="path-uuid-9" fill="transparent" stroke-width="2" d="M 0 100 300 100" stroke="#eee"></path><svg overflow="visible" data-type="text"><text xml:space="preserve" dominant-baseline="central" font-size="14" font-family="DejaVu Sans Mono" text-anchor="middle"><textPath href="#path-uuid-9" startOffset="50%"></textPath></text></svg></svg><svg overflow="visible" data-type="path" class="tick tick-y"><path id="path-uuid-10" fill="transparent" stroke-width="2" d="M 0 0 300 0" stroke="#eee"></path><svg overflow="visible" data-type="text"><text xml:space="preserve" dominant-baseline="central" font-size="14" font-family="DejaVu Sans Mono" text-anchor="middle"><textPath href="#path-uuid-10" startOffset="50%"></textPath></text></svg></svg><svg overflow="visible" data-type="path" class="tick tick-x"><path id="path-uuid-4" fill="transparent" stroke-width="2" d="M 150 200 150 0" stroke="#111111"></path><svg overflow="visible" data-type="text"><text xml:space="preserve" dominant-baseline="central" font-size="14" font-family="DejaVu Sans Mono" text-anchor="middle"><textPath href="#path-uuid-4" startOffset="50%"></textPath></text></svg></svg><svg overflow="visible" data-type="path" class="tick tick-y"><path id="path-uuid-8" fill="transparent" stroke-width="2" d="M 0 200 300 200" stroke="#111111"></path><svg overflow="visible" data-type="text"><text xml:space="preserve" dominant-baseline="central" font-size="14" font-family="DejaVu Sans Mono" text-anchor="middle"><textPath href="#path-uuid-8" startOffset="50%"></textPath></text></svg></svg></svg><svg overflow="visible" class="axis axis-x" y="220"><svg overflow="visible" data-type="text" class="tick-label tick-label-x" x="-8.421875"><text xml:space="preserve" dominant-baseline="text-before-edge" font-size="14" font-family="DejaVu Sans Mono">-6</text></svg><svg overflow="visible" data-type="text" class="tick-label tick-label-x" x="41.578125"><text xml:space="preserve" dominant-baseline="text-before-edge" font-size="14" font-family="DejaVu Sans Mono">-4</text></svg><svg overflow="visible" data-type="text" class="tick-label tick-label-x" x="91.578125"><text xml:space="preserve" dominant-baseline="text-before-edge" font-size="14" font-family="DejaVu Sans Mono">-2</text></svg><svg overflow="visible" data-type="text" class="tick-label tick-label-x" x="145.7890625"><text xml:space="preserve" dominant-baseline="text-before-edge" font-size="14" font-family="DejaVu Sans Mono">0</text></svg><svg overflow="visible" data-type="text" class="tick-label tick-label-x" x="195.7890625"><text xml:space="preserve" dominant-baseline="text-before-edge" font-size="14" font-family="DejaVu Sans Mono">2</text></svg><svg overflow="visible" data-type="text" class="tick-label tick-label-x" x="245.7890625"><text xml:space="preserve" dominant-baseline="text-before-edge" font-size="14" font-family="DejaVu Sans Mono">4</text></svg><svg overflow="visible" data-type="text" class="tick-label tick-label-x" x="295.7890625"><text xml:space="preserve" dominant-baseline="text-before-edge" font-size="14" font-family="DejaVu Sans Mono">6</text></svg></svg><svg overflow="visible" class="axis axis-y" x="-45.28125"><svg overflow="visible" data-type="text" class="tick-label tick-label-y" y="192" x="8.4296875"><text xml:space="preserve" dominant-baseline="text-before-edge" font-size="14" font-family="DejaVu Sans Mono">0</text></svg><svg overflow="visible" data-type="text" class="tick-label tick-label-y" y="92" x="0"><text xml:space="preserve" dominant-baseline="text-before-edge" font-size="14" font-family="DejaVu Sans Mono">0.5</text></svg><svg overflow="visible" data-type="text" class="tick-label tick-label-y" y="-8" x="8.4296875"><text xml:space="preserve" dominant-baseline="text-before-edge" font-size="14" font-family="DejaVu Sans Mono">1</text></svg></svg><svg overflow="visible" data-type="path"><path id="path-uuid-11" fill="transparent" stroke-width="2" d="M0,199.50547536867305L1.0000000000000009,199.48534536923793L2.0000000000000018,199.4643981627574L3.0000000000000027,199.44260075619155L4.0000000000000036,199.41991883964317L5.000000000000004,199.39631673505832L6.000000000000005,199.37175734303412L7.000000000000006,199.34620208767228L8.000000000000007,199.31961085941654L9.000000000000007,199.2919419558107L10.000000000000009,199.2631520201128L11.00000000000001,199.23319597770052L12.00000000000001,199.2020269702012L13.00000000000001,199.16959628727986L14.000000000000012,199.13585329601761L15.000000000000014,199.10074536781175L16.000000000000014,199.06421780272987L17.000000000000014,199.02621375124826L18.000000000000014,198.98667413330674L19.000000000000018,198.94553755461027L20.000000000000018,198.9027402201099L21.000000000000018,198.85821584459532L22.00000000000002,198.81189556033192L23.000000000000018,198.76370782167777L24.00000000000002,198.71357830661628L25.000000000000025,198.66142981514304L26.00000000000002,198.60718216444758L27.000000000000025,198.55075208083372L28.000000000000025,198.49205308832532L29.000000000000025,198.43099539390886L30.00000000000003,198.36748576936802L31.00000000000003,198.30142742967112L32.00000000000003,198.23271990787845L33.00000000000003,198.1612589265424L34.00000000000003,198.08693626558167L35.00000000000003,198.00963962661913L36.00000000000003,197.92925249378166L37.000000000000036,197.84565399097167L38.000000000000036,197.75871873563142L39.000000000000036,197.6683166890334L40.000000000000036,197.57431300314514L41.00000000000004,197.47656786413225L42.000000000000036,197.37493633257944L43.000000000000036,197.26926818052982L44.00000000000004,197.15940772546176L45.00000000000004,197.0451936613454L46.000000000000036,196.92645888694489L47.00000000000004,196.80303033155948L48.00000000000004,196.67472877842366L49.00000000000004,196.5413686860189L50.00000000000005,196.4027580075817L51.00000000000004,196.25869800912906L52.00000000000004,196.10898308636138L53.00000000000005,195.95340058084292L54.00000000000005,195.79173059590633L55.00000000000004,195.6237458127739L56.00000000000005,195.44921130743919L57.00000000000005,195.26788436890774L58.00000000000005,195.0795143194521L59.00000000000006,194.88384233759845L60.00000000000006,194.68060128462682L61.00000000000005,194.46951553543536L62.00000000000006,194.250300814692L63.00000000000006,194.02266403927274L64.00000000000006,193.7863031680665L65.00000000000006,193.54090706030988L66.00000000000006,193.28615534370348L67.00000000000006,193.0217182936526L68.00000000000006,192.74725672507032L69.00000000000006,192.4624218982788L70.00000000000006,192.1668554406471L71.00000000000007,191.86018928570667L72.00000000000006,191.54204563159323L73.00000000000006,191.2120369207717L74.00000000000007,190.86976584311122L75.00000000000007,190.51482536448663L76.00000000000007,190.14679878319464L77.00000000000006,189.76525981658165L78.00000000000007,189.36977272038723L79.00000000000007,188.9598924434131L80.00000000000007,188.5351648202262L81.00000000000007,188.09512680469967L82.00000000000009,187.63930674728226L83.00000000000007,187.16722471896517L84.00000000000007,186.67839288498183L85.00000000000009,186.1723159313306L86.00000000000007,185.6484915472497L87.00000000000007,185.10641096679433L88.00000000000009,184.54555957266797L89.00000000000007,183.9654175654375L90.00000000000009,183.36546070121548L91.00000000000009,182.7451611008166L92.00000000000007,182.10398813328766L93.00000000000009,181.44140937656854L94.00000000000009,180.75689165786136L95.00000000000009,180.04990217606291L96.00000000000009,179.31990970835002L97.00000000000009,178.5663859026943L98.00000000000009,177.78880665771842L99.00000000000009,176.98665359088997L100.0000000000001,176.1594155955764L101.00000000000009,175.30659048695512L102.00000000000009,174.42768673618366L103.0000000000001,173.52222529158684L104.00000000000009,172.58974148490796L105.0000000000001,171.62978701990235L106.0000000000001,170.64193203972343L107.00000000000009,169.62576726866803L108.0000000000001,168.58090622290936L109.0000000000001,167.50698748386068L110.00000000000009,166.40367702678478L111.0000000000001,165.2706705961989L112.0000000000001,164.10769611853453L113.0000000000001,162.91451614140342L114.0000000000001,161.69093028770638L115.00000000000011,160.43677771171622L116.0000000000001,159.15193954318153L117.0000000000001,157.83634130445046L118.00000000000011,156.48995528462234L119.0000000000001,155.11280285381454L120.00000000000011,153.70495669980338L121.00000000000011,152.26654296858192L122.0000000000001,150.79774328978945L123.00000000000011,149.29879666753226L124.00000000000011,147.7700012168496L125.0000000000001,146.21171572600082L126.00000000000011,144.6243610248778L127.00000000000011,143.00842114019775L128.0000000000001,141.36444421871332L129.0000000000001,139.69304320050756L130.0000000000001,137.9948962255223L131.0000000000001,136.27074675780491L132.0000000000001,134.5214034135519L133.0000000000001,132.74773948087034L134.0000000000001,130.95069212126361L135.0000000000001,129.13126124515887L136.0000000000001,127.29050805631303L137.0000000000001,125.42955326263889L138.0000000000001,123.54957495384956L139.00000000000014,121.65180614930266L140.0000000000001,119.73753202249017L141.0000000000001,117.80808681173278L142.00000000000014,115.86485042974967L143.0000000000001,113.90924478784558L144.0000000000001,111.94272985343835L145.00000000000014,109.96679946249536L146.0000000000001,107.9829769111129L147.0000000000001,105.99281035291412L148.0000000000001,103.9978680311161L149.0000000000001,101.99973337599288L150.0000000000001,99.99999999999976L151.0000000000001,98.00026662400667L152.0000000000001,96.00213196888339L153.0000000000001,94.00718964708541L154.0000000000001,92.01702308888665L155.0000000000001,90.03320053750419L156.0000000000001,88.05727014656117L157.00000000000014,86.09075521215397L158.0000000000001,84.13514957024988L159.0000000000001,82.19191318826675L160.00000000000014,80.26246797750936L161.0000000000001,78.34819385069689L162.0000000000001,76.45042504614999L163.00000000000014,74.57044673736067L164.0000000000001,72.7094919436865L165.0000000000001,70.8687387548407L166.00000000000014,69.04930787873593L167.0000000000001,67.25226051912924L168.0000000000001,65.47859658644771L169.00000000000014,63.72925324219466L170.00000000000014,62.005103774477305L171.0000000000001,60.30695679949204L172.00000000000014,58.635555781286286L173.00000000000014,56.99157885980185L174.0000000000001,55.37563897512183L175.00000000000014,53.78828427399884L176.00000000000014,52.229998783149995L177.0000000000001,50.70120333246737L178.00000000000014,49.20225671021018L179.00000000000014,47.73345703141774L180.0000000000001,46.295043300196284L181.00000000000014,44.887197146185116L182.00000000000014,43.51004471537732L183.00000000000014,42.16365869554923L184.00000000000014,40.84806045681816L185.00000000000014,39.56322228828347L186.00000000000014,38.30906971229331L187.00000000000014,37.08548385859626L188.00000000000014,35.89230388146521L189.00000000000014,34.72932940380085L190.00000000000017,33.59632297321497L191.00000000000014,32.49301251613906L192.00000000000014,31.41909377709041L193.00000000000017,30.374232731331688L194.00000000000014,29.358067960276344L195.00000000000014,28.37021298009742L196.00000000000017,27.410258515091783L197.00000000000014,26.477774708412937L198.00000000000014,25.572313263816113L199.00000000000017,24.693409513044656L200.0000000000001,23.840584404423396L201.00000000000014,23.013346409109857L202.00000000000014,22.211193342281405L203.00000000000017,21.433614097305508L204.00000000000014,20.680090291649805L205.00000000000017,19.950097823936943L206.0000000000001,19.24310834213844L207.00000000000014,18.558590623431286L208.00000000000014,17.896011866712172L209.00000000000017,17.254838899183255L210.00000000000014,16.634539298784404L211.00000000000017,16.034582434562395L212.00000000000014,15.454440427331917L213.00000000000014,14.893589033205558L214.00000000000014,14.351508452750181L215.00000000000017,13.82768406866927L216.00000000000017,13.321607115018054L217.00000000000017,12.832775281034714L218.00000000000014,12.360693252717624L219.00000000000017,11.904873195300212L220.00000000000014,11.464835179773672L221.00000000000017,11.040107556586776L222.00000000000017,10.630227279612683L223.0000000000002,10.234740183418268L224.00000000000014,9.853201216805274L225.00000000000017,9.485174635513317L226.00000000000017,9.130234156888662L227.00000000000017,8.787963079228206L228.00000000000017,8.457954368406718L229.0000000000002,8.139810714293247L230.00000000000014,7.8331445593528315L231.00000000000017,7.537578101721124L232.00000000000017,7.252743274929628L233.00000000000017,6.978281706347332L234.00000000000017,6.713844656296459L235.0000000000002,6.459092939690038L236.00000000000014,6.213696831933447L237.00000000000017,5.977335960727174L238.00000000000017,5.749699185307975L239.0000000000002,5.53048446456458L240.00000000000017,5.319398715373154L241.0000000000002,5.11615766240152L242.00000000000017,4.92048568054787L243.00000000000017,4.732115631092199L244.00000000000017,4.550788692560786L245.0000000000002,4.376254187226067L246.0000000000002,4.208269404093613L247.0000000000002,4.046599419157047L248.00000000000017,3.891016913638566L249.0000000000002,3.741301990870909L250.00000000000017,3.597241992418276L251.00000000000017,3.4586313139810727L252.0000000000002,3.325271221576287L253.00000000000023,3.1969696684405164L254.00000000000017,3.0735411130551142L255.00000000000017,2.954806338654606L256.00000000000017,2.8405922745382384L257.0000000000002,2.730731819470151L258.00000000000017,2.625063667420534L259.00000000000017,2.5234321358677505L260.00000000000017,2.425686996854864L261.00000000000017,2.3316833109666106L262.00000000000017,2.241281264368581L263.00000000000017,2.154346009028302L264.0000000000002,2.070747506218339L265.0000000000002,1.9903603733808382L266.00000000000017,1.9130637344183299L267.00000000000017,1.8387410734576122L268.00000000000017,1.7672800921214957L269.0000000000002,1.6985725703288495L270.0000000000002,1.6325142306319833L271.00000000000017,1.569004606091113L272.00000000000017,1.507946911674651L273.0000000000002,1.449247919166254L274.0000000000002,1.392817835552421L275.00000000000017,1.338570184856934L276.0000000000002,1.2864216933837156L277.0000000000002,1.2362921783222305L278.00000000000017,1.1881044396680522L279.00000000000017,1.1417841554046504L280.0000000000002,1.0972597798900665L281.0000000000002,1.0544624453897313L282.0000000000002,1.0133258666932363L283.00000000000017,0.9737862487517361L284.00000000000017,0.9357821972701572L285.0000000000002,0.8992546321882173L286.0000000000002,0.8641467039823851L287.0000000000002,0.8304037127201411L288.0000000000002,0.7979730297988112L289.0000000000002,0.7668040222994819L290.0000000000002,0.7368479798871874L291.00000000000017,0.7080580441893005L292.0000000000002,0.6803891405834577L293.0000000000002,0.6537979123277182L294.0000000000002,0.628242656965881L295.00000000000017,0.6036832649416795L296.0000000000002,0.5800811603568263L297.0000000000002,0.5573992438084474L298.0000000000002,0.5356018372425808L299.0000000000002,0.5146546307620667L300,0.49452463132692515" stroke="#1f77b4"></path><svg overflow="visible" data-type="text"><text xml:space="preserve" dominant-baseline="central" font-size="14" font-family="DejaVu Sans Mono" text-anchor="middle"><textPath href="#path-uuid-11" startOffset="50%"></textPath></text></svg></svg></svg></svg>