<svg xmlns="http://www.w3.org/2000/svg" width="365.265625" height="264" viewBox="-46.84375 -18 365.265625 264"><svg overflow="visible"><svg overflow="visible" class="grid"><svg overflow="visible" data-type="path" class="tick tick-x"><path id="path-uuid-1" fill="transparent" stroke-width="2" d="M 0 200 0 0" stroke="#eee"></path><svg overflow="visible" data-type="text"><text xml:space="preserve" dominant-baseline="central" font-size="14" font-family="DejaVu Sans Mono" text-anchor="middle"><textPath href="#path-uuid-1" startOffset="50%"></textPath></text></svg></svg><svg overflow="visible" data-type="path" class="tick tick-x"><path id="path-uuid-2" fill="transparent" stroke-width="2" d="M 33.33333333333333 200 33.33333333333333 0" stroke="#eee"></path><svg overflow="visible" data-type="text"><text xml:space="preserve" dominant-baseline="central" font-size="14" font-family="DejaVu Sans Mono" text-anchor="middle"><textPath href="#path-uuid-2" startOffset="50%"></textPath></text></svg></svg><svg overflow="visible" data-type="path" class="tick tick-x"><path id="path-uuid-3" fill="transparent" stroke-width="2" d="M 66.66666666666666 200 66.66666666666666 0" stroke="#eee"></path><svg overflow="visible" data-type="text"><text xml:space="preserve" dominant-baseline="central" font-size="14" font-family="DejaVu Sans Mono" text-anchor="middle"><textPath href="#path-uuid-3" startOffset="50%"></textPath></text></svg></svg><svg overflow="visible" data-type="path" class="tick tick-x"><path id="path-uuid-4" fill="transparent" stroke-width="2" d="M 100 200 100 0" stroke="#eee"></path><svg overflow="visible" data-type="text"><text xml:space="preserve" dominant-baseline="central" font-size="14" font-family="DejaVu Sans Mono" text-anchor="middle"><textPath href="#path-uuid-4" startOffset="50%"></textPath></text></svg></svg><svg overflow="visible" data-type="path" class="tick tick-x"><path id="path-uuid-6" fill="transparent" stroke-width="2" d="M 166.66666666666669 200 166.66666666666669 0" stroke="#eee"></path><svg overflow="visible" data-type="text"><text xml:space="preserve" dominant-baseline="central" font-size="14" font-family="DejaVu Sans Mono" text-anchor="middle"><textPath href="#path-uuid-6" startOffset="50%"></textPath></text></svg></svg><svg overflow="visible" data-type="path" class="tick tick-x"><path id="path-uuid-7" fill="transparent" stroke-width="2" d="M 200 200 200 0" stroke="#eee"></path><svg overflow="visible" data-type="text"><text xml:space="preserve" dominant-baseline="central" font-size="14" font-family="DejaVu Sans Mono" text-anchor="middle"><textPath href="#path-uuid-7" startOffset="50%"></textPath></text></svg></svg><svg overflow="visible" data-type="path" class="tick tick-x"><path id="path-uuid-8" fill="transparent" stroke-width="2" d="M 233.33333333333334 200 233.33333333333334 0" stroke="#eee"></path><svg overflow="visible" data-type="text"><text xml:space="preserve" dominant-baseline="central" font-size="14" font-family="DejaVu Sans Mono" text-anchor="middle"><textPath href="#path-uuid-8" startOffset="50%"></textPath></text></svg></svg><svg overflow="visible" data-type="path" class="tick tick-x"><path id="path-uuid-9" fill="transparent" stroke-width="2" d="M 266.66666666666663 200 266.66666666666663 0" stroke="#eee"></path><svg overflow="visible" data-type="text"><text xml:space="preserve" dominant-baseline="central" font-size="14" font-family="DejaVu Sans Mono" text-anchor="middle"><textPath href="#path-uuid-9" startOffset="50%"></textPath></text></svg></svg><svg overflow="visible" data-type="path" class="tick tick-x"><path id="path-uuid-10" fill="transparent" stroke-width="2" d="M 300 200 300 0" stroke="#eee"></path><svg overflow="visible" data-type="text"><text xml:space="preserve" dominant-baseline="central" font-size="14" font-family="DejaVu Sans Mono" text-anchor="middle"><textPath href="#path-uuid-10" startOffset="50%"></textPath></text></svg></svg><svg overflow="visible" data-type="path" class="tick tick-y"><path id="path-uuid-11" fill="transparent" stroke-width="2" d="M 0 200 300 200" stroke="#eee"></path><svg overflow="visible" data-type="text"><text xml:space="preserve" dominant-baseline="central" font-size="14" font-family="DejaVu Sans Mono" text-anchor="middle"><textPath href="#path-uuid-11" startOffset="50%"></textPath></text></svg></svg><svg overflow="visible" data-type="path" class="tick tick-y"><path id="path-uuid-13" fill="transparent" stroke-width="2" d="M 0 133.33333333333334 300 133.33333333333334" stroke="#eee"></path><svg overflow="visible" data-type="text"><text xml:space="preserve" dominant-baseline="central" font-size="14" font-family="DejaVu Sans Mono" text-anchor="middle"><textPath href="#path-uuid-13" startOffset="50%"></textPath></text></svg></svg><svg overflow="visible" data-type="path" class="tick tick-y"><path id="path-uuid-14" fill="transparent" stroke-width="2" d="M 0 100 300 100" stroke="#eee"></path><svg overflow="visible" data-type="text"><text xml:space="preserve" dominant-baseline="central" font-size="14" font-family="DejaVu Sans Mono" text-anchor="middle"><textPath href="#path-uuid-14" startOffset="50%"></textPath></text></svg></svg><svg overflow="visible" data-type="path" class="tick tick-y"><path id="path-uuid-15" fill="transparent" stroke-width="2" d="M 0 66.66666666666669 300 66.66666666666669" stroke="#eee"></path><svg overflow="visible" data-type="text"><text xml:space="preserve" dominant-baseline="central" font-size="14" font-family="DejaVu Sans Mono" text-anchor="middle"><textPath href="#path-uuid-15" startOffset="50%"></textPath></text></svg></svg><svg overflow="visible" data-type="path" class="tick tick-y"><path id="path-uuid-16" fill="transparent" stroke-width="2" d="M 0 33.333333333333314 300 33.333333333333314" stroke="#eee"></path><svg overflow="visible" data-type="text"><text xml:space="preserve" dominant-baseline="central" font-size="14" font-family="DejaVu Sans Mono" text-anchor="middle"><textPath href="#path-uuid-16" startOffset="50%"></textPath></text></svg></svg><svg overflow="visible" data-type="path" class="tick tick-y"><path id="path-uuid-17" fill="transparent" stroke-width="2" d="M 0 0 300 0" stroke="#eee"></path><svg overflow="visible" data-type="text"><text xml:space="preserve" dominant-baseline="central" font-size="14" font-family="DejaVu Sans Mono" text-anchor="middle"><textPath href="#path-uuid-17" startOffset="50%"></textPath></text></svg></svg><svg overflow="visible" data-type="path" class="tick tick-x"><path id="path-uuid-5" fill="transparent" stroke-width="2" d="M 133.33333333333331 200 133.33333333333331 0" stroke="#111111"></path><svg overflow="visible" data-type="text"><text xml:space="preserve" dominant-baseline="central" font-size="14" font-family="DejaVu Sans Mono" text-anchor="middle"><textPath href="#path-uuid-5" startOffset="50%"></textPath></text></svg></svg><svg overflow="visible" data-type="path" class="tick tick-y"><path id="path-uuid-12" fill="transparent" stroke-width="2" d="M 0 166.66666666666669 300 166.66666666666669" stroke="#111111"></path><svg overflow="visible" data-type="text"><text xml:space="preserve" dominant-baseline="central" font-size="14" font-family="DejaVu Sans Mono" text-anchor="middle"><textPath href="#path-uuid-12" startOffset="50%"></textPath></text></svg></svg></svg><svg overflow="visible" class="axis axis-x" y="220"><svg overflow="visible" data-type="text" class="tick-label tick-label-x" x="-8.421875"><text xml:space="preserve" dominant-baseline="text-before-edge" font-size="14" font-family="DejaVu Sans Mono">-8</text></svg><svg overflow="visible" data-type="text" class="tick-label tick-label-x" x="24.91145833333333"><text xml:space="preserve" dominant-baseline="text-before-edge" font-size="14" font-family="DejaVu Sans Mono">-6</text></svg><svg overflow="visible" data-type="text" class="tick-label tick-label-x" x="58.24479166666666"><text xml:space="preserve" dominant-baseline="text-before-edge" font-size="14" font-family="DejaVu Sans Mono">-4</text></svg><svg overflow="visible" data-type="text" class="tick-label tick-label-x" x="91.578125"><text xml:space="preserve" dominant-baseline="text-before-edge" font-size="14" font-family="DejaVu Sans Mono">-2</text></svg><svg overflow="visible" data-type="text" class="tick-label tick-label-x" x="129.12239583333331"><text xml:space="preserve" dominant-baseline="text-before-edge" font-size="14" font-family="DejaVu Sans Mono">0</text></svg><svg overflow="visible" data-type="text" class="tick-label tick-label-x" x="162.45572916666669"><text xml:space="preserve" dominant-baseline="text-before-edge" font-size="14" font-family="DejaVu Sans Mono">2</text></svg><svg overflow="visible" data-type="text" class="tick-label tick-label-x" x="195.7890625"><text xml:space="preserve" dominant-baseline="text-before-edge" font-size="14" font-family="DejaVu Sans Mono">4</text></svg><svg overflow="visible" data-type="text" class="tick-label tick-label-x" x="229.12239583333334"><text xml:space="preserve" dominant-baseline="text-before-edge" font-size="14" font-family="DejaVu Sans Mono">6</text></svg><svg overflow="visible" data-type="text" class="tick-label tick-label-x" x="262.45572916666663"><text xml:space="preserve" dominant-baseline="text-before-edge" font-size="14" font-family="DejaVu Sans Mono">8</text></svg><svg overflow="visible" data-type="text" class="tick-label tick-label-x" x="291.578125"><text xml:space="preserve" dominant-baseline="text-before-edge" font-size="14" font-family="DejaVu Sans Mono">10</text></svg></svg><svg overflow="visible" class="axis axis-y" x="-36.84375"><svg overflow="visible" data-type="text" class="tick-label tick-label-y" y="192" x="0"><text xml:space="preserve" dominant-baseline="text-before-edge" font-size="14" font-family="DejaVu Sans Mono">-2</text></svg><svg overflow="visible" data-type="text" class="tick-label tick-label-y" y="158.66666666666669" x="4.2109375"><text xml:space="preserve" dominant-baseline="text-before-edge" font-size="14" font-family="DejaVu Sans Mono">0</text></svg><svg overflow="visible" data-type="text" class="tick-label tick-label-y" y="125.33333333333334" x="4.2109375"><text xml:space="preserve" dominant-baseline="text-before-edge" font-size="14" font-family="DejaVu Sans Mono">2</text></svg><svg overflow="visible" data-type="text" class="tick-label tick-label-y" y="92" x="4.2109375"><text xml:space="preserve" dominant-baseline="text-before-edge" font-size="14" font-family="DejaVu Sans Mono">4</text></svg><svg overflow="visible" data-type="text" class="tick-label tick-label-y" y="58.666666666666686" x="4.2109375"><text xml:space="preserve" dominant-baseline="text-before-edge" font-size="14" font-family="DejaVu Sans Mono">6</text></svg><svg overflow="visible" data-type="text" class="tick-label tick-label-y" y="25.333333333333314" x="4.2109375"><text xml:space="preserve" dominant-baseline="text-before-edge" font-size="14" font-family="DejaVu Sans Mono">8</text></svg><svg overflow="visible" data-type="text" class="tick-label tick-label-y" y="-8" x="0"><text xml:space="preserve" dominant-baseline="text-before-edge" font-size="14" font-family="DejaVu Sans Mono">10</text></svg></svg><svg overflow="visible" data-type="path"><path id="path-uuid-18" fill="transparent" stroke-width="2" d="M0,166.66666666666669L0.9999999999999934,166.66666666666669L1.999999999999987,166.66666666666669L2.9999999999999805,166.66666666666669L3.999999999999974,166.66666666666669L4.999999999999968,166.66666666666669L5.999999999999961,166.66666666666669L6.999999999999955,166.66666666666669L7.999999999999948,166.66666666666669L8.999999999999941,166.66666666666669L9.999999999999936,166.66666666666669L10.999999999999929,166.66666666666669L11.999999999999922,166.66666666666669L12.999999999999915,166.66666666666669L13.99999999999991,166.66666666666669L14.999999999999902,166.66666666666669L15.999999999999895,166.66666666666669L16.99999999999989,166.66666666666669L17.999999999999883,166.66666666666669L18.999999999999876,166.66666666666669L19.999999999999872,166.66666666666669L20.999999999999865,166.66666666666669L21.999999999999858,166.66666666666669L22.999999999999847,166.66666666666669L23.999999999999844,166.66666666666669L24.999999999999837,166.66666666666669L25.99999999999983,166.66666666666669L26.999999999999822,166.66666666666669L27.99999999999982,166.66666666666669L28.99999999999981,166.66666666666669L29.999999999999805,166.66666666666669L30.9999999999998,166.66666666666669L31.99999999999979,166.66666666666669L32.99999999999979,166.66666666666669L33.99999999999978,166.66666666666669L34.99999999999977,166.66666666666669L35.999999999999766,166.66666666666669L36.99999999999976,166.66666666666669L37.99999999999975,166.66666666666669L38.999999999999744,166.66666666666669L39.999999999999744,166.66666666666669L40.99999999999973,166.66666666666669L41.99999999999973,166.66666666666669L42.999999999999716,166.66666666666669L43.999999999999716,166.66666666666669L44.99999999999971,166.66666666666669L45.999999999999694,166.66666666666669L46.999999999999694,166.66666666666669L47.99999999999969,166.66666666666669L48.99999999999968,166.66666666666669L49.99999999999967,166.66666666666669L50.99999999999967,166.66666666666669L51.99999999999966,166.66666666666669L52.99999999999966,166.66666666666669L53.999999999999645,166.66666666666669L54.99999999999964,166.66666666666669L55.99999999999964,166.66666666666669L56.99999999999962,166.66666666666669L57.99999999999962,166.66666666666669L58.999999999999616,166.66666666666669L59.99999999999961,166.66666666666669L60.9999999999996,166.66666666666669L61.9999999999996,166.66666666666669L62.99999999999959,166.66666666666669L63.99999999999958,166.66666666666669L64.99999999999957,166.66666666666669L65.99999999999957,166.66666666666669L66.99999999999959,166.66666666666669L67.99999999999957,166.66666666666669L68.99999999999956,166.66666666666669L69.99999999999957,166.66666666666669L70.99999999999959,166.66666666666669L71.99999999999957,166.66666666666669L72.99999999999957,166.66666666666669L73.99999999999957,166.66666666666669L74.99999999999959,166.66666666666669L75.99999999999957,166.66666666666669L76.99999999999957,166.66666666666669L77.99999999999959,166.66666666666669L78.99999999999959,166.66666666666669L79.99999999999959,166.66666666666669L80.99999999999957,166.66666666666669L81.99999999999957,166.66666666666669L82.99999999999959,166.66666666666669L83.99999999999959,166.66666666666669L84.99999999999959,166.66666666666669L85.99999999999959,166.66666666666669L86.99999999999959,166.66666666666669L87.99999999999959,166.66666666666669L88.99999999999959,166.66666666666669L89.9999999999996,166.66666666666669L90.9999999999996,166.66666666666669L91.99999999999959,166.66666666666669L92.99999999999959,166.66666666666669L93.99999999999959,166.66666666666669L94.9999999999996,166.66666666666669L95.9999999999996,166.66666666666669L96.99999999999959,166.66666666666669L97.9999999999996,166.66666666666669L98.9999999999996,166.66666666666669L99.99999999999959,166.66666666666669L100.9999999999996,166.66666666666669L101.9999999999996,166.66666666666669L102.99999999999962,166.66666666666669L103.9999999999996,166.66666666666669L104.99999999999959,166.66666666666669L105.9999999999996,166.66666666666669L106.9999999999996,166.66666666666669L107.99999999999962,166.66666666666669L108.9999999999996,166.66666666666669L109.9999999999996,166.66666666666669L110.99999999999962,166.66666666666669L111.9999999999996,166.66666666666669L112.99999999999962,166.66666666666669L113.99999999999962,166.66666666666669L114.99999999999963,166.66666666666669L115.99999999999962,166.66666666666669L116.9999999999996,166.66666666666669L117.99999999999962,166.66666666666669L118.99999999999962,166.66666666666669L119.99999999999963,166.66666666666669L120.99999999999962,166.66666666666669L121.99999999999962,166.66666666666669L122.99999999999963,166.66666666666669L123.99999999999962,166.66666666666669L124.99999999999962,166.66666666666669L125.99999999999963,166.66666666666669L126.99999999999962,166.66666666666669L127.99999999999963,166.66666666666669L128.9999999999996,166.66666666666669L129.99999999999963,166.66666666666669L130.99999999999963,166.66666666666669L131.99999999999963,166.66666666666669L132.99999999999963,166.66666666666669L133.99999999999963,166.00000000000037L134.9999999999996,165.00000000000037L135.9999999999996,164.00000000000037L136.99999999999963,163.00000000000037L137.99999999999963,162.0000000000004L138.9999999999996,161.0000000000004L139.99999999999963,160.0000000000004L140.99999999999963,159.00000000000037L141.99999999999963,158.00000000000037L142.99999999999963,157.00000000000037L143.99999999999963,156.00000000000037L144.99999999999963,155.00000000000037L145.9999999999996,154.00000000000037L146.9999999999996,153.00000000000037L147.99999999999963,152.00000000000037L148.99999999999963,151.00000000000037L149.99999999999966,150.00000000000037L150.99999999999963,149.00000000000037L151.99999999999966,148.00000000000037L152.99999999999963,147.00000000000037L153.99999999999963,146.00000000000037L154.9999999999996,145.00000000000037L155.99999999999963,144.00000000000037L156.99999999999963,143.00000000000037L157.99999999999966,142.00000000000037L158.99999999999963,141.00000000000034L159.99999999999963,140.00000000000034L160.99999999999966,139.00000000000034L161.9999999999996,138.00000000000034L162.99999999999963,137.00000000000034L163.99999999999966,136.00000000000034L164.99999999999966,135.00000000000034L165.99999999999966,134.00000000000034L166.99999999999963,133.00000000000037L167.99999999999966,132.00000000000034L168.99999999999963,131.00000000000034L169.99999999999963,130.00000000000034L170.99999999999966,129.00000000000034L171.99999999999963,128.00000000000034L172.99999999999966,127.00000000000034L173.99999999999966,126.00000000000034L174.99999999999966,125.00000000000036L175.99999999999966,124.00000000000034L176.99999999999966,123.00000000000034L177.99999999999966,122.00000000000034L178.99999999999963,121.00000000000036L179.99999999999966,120.00000000000034L180.99999999999966,119.00000000000034L181.99999999999966,118.00000000000034L182.99999999999966,117.00000000000034L183.99999999999966,116.00000000000034L184.9999999999997,115.00000000000034L185.99999999999963,114.00000000000034L186.99999999999966,113.00000000000034L187.9999999999997,112.00000000000033L188.99999999999966,111.00000000000033L189.9999999999997,110.00000000000033L190.99999999999966,109.00000000000034L191.99999999999966,108.00000000000033L192.99999999999966,107.00000000000033L193.99999999999966,106.00000000000033L194.9999999999997,105.00000000000034L195.99999999999966,104.00000000000033L196.9999999999997,103.00000000000033L197.9999999999997,102.00000000000033L198.99999999999966,101.00000000000034L199.9999999999997,100.00000000000033L200.9999999999997,99.00000000000033L201.99999999999966,98.00000000000033L202.99999999999963,97.00000000000036L203.99999999999966,96.00000000000036L204.99999999999966,95.00000000000036L205.99999999999963,94.00000000000037L206.99999999999963,93.00000000000037L207.9999999999996,92.00000000000037L208.99999999999963,91.0000000000004L209.99999999999963,90.0000000000004L210.99999999999957,89.00000000000038L211.9999999999996,88.00000000000041L212.9999999999996,87.00000000000041L213.99999999999957,86.00000000000041L214.99999999999957,85.00000000000043L215.99999999999955,84.00000000000043L216.99999999999957,83.00000000000043L217.99999999999957,82.00000000000045L218.99999999999952,81.00000000000045L219.99999999999955,80.00000000000045L220.99999999999955,79.00000000000047L221.99999999999955,78.00000000000047L222.99999999999952,77.00000000000047L223.99999999999952,76.00000000000048L224.99999999999955,75.00000000000048L225.9999999999995,74.00000000000048L226.9999999999995,73.00000000000051L227.99999999999952,72.00000000000051L228.9999999999995,71.00000000000051L229.9999999999995,70.00000000000054L230.99999999999946,69.00000000000054L231.99999999999946,68.00000000000054L232.9999999999995,67.00000000000054L233.99999999999943,66.00000000000054L234.99999999999943,65.00000000000057L235.99999999999946,64.00000000000057L236.99999999999943,63.00000000000054L237.99999999999943,62.00000000000057L238.9999999999994,61.0000000000006L239.9999999999994,60.0000000000006L240.99999999999943,59.0000000000006L241.9999999999994,58.0000000000006L242.99999999999937,57.000000000000625L243.99999999999937,56.0000000000006L244.9999999999994,55.0000000000006L245.99999999999937,54.000000000000625L246.99999999999935,53.000000000000654L247.99999999999937,52.000000000000654L248.99999999999935,51.000000000000625L249.99999999999935,50.000000000000654L250.99999999999935,49.000000000000654L251.99999999999932,48.000000000000654L252.99999999999935,47.000000000000654L253.99999999999935,46.00000000000068L254.9999999999993,45.00000000000071L255.99999999999932,44.00000000000068L256.9999999999993,43.00000000000068L257.9999999999993,42.00000000000071L258.99999999999926,41.00000000000074L259.99999999999926,40.00000000000071L260.9999999999993,39.00000000000071L261.99999999999926,38.00000000000071L262.99999999999926,37.00000000000074L263.99999999999926,36.00000000000074L264.99999999999926,35.00000000000074L265.99999999999926,34.00000000000077L266.99999999999926,33.00000000000074L267.99999999999926,32.00000000000074L268.99999999999926,31.00000000000074L269.99999999999926,30.00000000000071L270.99999999999926,29.00000000000071L271.99999999999926,28.00000000000071L272.9999999999993,27.000000000000682L273.9999999999993,26.000000000000682L274.9999999999993,25.000000000000682L275.9999999999993,24.000000000000654L276.9999999999994,23.000000000000654L277.9999999999994,22.000000000000654L278.9999999999993,21.000000000000654L279.9999999999994,20.000000000000625L280.9999999999994,19.000000000000625L281.9999999999994,18.000000000000625L282.9999999999993,17.000000000000625L283.9999999999994,16.000000000000625L284.99999999999943,15.000000000000597L285.99999999999943,14.000000000000597L286.9999999999994,13.000000000000597L287.99999999999943,12.000000000000568L288.9999999999995,11.000000000000568L289.99999999999943,10.000000000000568L290.99999999999943,9.00000000000054L291.99999999999943,8.00000000000054L292.9999999999995,7.00000000000054L293.9999999999995,6.000000000000512L294.99999999999943,5.000000000000512L295.9999999999995,4.000000000000512L296.99999999999955,3.000000000000483L297.99999999999955,2.000000000000483L298.9999999999995,1.0000000000004832L300,0" stroke="#1f77b4"></path><svg overflow="visible" data-type="text"><text xml:space="preserve" dominant-baseline="central" font-size="14" font-family="DejaVu Sans Mono" text-anchor="middle"><textPath href="#path-uuid-18" startOffset="50%"></textPath></text></svg></svg></svg></svg>