<svg xmlns="http://www.w3.org/2000/svg" width="361.0546875" height="264" viewBox="-46.84375 -18 361.0546875 264"><svg overflow="visible"><svg overflow="visible" class="grid"><svg overflow="visible" data-type="path" class="tick tick-x"><path id="path-uuid-1" fill="transparent" stroke-width="2" d="M 0 200 0 0" stroke="#eee"></path><svg overflow="visible" data-type="text"><text xml:space="preserve" dominant-baseline="central" font-size="14" font-family="DejaVu Sans Mono" text-anchor="middle"><textPath href="#path-uuid-1" startOffset="50%"></textPath></text></svg></svg><svg overflow="visible" data-type="path" class="tick tick-x"><path id="path-uuid-2" fill="transparent" stroke-width="2" d="M 75 200 75 0" stroke="#eee"></path><svg overflow="visible" data-type="text"><text xml:space="preserve" dominant-baseline="central" font-size="14" font-family="DejaVu Sans Mono" text-anchor="middle"><textPath href="#path-uuid-2" startOffset="50%"></textPath></text></svg></svg><svg overflow="visible" data-type="path" class="tick tick-x"><path id="path-uuid-4" fill="transparent" stroke-width="2" d="M 225 200 225 0" stroke="#eee"></path><svg overflow="visible" data-type="text"><text xml:space="preserve" dominant-baseline="central" font-size="14" font-family="DejaVu Sans Mono" text-anchor="middle"><textPath href="#path-uuid-4" startOffset="50%"></textPath></text></svg></svg><svg overflow="visible" data-type="path" class="tick tick-x"><path id="path-uuid-5" fill="transparent" stroke-width="2" d="M 300 200 300 0" stroke="#eee"></path><svg overflow="visible" data-type="text"><text xml:space="preserve" dominant-baseline="central" font-size="14" font-family="DejaVu Sans Mono" text-anchor="middle"><textPath href="#path-uuid-5" startOffset="50%"></textPath></text></svg></svg><svg overflow="visible" data-type="path" class="tick tick-y"><path id="path-uuid-6" fill="transparent" stroke-width="2" d="M 0 200 300 200" stroke="#eee"></path><svg overflow="visible" data-type="text"><text xml:space="preserve" dominant-baseline="central" font-size="14" font-family="DejaVu Sans Mono" text-anchor="middle"><textPath href="#path-uuid-6" startOffset="50%"></textPath></text></svg></svg><svg overflow="visible" data-type="path" class="tick tick-y"><path id="path-uuid-7" fill="transparent" stroke-width="2" d="M 0 150 300 150" stroke="#eee"></path><svg overflow="visible" data-type="text"><text xml:space="preserve" dominant-baseline="central" font-size="14" font-family="DejaVu Sans Mono" text-anchor="middle"><textPath href="#path-uuid-7" startOffset="50%"></textPath></text></svg></svg><svg overflow="visible" data-type="path" class="tick tick-y"><path id="path-uuid-9" fill="transparent" stroke-width="2" d="M 0 50 300 50" stroke="#eee"></path><svg overflow="visible" data-type="text"><text xml:space="preserve" dominant-baseline="central" font-size="14" font-family="DejaVu Sans Mono" text-anchor="middle"><textPath href="#path-uuid-9" startOffset="50%"></textPath></text></svg></svg><svg overflow="visible" data-type="path" class="tick tick-y"><path id="path-uuid-10" fill="transparent" stroke-width="2" d="M 0 0 300 0" stroke="#eee"></path><svg overflow="visible" data-type="text"><text xml:space="preserve" dominant-baseline="central" font-size="14" font-family="DejaVu Sans Mono" text-anchor="middle"><textPath href="#path-uuid-10" startOffset="50%"></textPath></text></svg></svg><svg overflow="visible" data-type="path" class="tick tick-x"><path id="path-uuid-3" fill="transparent" stroke-width="2" d="M 150 200 150 0" stroke="#111111"></path><svg overflow="visible" data-type="text"><text xml:space="preserve" dominant-baseline="central" font-size="14" font-family="DejaVu Sans Mono" text-anchor="middle"><textPath href="#path-uuid-3" startOffset="50%"></textPath></text></svg></svg><svg overflow="visible" data-type="path" class="tick tick-y"><path id="path-uuid-8" fill="transparent" stroke-width="2" d="M 0 100 300 100" stroke="#111111"></path><svg overflow="visible" data-type="text"><text xml:space="preserve" dominant-baseline="central" font-size="14" font-family="DejaVu Sans Mono" text-anchor="middle"><textPath href="#path-uuid-8" startOffset="50%"></textPath></text></svg></svg></svg><svg overflow="visible" class="axis axis-x" y="220"><svg overflow="visible" data-type="text" class="tick-label tick-label-x" x="-8.421875"><text xml:space="preserve" dominant-baseline="text-before-edge" font-size="14" font-family="DejaVu Sans Mono">-2</text></svg><svg overflow="visible" data-type="text" class="tick-label tick-label-x" x="66.578125"><text xml:space="preserve" dominant-baseline="text-before-edge" font-size="14" font-family="DejaVu Sans Mono">-1</text></svg><svg overflow="visible" data-type="text" class="tick-label tick-label-x" x="145.7890625"><text xml:space="preserve" dominant-baseline="text-before-edge" font-size="14" font-family="DejaVu Sans Mono">0</text></svg><svg overflow="visible" data-type="text" class="tick-label tick-label-x" x="220.7890625"><text xml:space="preserve" dominant-baseline="text-before-edge" font-size="14" font-family="DejaVu Sans Mono">1</text></svg><svg overflow="visible" data-type="text" class="tick-label tick-label-x" x="295.7890625"><text xml:space="preserve" dominant-baseline="text-before-edge" font-size="14" font-family="DejaVu Sans Mono">2</text></svg></svg><svg overflow="visible" class="axis axis-y" x="-36.84375"><svg overflow="visible" data-type="text" class="tick-label tick-label-y" y="192" x="0"><text xml:space="preserve" dominant-baseline="text-before-edge" font-size="14" font-family="DejaVu Sans Mono">-2</text></svg><svg overflow="visible" data-type="text" class="tick-label tick-label-y" y="142" x="0"><text xml:space="preserve" dominant-baseline="text-before-edge" font-size="14" font-family="DejaVu Sans Mono">-1</text></svg><svg overflow="visible" data-type="text" class="tick-label tick-label-y" y="92" x="4.2109375"><text xml:space="preserve" dominant-baseline="text-before-edge" font-size="14" font-family="DejaVu Sans Mono">0</text></svg><svg overflow="visible" data-type="text" class="tick-label tick-label-y" y="42" x="4.2109375"><text xml:space="preserve" dominant-baseline="text-before-edge" font-size="14" font-family="DejaVu Sans Mono">1</text></svg><svg overflow="visible" data-type="text" class="tick-label tick-label-y" y="-8" x="4.2109375"><text xml:space="preserve" dominant-baseline="text-before-edge" font-size="14" font-family="DejaVu Sans Mono">2</text></svg></svg><svg overflow="visible" data-type="path"><path id="path-uuid-11" fill="transparent" stroke-width="2" d="M74.00000000000048,200L75.00000000000047,199.99999999999937L76.00000000000047,198.66666666666603L77.00000000000048,197.33333333333272L78.00000000000047,195.99999999999937L79.00000000000045,194.66666666666603L80.00000000000047,193.33333333333272L81.00000000000047,191.99999999999937L82.00000000000045,190.66666666666606L83.00000000000045,189.33333333333272L84.00000000000045,187.99999999999937L85.00000000000047,186.66666666666606L86.00000000000045,185.33333333333272L87.00000000000044,183.9999999999994L88.00000000000045,182.66666666666606L89.00000000000045,181.33333333333275L90.00000000000044,179.9999999999994L91.00000000000044,178.66666666666606L92.00000000000044,177.33333333333275L93.00000000000045,175.9999999999994L94.00000000000044,174.6666666666661L95.00000000000043,173.33333333333275L96.00000000000044,171.99999999999943L97.00000000000044,170.6666666666661L98.00000000000043,169.33333333333275L99.00000000000043,167.99999999999943L100.00000000000043,166.6666666666661L101.00000000000044,165.33333333333277L102.00000000000043,163.99999999999943L103.00000000000041,162.66666666666612L104.00000000000043,161.33333333333277L105.00000000000043,159.99999999999943L106.00000000000041,158.66666666666612L107.00000000000041,157.33333333333277L108.00000000000041,155.99999999999946L109.00000000000041,154.66666666666612L110.00000000000041,153.3333333333328L111.0000000000004,151.99999999999946L112.0000000000004,150.66666666666612L113.00000000000041,149.3333333333328L114.0000000000004,147.99999999999946L115.0000000000004,146.66666666666612L116.0000000000004,145.3333333333328L117.0000000000004,143.9999999999995L118.0000000000004,142.66666666666615L119.00000000000038,141.3333333333328L120.00000000000038,139.9999999999995L121.0000000000004,138.66666666666615L122.00000000000038,137.3333333333328L123.00000000000037,135.9999999999995L124.00000000000038,134.66666666666617L125.00000000000038,133.33333333333283L126.00000000000038,131.9999999999995L127.00000000000037,130.66666666666617L128.00000000000037,129.33333333333283L129.00000000000037,127.9999999999995L130.00000000000037,126.66666666666617L131.00000000000037,125.33333333333285L132.00000000000037,123.99999999999952L133.00000000000037,122.66666666666617L134.00000000000037,121.33333333333283L135.00000000000037,119.9999999999995L136.00000000000037,118.66666666666617L137.00000000000037,117.33333333333285L138.00000000000037,115.9999999999995L139.00000000000037,114.66666666666617L140.00000000000037,113.33333333333285L141.00000000000037,111.9999999999995L142.00000000000037,110.66666666666617L143.00000000000037,109.33333333333283L144.00000000000037,107.9999999999995L145.00000000000037,106.66666666666617L146.00000000000037,105.33333333333283L147.00000000000037,103.9999999999995L148.00000000000037,102.66666666666617L149.00000000000037,101.33333333333285L150.00000000000037,99.99999999999952L151.00000000000037,98.66666666666617L152.00000000000037,97.33333333333283L153.00000000000037,95.9999999999995L154.00000000000037,94.66666666666616L155.00000000000037,93.33333333333285L156.00000000000037,91.9999999999995L157.00000000000037,90.66666666666616L158.0000000000004,89.33333333333285L159.00000000000037,87.9999999999995L160.00000000000037,86.66666666666617L161.0000000000004,85.33333333333285L162.00000000000037,83.9999999999995L163.00000000000037,82.66666666666617L164.0000000000004,81.33333333333283L165.00000000000037,79.99999999999949L166.00000000000037,78.66666666666617L167.00000000000037,77.33333333333283L168.00000000000037,75.99999999999949L169.00000000000037,74.66666666666617L170.00000000000037,73.33333333333285L171.00000000000034,71.99999999999952L172.00000000000037,70.66666666666617L173.00000000000037,69.33333333333286L174.00000000000034,67.99999999999952L175.00000000000037,66.66666666666617L176.00000000000037,65.33333333333283L177.00000000000037,63.99999999999952L178.00000000000034,62.6666666666662L179.00000000000034,61.33333333333286L180.00000000000037,59.99999999999952L181.00000000000034,58.6666666666662L182.00000000000034,57.33333333333289L183.00000000000037,55.999999999999545L184.00000000000034,54.6666666666662L185.00000000000034,53.33333333333289L186.00000000000034,51.999999999999545L187.0000000000003,50.6666666666662L188.00000000000034,49.33333333333286L189.00000000000034,47.999999999999545L190.0000000000003,46.66666666666623L191.00000000000034,45.33333333333289L192.00000000000034,43.999999999999545L193.00000000000034,42.66666666666623L194.0000000000003,41.33333333333292L195.0000000000003,39.999999999999574L196.00000000000034,38.66666666666623L197.0000000000003,37.33333333333292L198.0000000000003,35.9999999999996L199.00000000000034,34.66666666666626L200.0000000000003,33.33333333333292L201.0000000000003,31.999999999999574L202.0000000000003,30.66666666666626L203.00000000000028,29.333333333332916L204.0000000000003,27.999999999999574L205.0000000000003,26.66666666666626L206.00000000000028,25.333333333332945L207.0000000000003,23.999999999999602L208.0000000000003,22.66666666666626L209.00000000000028,21.333333333332945L210.00000000000028,19.99999999999963L211.00000000000028,18.666666666666288L212.0000000000003,17.333333333332945L213.00000000000028,15.999999999999602L214.00000000000028,14.666666666666288L215.0000000000003,13.333333333332945L216.00000000000028,11.999999999999602L217.00000000000028,10.666666666666288L218.00000000000028,9.333333333332973L219.00000000000026,7.9999999999996305L220.00000000000028,6.666666666666288L221.00000000000028,5.333333333332973L222.00000000000026,3.999999999999659L223.00000000000028,2.666666666666316L224.00000000000028,1.3333333333329733L225.00000000000026,0" stroke="#1f77b4"></path><svg overflow="visible" data-type="text"><text xml:space="preserve" dominant-baseline="central" font-size="14" font-family="DejaVu Sans Mono" text-anchor="middle"><textPath href="#path-uuid-11" startOffset="50%"></textPath></text></svg></svg><svg overflow="visible" data-type="path"><path id="path-uuid-12" fill="transparent" stroke-width="2" d="M0,200L1.0000000000000064,199.33333333333334L2.000000000000013,198.66666666666666L3.0000000000000195,198L4.000000000000026,197.33333333333331L5.000000000000032,196.66666666666666L6.000000000000039,195.99999999999997L7.000000000000045,195.33333333333331L8.000000000000052,194.66666666666663L9.000000000000059,193.99999999999997L10.000000000000064,193.3333333333333L11.000000000000071,192.66666666666663L12.000000000000078,191.99999999999994L13.000000000000083,191.3333333333333L14.00000000000009,190.6666666666666L15.000000000000096,189.99999999999994L16.000000000000103,189.33333333333326L17.00000000000011,188.6666666666666L18.000000000000117,187.99999999999991L19.00000000000012,187.33333333333326L20.000000000000128,186.66666666666657L21.000000000000135,185.99999999999991L22.000000000000142,185.33333333333323L23.00000000000015,184.66666666666657L24.000000000000156,183.9999999999999L25.00000000000016,183.33333333333323L26.000000000000167,182.66666666666654L27.000000000000174,181.9999999999999L28.00000000000018,181.3333333333332L29.00000000000019,180.66666666666654L30.000000000000192,179.9999999999999L31.0000000000002,179.3333333333332L32.000000000000206,178.66666666666652L33.00000000000021,177.99999999999986L34.00000000000022,177.3333333333332L35.00000000000023,176.66666666666652L36.000000000000234,175.99999999999983L37.00000000000024,175.33333333333317L38.00000000000024,174.66666666666652L39.00000000000025,173.99999999999983L40.000000000000256,173.33333333333317L41.00000000000026,172.6666666666665L42.00000000000027,171.99999999999983L43.00000000000028,171.33333333333314L44.000000000000284,170.6666666666665L45.00000000000029,169.9999999999998L46.0000000000003,169.33333333333314L47.000000000000306,168.66666666666646L48.00000000000031,167.9999999999998L49.00000000000031,167.33333333333312L50.00000000000032,166.66666666666646L51.00000000000033,165.99999999999977L52.000000000000334,165.33333333333312L53.00000000000034,164.66666666666643L54.00000000000035,163.99999999999977L55.000000000000355,163.3333333333331L56.00000000000036,162.66666666666643L57.00000000000037,161.99999999999977L58.00000000000038,161.3333333333331L59.00000000000038,160.6666666666664L60.000000000000384,159.99999999999974L61.00000000000039,159.3333333333331L62.0000000000004,158.6666666666664L63.000000000000405,157.99999999999972L64.00000000000041,157.33333333333306L65.00000000000041,156.6666666666664L66.00000000000043,155.99999999999972L67.00000000000043,155.33333333333303L68.00000000000044,154.66666666666637L69.00000000000044,153.99999999999972L70.00000000000045,153.33333333333303L71.00000000000045,152.66666666666634L72.00000000000047,151.9999999999997L73.00000000000047,151.33333333333303L74.00000000000048,150.66666666666634L75.00000000000047,149.9999999999997L76.00000000000047,149.33333333333303L77.00000000000048,148.66666666666634L78.00000000000047,147.9999999999997L79.00000000000045,147.33333333333303L80.00000000000047,146.66666666666634L81.00000000000047,145.9999999999997L82.00000000000045,145.33333333333303L83.00000000000045,144.66666666666637L84.00000000000045,143.9999999999997L85.00000000000047,143.33333333333303L86.00000000000045,142.66666666666637L87.00000000000044,141.99999999999972L88.00000000000045,141.33333333333303L89.00000000000045,140.66666666666634L90.00000000000044,139.99999999999972L91.00000000000044,139.33333333333303L92.00000000000044,138.66666666666637L93.00000000000045,137.99999999999972L94.00000000000044,137.33333333333303L95.00000000000043,136.66666666666637L96.00000000000044,135.99999999999972L97.00000000000044,135.33333333333303L98.00000000000043,134.66666666666637L99.00000000000043,133.99999999999972L100.00000000000043,133.33333333333303L101.00000000000044,132.66666666666637L102.00000000000043,131.99999999999972L103.00000000000041,131.33333333333306L104.00000000000043,130.6666666666664L105.00000000000043,129.99999999999972L106.00000000000041,129.33333333333306L107.00000000000041,128.6666666666664L108.00000000000041,127.99999999999973L109.00000000000041,127.33333333333306L110.00000000000041,126.6666666666664L111.0000000000004,125.99999999999973L112.0000000000004,125.33333333333306L113.00000000000041,124.66666666666639L114.0000000000004,123.99999999999973L115.0000000000004,123.33333333333307L116.0000000000004,122.6666666666664L117.0000000000004,121.99999999999973L118.0000000000004,121.33333333333307L119.00000000000038,120.66666666666642L120.00000000000038,119.99999999999974L121.0000000000004,119.33333333333307L122.00000000000038,118.66666666666642L123.00000000000037,117.99999999999974L124.00000000000038,117.33333333333307L125.00000000000038,116.6666666666664L126.00000000000038,115.99999999999974L127.00000000000037,115.33333333333309L128.00000000000037,114.66666666666642L129.00000000000037,113.99999999999974L130.00000000000037,113.33333333333309L131.00000000000037,112.66666666666643L132.00000000000037,111.99999999999976L133.00000000000037,111.33333333333309L134.00000000000037,110.66666666666643L135.00000000000037,109.99999999999976L136.00000000000037,109.33333333333309L137.00000000000037,108.66666666666643L138.00000000000037,107.99999999999976L139.00000000000037,107.33333333333309L140.00000000000037,106.66666666666642L141.00000000000037,105.99999999999974L142.00000000000037,105.33333333333309L143.00000000000037,104.66666666666642L144.00000000000037,103.99999999999974L145.00000000000037,103.33333333333309L146.00000000000037,102.66666666666642L147.00000000000037,101.99999999999976L148.00000000000037,101.33333333333309L149.00000000000037,100.66666666666642L150.00000000000037,99.99999999999976L151.00000000000037,99.3333333333331L152.00000000000037,98.66666666666642L153.00000000000037,97.99999999999976L154.00000000000037,97.33333333333309L155.00000000000037,96.66666666666642L156.00000000000037,95.99999999999976L157.00000000000037,95.33333333333309L158.0000000000004,94.66666666666642L159.00000000000037,93.99999999999974L160.00000000000037,93.33333333333309L161.0000000000004,92.6666666666664L162.00000000000037,91.99999999999974L163.00000000000037,91.33333333333309L164.0000000000004,90.6666666666664L165.00000000000037,89.99999999999974L166.00000000000037,89.33333333333309L167.00000000000037,88.66666666666643L168.00000000000037,87.99999999999974L169.00000000000037,87.33333333333309L170.00000000000037,86.66666666666643L171.00000000000034,85.99999999999977L172.00000000000037,85.33333333333309L173.00000000000037,84.66666666666643L174.00000000000034,83.99999999999976L175.00000000000037,83.33333333333309L176.00000000000037,82.66666666666642L177.00000000000037,81.99999999999976L178.00000000000034,81.3333333333331L179.00000000000034,80.66666666666644L180.00000000000037,79.99999999999976L181.00000000000034,79.3333333333331L182.00000000000034,78.66666666666644L183.00000000000037,77.99999999999976L184.00000000000034,77.3333333333331L185.00000000000034,76.66666666666644L186.00000000000034,75.99999999999977L187.0000000000003,75.33333333333312L188.00000000000034,74.66666666666643L189.00000000000034,73.99999999999977L190.0000000000003,73.33333333333312L191.00000000000034,72.66666666666643L192.00000000000034,71.99999999999977L193.00000000000034,71.33333333333312L194.0000000000003,70.66666666666646L195.0000000000003,69.9999999999998L196.00000000000034,69.33333333333312L197.0000000000003,68.66666666666646L198.0000000000003,67.9999999999998L199.00000000000034,67.33333333333312L200.0000000000003,66.66666666666646L201.0000000000003,65.9999999999998L202.0000000000003,65.33333333333314L203.00000000000028,64.66666666666646L204.0000000000003,63.9999999999998L205.0000000000003,63.333333333333144L206.00000000000028,62.66666666666646L207.0000000000003,61.9999999999998L208.0000000000003,61.333333333333115L209.00000000000028,60.66666666666646L210.00000000000028,59.9999999999998L211.00000000000028,59.333333333333144L212.0000000000003,58.66666666666646L213.00000000000028,57.9999999999998L214.00000000000028,57.333333333333144L215.0000000000003,56.66666666666646L216.00000000000028,55.9999999999998L217.00000000000028,55.333333333333144L218.00000000000028,54.66666666666649L219.00000000000026,53.99999999999983L220.00000000000028,53.333333333333144L221.00000000000028,52.66666666666649L222.00000000000026,51.99999999999983L223.00000000000028,51.333333333333144L224.00000000000028,50.66666666666649L225.00000000000026,49.99999999999983L226.00000000000028,49.333333333333144L227.00000000000028,48.66666666666649L228.00000000000026,47.99999999999983L229.00000000000028,47.333333333333144L230.0000000000003,46.66666666666646L231.0000000000003,45.9999999999998L232.00000000000028,45.333333333333144L233.0000000000003,44.66666666666646L234.00000000000034,43.99999999999977L235.00000000000034,43.333333333333115L236.0000000000003,42.66666666666646L237.00000000000034,41.99999999999977L238.00000000000037,41.33333333333309L239.00000000000037,40.66666666666643L240.00000000000034,39.99999999999977L241.00000000000037,39.33333333333309L242.0000000000004,38.6666666666664L243.00000000000037,37.999999999999744L244.00000000000037,37.33333333333309L245.0000000000004,36.6666666666664L246.00000000000043,35.999999999999716L247.0000000000004,35.33333333333306L248.0000000000004,34.6666666666664L249.00000000000043,33.999999999999716L250.00000000000045,33.33333333333303L251.00000000000043,32.66666666666637L252.00000000000043,31.999999999999716L253.00000000000045,31.33333333333303L254.00000000000048,30.666666666666345L255.00000000000045,29.999999999999687L256.00000000000045,29.33333333333303L257.00000000000045,28.666666666666345L258.0000000000005,27.99999999999966L259.0000000000005,27.333333333333L260.00000000000045,26.666666666666345L261.0000000000005,25.99999999999966L262.0000000000005,25.333333333332973L263.0000000000005,24.666666666666316L264.0000000000005,23.99999999999966L265.0000000000005,23.333333333332973L266.00000000000057,22.666666666666288L267.0000000000005,21.99999999999963L268.0000000000005,21.333333333332973L269.00000000000057,20.666666666666288L270.00000000000057,19.99999999999963L271.00000000000057,19.333333333332945L272.00000000000057,18.666666666666288L273.00000000000057,17.999999999999602L274.0000000000006,17.333333333332945L275.00000000000057,16.666666666666288L276.00000000000057,15.999999999999602L277.0000000000006,15.333333333332945L278.0000000000006,14.66666666666626L279.0000000000006,13.999999999999602L280.0000000000006,13.333333333332916L281.0000000000006,12.66666666666626L282.0000000000006,11.999999999999574L283.0000000000006,11.333333333332916L284.0000000000006,10.66666666666626L285.0000000000006,9.999999999999574L286.0000000000007,9.333333333332888L287.0000000000007,8.66666666666623L288.0000000000007,7.999999999999574L289.0000000000007,7.333333333332888L290.0000000000007,6.6666666666662024L291.0000000000007,5.999999999999545L292.0000000000007,5.333333333332888L293.0000000000007,4.6666666666662024L294.00000000000074,3.999999999999517L295.00000000000074,3.3333333333328596L296.0000000000007,2.6666666666662024L297.00000000000074,1.9999999999995168L298.00000000000074,1.3333333333328312L299.00000000000074,0.666666666666174L300,0" stroke="#2ca02c"></path><svg overflow="visible" data-type="text"><text xml:space="preserve" dominant-baseline="central" font-size="14" font-family="DejaVu Sans Mono" text-anchor="middle"><textPath href="#path-uuid-12" startOffset="50%"></textPath></text></svg></svg><svg overflow="visible" data-type="path"><path id="path-uuid-13" fill="transparent" stroke-width="2" d="M0,0L1.0000000000000064,0.6666666666666856L2.000000000000013,1.3333333333333428L3.0000000000000195,2L4.000000000000026,2.6666666666666856L5.000000000000032,3.3333333333333712L6.000000000000039,4.000000000000028L7.000000000000045,4.666666666666686L8.000000000000052,5.333333333333371L9.000000000000059,6.000000000000057L10.000000000000064,6.666666666666714L11.000000000000071,7.333333333333371L12.000000000000078,8.000000000000057L13.000000000000083,8.666666666666742L14.00000000000009,9.3333333333334L15.000000000000096,10.000000000000057L16.000000000000103,10.666666666666742L17.00000000000011,11.333333333333428L18.000000000000117,12.000000000000085L19.00000000000012,12.666666666666742L20.000000000000128,13.333333333333428L21.000000000000135,14.000000000000114L22.000000000000142,14.66666666666677L23.00000000000015,15.333333333333428L24.000000000000156,16.000000000000114L25.00000000000016,16.6666666666668L26.000000000000167,17.333333333333456L27.000000000000174,18.000000000000114L28.00000000000018,18.6666666666668L29.00000000000019,19.333333333333456L30.000000000000192,20.000000000000142L31.0000000000002,20.6666666666668L32.000000000000206,21.333333333333485L33.00000000000021,22.000000000000142L34.00000000000022,22.6666666666668L35.00000000000023,23.333333333333485L36.000000000000234,24.000000000000142L37.00000000000024,24.666666666666828L38.00000000000024,25.333333333333485L39.00000000000025,26.00000000000017L40.000000000000256,26.666666666666828L41.00000000000026,27.333333333333513L42.00000000000027,28.00000000000017L43.00000000000028,28.666666666666828L44.000000000000284,29.333333333333513L45.00000000000029,30.0000000000002L46.0000000000003,30.666666666666856L47.000000000000306,31.333333333333513L48.00000000000031,32.0000000000002L49.00000000000031,32.666666666666885L50.00000000000032,33.33333333333354L51.00000000000033,34.0000000000002L52.000000000000334,34.666666666666885L53.00000000000034,35.33333333333357L54.00000000000035,36.00000000000023L55.000000000000355,36.666666666666885L56.00000000000036,37.33333333333357L57.00000000000037,38.000000000000256L58.00000000000038,38.66666666666691L59.00000000000038,39.33333333333357L60.000000000000384,40.000000000000256L61.00000000000039,40.66666666666694L62.0000000000004,41.3333333333336L63.000000000000405,42.000000000000256L64.00000000000041,42.66666666666694L65.00000000000041,43.33333333333363L66.00000000000043,44.000000000000284L67.00000000000043,44.66666666666694L68.00000000000044,45.33333333333363L69.00000000000044,46.00000000000031L70.00000000000045,46.66666666666697L71.00000000000045,47.33333333333363L72.00000000000047,48.00000000000031L73.00000000000047,48.666666666667L74.00000000000048,49.333333333333655L75.00000000000047,50.00000000000031L76.00000000000047,50.666666666667L77.00000000000048,51.333333333333655L78.00000000000047,52.00000000000031L79.00000000000045,52.66666666666697L80.00000000000047,53.33333333333363L81.00000000000047,54.00000000000031L82.00000000000045,54.66666666666697L83.00000000000045,55.33333333333363L84.00000000000045,56.00000000000031L85.00000000000047,56.66666666666697L86.00000000000045,57.33333333333363L87.00000000000044,58.000000000000284L88.00000000000045,58.66666666666697L89.00000000000045,59.33333333333363L90.00000000000044,60.000000000000284L91.00000000000044,60.66666666666697L92.00000000000044,61.33333333333363L93.00000000000045,62.00000000000031L94.00000000000044,62.66666666666697L95.00000000000043,63.33333333333363L96.00000000000044,64.00000000000028L97.00000000000044,64.66666666666697L98.00000000000043,65.33333333333363L99.00000000000043,66.00000000000028L100.00000000000043,66.66666666666697L101.00000000000044,67.33333333333363L102.00000000000043,68.00000000000028L103.00000000000041,68.66666666666694L104.00000000000043,69.3333333333336L105.00000000000043,70.00000000000028L106.00000000000041,70.66666666666694L107.00000000000041,71.3333333333336L108.00000000000041,72.00000000000028L109.00000000000041,72.66666666666694L110.00000000000041,73.3333333333336L111.0000000000004,74.00000000000027L112.0000000000004,74.66666666666693L113.00000000000041,75.33333333333361L114.0000000000004,76.00000000000027L115.0000000000004,76.66666666666693L116.0000000000004,77.33333333333361L117.0000000000004,78.00000000000027L118.0000000000004,78.66666666666693L119.00000000000038,79.33333333333358L120.00000000000038,80.00000000000026L121.0000000000004,80.66666666666693L122.00000000000038,81.33333333333358L123.00000000000037,82.00000000000026L124.00000000000038,82.66666666666693L125.00000000000038,83.3333333333336L126.00000000000038,84.00000000000026L127.00000000000037,84.66666666666691L128.00000000000037,85.33333333333357L129.00000000000037,86.00000000000026L130.00000000000037,86.66666666666691L131.00000000000037,87.33333333333357L132.00000000000037,88.00000000000026L133.00000000000037,88.66666666666691L134.00000000000037,89.33333333333357L135.00000000000037,90.00000000000026L136.00000000000037,90.66666666666691L137.00000000000037,91.33333333333357L138.00000000000037,92.00000000000024L139.00000000000037,92.66666666666691L140.00000000000037,93.33333333333358L141.00000000000037,94.00000000000024L142.00000000000037,94.66666666666693L143.00000000000037,95.33333333333358L144.00000000000037,96.00000000000024L145.00000000000037,96.66666666666693L146.00000000000037,97.33333333333358L147.00000000000037,98.00000000000024L148.00000000000037,98.66666666666693L149.00000000000037,99.33333333333358L150.00000000000037,100.00000000000024L151.00000000000037,100.66666666666691L152.00000000000037,101.33333333333358L153.00000000000037,102.00000000000024L154.00000000000037,102.66666666666691L155.00000000000037,103.33333333333357L156.00000000000037,104.00000000000024L157.00000000000037,104.66666666666691L158.0000000000004,105.33333333333358L159.00000000000037,106.00000000000026L160.00000000000037,106.66666666666691L161.0000000000004,107.33333333333358L162.00000000000037,108.00000000000026L163.00000000000037,108.66666666666691L164.0000000000004,109.33333333333358L165.00000000000037,110.00000000000026L166.00000000000037,110.66666666666691L167.00000000000037,111.33333333333358L168.00000000000037,112.00000000000026L169.00000000000037,112.66666666666691L170.00000000000037,113.33333333333357L171.00000000000034,114.00000000000024L172.00000000000037,114.66666666666691L173.00000000000037,115.33333333333357L174.00000000000034,116.00000000000024L175.00000000000037,116.66666666666691L176.00000000000037,117.33333333333358L177.00000000000037,118.00000000000024L178.00000000000034,118.6666666666669L179.00000000000034,119.33333333333357L180.00000000000037,120.00000000000024L181.00000000000034,120.6666666666669L182.00000000000034,121.33333333333356L183.00000000000037,122.00000000000023L184.00000000000034,122.6666666666669L185.00000000000034,123.33333333333356L186.00000000000034,124.00000000000023L187.0000000000003,124.6666666666669L188.00000000000034,125.33333333333357L189.00000000000034,126.00000000000023L190.0000000000003,126.66666666666688L191.00000000000034,127.33333333333356L192.00000000000034,128.00000000000023L193.00000000000034,128.66666666666688L194.0000000000003,129.33333333333354L195.0000000000003,130.00000000000023L196.00000000000034,130.66666666666688L197.0000000000003,131.33333333333354L198.0000000000003,132.0000000000002L199.00000000000034,132.66666666666686L200.0000000000003,133.33333333333354L201.0000000000003,134.00000000000023L202.0000000000003,134.66666666666686L203.00000000000028,135.33333333333354L204.0000000000003,136.00000000000023L205.0000000000003,136.66666666666686L206.00000000000028,137.33333333333354L207.0000000000003,138.0000000000002L208.0000000000003,138.66666666666686L209.00000000000028,139.33333333333354L210.00000000000028,140.0000000000002L211.00000000000028,140.66666666666686L212.0000000000003,141.33333333333354L213.00000000000028,142.0000000000002L214.00000000000028,142.66666666666686L215.0000000000003,143.3333333333335L216.00000000000028,144.0000000000002L217.00000000000028,144.66666666666686L218.00000000000028,145.3333333333335L219.00000000000026,146.00000000000017L220.00000000000028,146.66666666666686L221.00000000000028,147.3333333333335L222.00000000000026,148.00000000000017L223.00000000000028,148.66666666666686L224.00000000000028,149.3333333333335L225.00000000000026,150.00000000000017L226.00000000000028,150.66666666666686L227.00000000000028,151.3333333333335L228.00000000000026,152.0000000000002L229.00000000000028,152.66666666666686L230.0000000000003,153.33333333333354L231.0000000000003,154.0000000000002L232.00000000000028,154.66666666666688L233.0000000000003,155.33333333333354L234.00000000000034,156.00000000000023L235.00000000000034,156.66666666666688L236.0000000000003,157.33333333333354L237.00000000000034,158.00000000000023L238.00000000000037,158.6666666666669L239.00000000000037,159.33333333333357L240.00000000000034,160.00000000000023L241.00000000000037,160.6666666666669L242.0000000000004,161.3333333333336L243.00000000000037,162.00000000000026L244.00000000000037,162.6666666666669L245.0000000000004,163.3333333333336L246.00000000000043,164.00000000000028L247.0000000000004,164.66666666666694L248.0000000000004,165.3333333333336L249.00000000000043,166.00000000000028L250.00000000000045,166.66666666666694L251.00000000000043,167.33333333333363L252.00000000000043,168.00000000000028L253.00000000000045,168.66666666666697L254.00000000000048,169.33333333333363L255.00000000000045,170.0000000000003L256.00000000000045,170.66666666666697L257.00000000000045,171.33333333333366L258.0000000000005,172.0000000000003L259.0000000000005,172.666666666667L260.00000000000045,173.33333333333366L261.0000000000005,174.00000000000034L262.0000000000005,174.666666666667L263.0000000000005,175.33333333333368L264.0000000000005,176.00000000000034L265.0000000000005,176.66666666666703L266.00000000000057,177.33333333333368L267.0000000000005,178.00000000000037L268.0000000000005,178.66666666666703L269.00000000000057,179.3333333333337L270.00000000000057,180.00000000000037L271.00000000000057,180.66666666666703L272.00000000000057,181.3333333333337L273.00000000000057,182.0000000000004L274.0000000000006,182.66666666666706L275.00000000000057,183.3333333333337L276.00000000000057,184.0000000000004L277.0000000000006,184.66666666666706L278.0000000000006,185.33333333333374L279.0000000000006,186.0000000000004L280.0000000000006,186.66666666666708L281.0000000000006,187.33333333333374L282.0000000000006,188.00000000000043L283.0000000000006,188.66666666666708L284.0000000000006,189.33333333333377L285.0000000000006,190.00000000000043L286.0000000000007,190.6666666666671L287.0000000000007,191.33333333333377L288.0000000000007,192.00000000000045L289.0000000000007,192.6666666666671L290.0000000000007,193.3333333333338L291.0000000000007,194.00000000000045L292.0000000000007,194.66666666666714L293.0000000000007,195.3333333333338L294.00000000000074,196.00000000000048L295.00000000000074,196.66666666666714L296.0000000000007,197.33333333333383L297.00000000000074,198.00000000000048L298.00000000000074,198.66666666666717L299.00000000000074,199.33333333333383L300,200" stroke="#d62728"></path><svg overflow="visible" data-type="text"><text xml:space="preserve" dominant-baseline="central" font-size="14" font-family="DejaVu Sans Mono" text-anchor="middle"><textPath href="#path-uuid-13" startOffset="50%"></textPath></text></svg></svg></svg></svg>