<svg xmlns="http://www.w3.org/2000/svg" width="528.265625" height="300" viewBox="-82.84375 -18 528.265625 300"><svg overflow="visible"><svg overflow="visible" class="grid"><svg overflow="visible" data-type="path" class="tick tick-x"><path id="path-uuid-1" fill="transparent" stroke-width="2" d="M 0 200 0 0" stroke="#eee"></path><svg overflow="visible" data-type="text"><text xml:space="preserve" dominant-baseline="central" font-size="14" font-family="DejaVu Sans Mono" text-anchor="middle"><textPath href="#path-uuid-1" startOffset="50%"></textPath></text></svg></svg><svg overflow="visible" data-type="path" class="tick tick-x"><path id="path-uuid-3" fill="transparent" stroke-width="2" d="M 200 200 200 0" stroke="#eee"></path><svg overflow="visible" data-type="text"><text xml:space="preserve" dominant-baseline="central" font-size="14" font-family="DejaVu Sans Mono" text-anchor="middle"><textPath href="#path-uuid-3" startOffset="50%"></textPath></text></svg></svg><svg overflow="visible" data-type="path" class="tick tick-x"><path id="path-uuid-4" fill="transparent" stroke-width="2" d="M 300 200 300 0" stroke="#eee"></path><svg overflow="visible" data-type="text"><text xml:space="preserve" dominant-baseline="central" font-size="14" font-family="DejaVu Sans Mono" text-anchor="middle"><textPath href="#path-uuid-4" startOffset="50%"></textPath></text></svg></svg><svg overflow="visible" data-type="path" class="tick tick-y"><path id="path-uuid-5" fill="transparent" stroke-width="2" d="M 0 200 300 200" stroke="#eee"></path><svg overflow="visible" data-type="text"><text xml:space="preserve" dominant-baseline="central" font-size="14" font-family="DejaVu Sans Mono" text-anchor="middle"><textPath href="#path-uuid-5" startOffset="50%"></textPath></text></svg></svg><svg overflow="visible" data-type="path" class="tick tick-y"><path id="path-uuid-7" fill="transparent" stroke-width="2" d="M 0 66.66666666666669 300 66.66666666666669" stroke="#eee"></path><svg overflow="visible" data-type="text"><text xml:space="preserve" dominant-baseline="central" font-size="14" font-family="DejaVu Sans Mono" text-anchor="middle"><textPath href="#path-uuid-7" startOffset="50%"></textPath></text></svg></svg><svg overflow="visible" data-type="path" class="tick tick-y"><path id="path-uuid-8" fill="transparent" stroke-width="2" d="M 0 0 300 0" stroke="#eee"></path><svg overflow="visible" data-type="text"><text xml:space="preserve" dominant-baseline="central" font-size="14" font-family="DejaVu Sans Mono" text-anchor="middle"><textPath href="#path-uuid-8" startOffset="50%"></textPath></text></svg></svg><svg overflow="visible" data-type="path" class="tick tick-x"><path id="path-uuid-2" fill="transparent" stroke-width="2" d="M 100 200 100 0" stroke="#111111"></path><svg overflow="visible" data-type="text"><text xml:space="preserve" dominant-baseline="central" font-size="14" font-family="DejaVu Sans Mono" text-anchor="middle"><textPath href="#path-uuid-2" startOffset="50%"></textPath></text></svg></svg><svg overflow="visible" data-type="path" class="tick tick-y"><path id="path-uuid-6" fill="transparent" stroke-width="2" d="M 0 133.33333333333334 300 133.33333333333334" stroke="#111111"></path><svg overflow="visible" data-type="text"><text xml:space="preserve" dominant-baseline="central" font-size="14" font-family="DejaVu Sans Mono" text-anchor="middle"><textPath href="#path-uuid-6" startOffset="50%"></textPath></text></svg></svg></svg><svg overflow="visible" class="axis axis-x" y="220"><svg overflow="visible" data-type="text" class="tick-label tick-label-x" x="-8.421875"><text xml:space="preserve" dominant-baseline="text-before-edge" font-size="14" font-family="DejaVu Sans Mono">-1</text></svg><svg overflow="visible" data-type="text" class="tick-label tick-label-x" x="95.7890625"><text xml:space="preserve" dominant-baseline="text-before-edge" font-size="14" font-family="DejaVu Sans Mono">0</text></svg><svg overflow="visible" data-type="text" class="tick-label tick-label-x" x="195.7890625"><text xml:space="preserve" dominant-baseline="text-before-edge" font-size="14" font-family="DejaVu Sans Mono">1</text></svg><svg overflow="visible" data-type="text" class="tick-label tick-label-x" x="295.7890625"><text xml:space="preserve" dominant-baseline="text-before-edge" font-size="14" font-family="DejaVu Sans Mono">2</text></svg></svg><svg overflow="visible" class="axis axis-y" x="-36.84375"><svg overflow="visible" data-type="text" class="tick-label tick-label-y" y="192" x="0"><text xml:space="preserve" dominant-baseline="text-before-edge" font-size="14" font-family="DejaVu Sans Mono">-1</text></svg><svg overflow="visible" data-type="text" class="tick-label tick-label-y" y="125.33333333333334" x="4.2109375"><text xml:space="preserve" dominant-baseline="text-before-edge" font-size="14" font-family="DejaVu Sans Mono">0</text></svg><svg overflow="visible" data-type="text" class="tick-label tick-label-y" y="58.666666666666686" x="4.2109375"><text xml:space="preserve" dominant-baseline="text-before-edge" font-size="14" font-family="DejaVu Sans Mono">1</text></svg><svg overflow="visible" data-type="text" class="tick-label tick-label-y" y="-8" x="4.2109375"><text xml:space="preserve" dominant-baseline="text-before-edge" font-size="14" font-family="DejaVu Sans Mono">2</text></svg></svg><svg overflow="visible" data-type="frame" y="256" x="86.7890625"><g><svg overflow="visible" data-type="text"><text xml:space="preserve" dominant-baseline="text-before-edge" font-size="14" font-family="DejaVu Sans Mono">pixel value (x)</text></svg></g></svg><svg overflow="visible" data-type="frame" x="-72.84374999999999" y="142.140625"><g data-rotate="270" transform="rotate(270)"><svg overflow="visible" data-type="text"><text xml:space="preserve" dominant-baseline="text-before-edge" font-size="14" font-family="DejaVu Sans Mono">output (y)</text></svg></g></svg><svg overflow="visible" data-type="path"><path id="path-uuid-12" fill="transparent" stroke-width="2" d="M49.00000000000004,200L50.00000000000005,199.99999999999994L51.00000000000004,198.6666666666666L52.00000000000004,197.33333333333326L53.00000000000005,195.99999999999994L54.00000000000005,194.6666666666666L55.00000000000004,193.33333333333326L56.00000000000005,191.99999999999994L57.00000000000005,190.6666666666666L58.00000000000005,189.33333333333326L59.00000000000006,187.99999999999994L60.00000000000006,186.6666666666666L61.00000000000005,185.33333333333326L62.00000000000006,183.99999999999994L63.00000000000006,182.6666666666666L64.00000000000006,181.33333333333326L65.00000000000006,179.99999999999991L66.00000000000006,178.66666666666657L67.00000000000006,177.33333333333326L68.00000000000006,175.99999999999991L69.00000000000006,174.66666666666657L70.00000000000006,173.33333333333326L71.00000000000007,171.99999999999991L72.00000000000006,170.66666666666657L73.00000000000006,169.33333333333326L74.00000000000007,167.99999999999991L75.00000000000007,166.66666666666657L76.00000000000007,165.33333333333326L77.00000000000006,163.99999999999991L78.00000000000007,162.66666666666657L79.00000000000007,161.33333333333326L80.00000000000007,159.9999999999999L81.00000000000007,158.66666666666657L82.00000000000009,157.33333333333323L83.00000000000007,155.9999999999999L84.00000000000007,154.66666666666657L85.00000000000009,153.33333333333323L86.00000000000007,151.9999999999999L87.00000000000007,150.66666666666657L88.00000000000009,149.33333333333323L89.00000000000007,147.9999999999999L90.00000000000009,146.66666666666657L91.00000000000009,145.33333333333323L92.00000000000007,143.9999999999999L93.00000000000007,142.66666666666657L94.00000000000007,141.33333333333323L95.00000000000009,139.9999999999999L96.00000000000007,138.66666666666657L97.00000000000007,137.33333333333323L98.00000000000009,135.9999999999999L99.00000000000007,134.66666666666657L100.00000000000006,133.33333333333323L101.00000000000007,131.9999999999999L102.00000000000007,130.66666666666657L103.00000000000006,129.33333333333323L104.00000000000007,127.9999999999999L105.00000000000007,126.66666666666657L106.00000000000007,125.33333333333324L107.00000000000007,123.9999999999999L108.00000000000009,122.66666666666657L109.00000000000007,121.33333333333324L110.00000000000007,119.9999999999999L111.00000000000009,118.66666666666657L112.00000000000007,117.33333333333323L113.00000000000009,115.99999999999989L114.00000000000009,114.66666666666656L115.00000000000007,113.33333333333323L116.00000000000009,111.99999999999989L117.00000000000009,110.66666666666656L118.00000000000007,109.33333333333323L119.00000000000009,107.99999999999989L120.00000000000009,106.66666666666656L121.00000000000009,105.33333333333323L122.00000000000009,103.99999999999989L123.0000000000001,102.66666666666654L124.00000000000009,101.33333333333321L125.00000000000009,99.99999999999989L126.0000000000001,98.66666666666654L127.00000000000009,97.3333333333332L128.00000000000009,95.99999999999989L129.00000000000009,94.66666666666654L130.00000000000009,93.3333333333332L131.00000000000009,91.99999999999989L132.0000000000001,90.66666666666654L133.00000000000009,89.3333333333332L134.00000000000009,87.99999999999987L135.0000000000001,86.66666666666654L136.00000000000009,85.3333333333332L137.0000000000001,83.99999999999987L138.0000000000001,82.66666666666653L139.00000000000009,81.33333333333319L140.0000000000001,79.99999999999987L141.0000000000001,78.66666666666653L142.00000000000009,77.33333333333319L143.0000000000001,75.99999999999987L144.0000000000001,74.66666666666653L145.0000000000001,73.33333333333319L146.0000000000001,71.99999999999986L147.0000000000001,70.66666666666652L148.0000000000001,69.33333333333317L149.0000000000001,67.99999999999986L150.0000000000001,66.66666666666654L151.0000000000001,65.33333333333317L152.00000000000009,63.999999999999886L153.0000000000001,62.666666666666515L154.00000000000009,61.33333333333323L155.0000000000001,59.99999999999986L156.0000000000001,58.66666666666654L157.00000000000014,57.33333333333317L158.00000000000009,55.999999999999886L159.0000000000001,54.666666666666515L160.00000000000009,53.3333333333332L161.0000000000001,51.99999999999986L162.0000000000001,50.666666666666515L163.00000000000014,49.33333333333317L164.00000000000009,47.99999999999986L165.0000000000001,46.666666666666515L166.0000000000001,45.3333333333332L167.0000000000001,43.99999999999983L168.0000000000001,42.666666666666515L169.00000000000014,41.333333333333144L170.00000000000009,39.99999999999986L171.0000000000001,38.66666666666649L172.0000000000001,37.3333333333332L173.00000000000014,35.99999999999983L174.0000000000001,34.666666666666515L175.00000000000014,33.333333333333144L176.0000000000001,31.999999999999858L177.0000000000001,30.666666666666487L178.0000000000001,29.3333333333332L179.00000000000014,27.99999999999983L180.0000000000001,26.666666666666515L181.00000000000014,25.333333333333144L182.0000000000001,23.99999999999983L183.00000000000014,22.666666666666487L184.0000000000001,21.333333333333172L185.00000000000014,19.99999999999983L186.00000000000014,18.666666666666487L187.00000000000014,17.333333333333144L188.0000000000001,15.99999999999983L189.00000000000014,14.666666666666458L190.0000000000001,13.333333333333172L191.00000000000014,11.999999999999801L192.00000000000014,10.666666666666487L193.00000000000017,9.333333333333115L194.0000000000001,7.9999999999998295L195.00000000000014,6.666666666666458L196.00000000000014,5.333333333333172L197.00000000000014,3.999999999999801L198.00000000000014,2.6666666666664867L199.00000000000017,1.3333333333331154L200.0000000000001,0" stroke="#1f77b4"></path><svg overflow="visible" data-type="text"><text xml:space="preserve" dominant-baseline="central" font-size="14" font-family="DejaVu Sans Mono" text-anchor="middle"><textPath href="#path-uuid-12" startOffset="50%"></textPath></text></svg></svg><svg overflow="visible" data-type="path"><path id="path-uuid-13" fill="transparent" stroke-width="2" d="M0,146.66666666666666L1.0000000000000009,146.53333333333333L2.0000000000000018,146.4L3.0000000000000027,146.26666666666665L4.0000000000000036,146.13333333333333L5.000000000000004,146L6.000000000000005,145.86666666666667L7.000000000000006,145.73333333333332L8.000000000000007,145.6L9.000000000000007,145.46666666666667L10.000000000000009,145.33333333333331L11.00000000000001,145.2L12.00000000000001,145.06666666666666L13.00000000000001,144.93333333333334L14.000000000000012,144.8L15.000000000000014,144.66666666666666L16.000000000000014,144.53333333333333L17.000000000000014,144.39999999999998L18.000000000000014,144.26666666666665L19.000000000000018,144.13333333333333L20.000000000000018,144L21.000000000000018,143.86666666666667L22.00000000000002,143.73333333333332L23.000000000000018,143.6L24.00000000000002,143.46666666666667L25.000000000000025,143.33333333333331L26.00000000000002,143.2L27.000000000000025,143.06666666666666L28.000000000000025,142.93333333333334L29.000000000000025,142.8L30.00000000000003,142.66666666666666L31.00000000000003,142.53333333333333L32.00000000000003,142.39999999999998L33.00000000000003,142.26666666666665L34.00000000000003,142.13333333333333L35.00000000000003,142L36.00000000000003,141.86666666666667L37.000000000000036,141.73333333333332L38.000000000000036,141.6L39.000000000000036,141.46666666666667L40.000000000000036,141.33333333333331L41.00000000000004,141.2L42.000000000000036,141.06666666666666L43.000000000000036,140.93333333333334L44.00000000000004,140.79999999999998L45.00000000000004,140.66666666666666L46.000000000000036,140.53333333333333L47.00000000000004,140.39999999999998L48.00000000000004,140.26666666666665L49.00000000000004,140.13333333333333L50.00000000000005,140L51.00000000000004,139.86666666666667L52.00000000000004,139.73333333333332L53.00000000000005,139.6L54.00000000000005,139.46666666666667L55.00000000000004,139.33333333333331L56.00000000000005,139.2L57.00000000000005,139.06666666666666L58.00000000000005,138.93333333333334L59.00000000000006,138.79999999999998L60.00000000000006,138.66666666666666L61.00000000000005,138.5333333333333L62.00000000000006,138.39999999999998L63.00000000000006,138.26666666666665L64.00000000000006,138.13333333333333L65.00000000000006,138L66.00000000000006,137.86666666666667L67.00000000000006,137.73333333333332L68.00000000000006,137.6L69.00000000000006,137.46666666666667L70.00000000000006,137.33333333333331L71.00000000000007,137.2L72.00000000000006,137.06666666666666L73.00000000000006,136.9333333333333L74.00000000000007,136.79999999999998L75.00000000000007,136.66666666666666L76.00000000000007,136.5333333333333L77.00000000000006,136.39999999999998L78.00000000000007,136.26666666666665L79.00000000000007,136.13333333333333L80.00000000000007,136L81.00000000000007,135.86666666666667L82.00000000000009,135.73333333333332L83.00000000000007,135.6L84.00000000000007,135.46666666666664L85.00000000000009,135.33333333333331L86.00000000000007,135.2L87.00000000000007,135.06666666666666L88.00000000000009,134.93333333333334L89.00000000000007,134.79999999999998L90.00000000000009,134.66666666666666L91.00000000000009,134.5333333333333L92.00000000000007,134.39999999999998L93.00000000000007,134.26666666666665L94.00000000000007,134.13333333333333L95.00000000000009,134L96.00000000000007,133.86666666666667L97.00000000000007,133.73333333333332L98.00000000000009,133.6L99.00000000000007,133.46666666666664L100.00000000000006,133.33333333333331L101.00000000000007,133.2L102.00000000000007,133.06666666666666L103.00000000000006,132.9333333333333L104.00000000000007,132.79999999999998L105.00000000000007,132.66666666666666L106.00000000000007,132.5333333333333L107.00000000000007,132.39999999999998L108.00000000000009,132.26666666666665L109.00000000000007,132.13333333333333L110.00000000000007,132L111.00000000000009,131.86666666666667L112.00000000000007,131.73333333333332L113.00000000000009,131.59999999999997L114.00000000000009,131.46666666666664L115.00000000000007,131.33333333333331L116.00000000000009,131.2L117.00000000000009,131.06666666666666L118.00000000000007,130.9333333333333L119.00000000000009,130.79999999999998L120.00000000000009,130.66666666666666L121.00000000000009,130.5333333333333L122.00000000000009,130.39999999999998L123.0000000000001,130.26666666666665L124.00000000000009,130.13333333333333L125.00000000000009,130L126.0000000000001,129.86666666666665L127.00000000000009,129.7333333333333L128.00000000000009,129.59999999999997L129.00000000000009,129.46666666666664L130.00000000000009,129.33333333333331L131.00000000000009,129.2L132.0000000000001,129.06666666666666L133.00000000000009,128.9333333333333L134.00000000000009,128.79999999999998L135.0000000000001,128.66666666666666L136.00000000000009,128.5333333333333L137.0000000000001,128.39999999999998L138.0000000000001,128.26666666666665L139.00000000000009,128.13333333333333L140.0000000000001,127.99999999999999L141.0000000000001,127.86666666666665L142.00000000000009,127.7333333333333L143.0000000000001,127.59999999999998L144.0000000000001,127.46666666666665L145.0000000000001,127.33333333333331L146.0000000000001,127.19999999999997L147.0000000000001,127.06666666666665L148.0000000000001,126.93333333333331L149.0000000000001,126.79999999999998L150.0000000000001,126.66666666666666L151.0000000000001,126.5333333333333L152.00000000000009,126.39999999999999L153.0000000000001,126.26666666666665L154.00000000000009,126.13333333333333L155.0000000000001,125.99999999999997L156.0000000000001,125.86666666666666L157.00000000000014,125.7333333333333L158.00000000000009,125.6L159.0000000000001,125.46666666666665L160.00000000000009,125.33333333333333L161.0000000000001,125.19999999999997L162.0000000000001,125.06666666666666L163.00000000000014,124.93333333333331L164.00000000000009,124.79999999999998L165.0000000000001,124.66666666666664L166.0000000000001,124.53333333333333L167.0000000000001,124.39999999999998L168.0000000000001,124.26666666666665L169.00000000000014,124.13333333333331L170.00000000000009,123.99999999999999L171.0000000000001,123.86666666666665L172.0000000000001,123.73333333333333L173.00000000000014,123.59999999999998L174.0000000000001,123.46666666666665L175.00000000000014,123.3333333333333L176.0000000000001,123.19999999999999L177.0000000000001,123.06666666666665L178.0000000000001,122.93333333333332L179.00000000000014,122.79999999999998L180.0000000000001,122.66666666666666L181.00000000000014,122.5333333333333L182.0000000000001,122.39999999999999L183.00000000000014,122.26666666666665L184.0000000000001,122.13333333333333L185.00000000000014,121.99999999999997L186.00000000000014,121.86666666666666L187.00000000000014,121.7333333333333L188.0000000000001,121.59999999999998L189.00000000000014,121.46666666666664L190.0000000000001,121.33333333333333L191.00000000000014,121.19999999999997L192.00000000000014,121.06666666666666L193.00000000000017,120.93333333333331L194.0000000000001,120.79999999999998L195.00000000000014,120.66666666666664L196.00000000000014,120.53333333333333L197.00000000000014,120.39999999999998L198.00000000000014,120.26666666666665L199.00000000000017,120.1333333333333L200.0000000000001,119.99999999999999L201.00000000000014,119.86666666666665L202.00000000000014,119.73333333333332L203.0000000000001,119.59999999999997L204.00000000000014,119.46666666666665L205.00000000000017,119.3333333333333L206.0000000000001,119.19999999999999L207.0000000000001,119.06666666666665L208.00000000000014,118.93333333333332L209.00000000000017,118.79999999999997L210.00000000000014,118.66666666666666L211.0000000000001,118.5333333333333L212.00000000000014,118.39999999999998L213.00000000000014,118.26666666666664L214.00000000000014,118.13333333333333L215.00000000000014,117.99999999999997L216.00000000000017,117.86666666666665L217.00000000000017,117.7333333333333L218.00000000000014,117.59999999999998L219.0000000000001,117.46666666666664L220.00000000000014,117.33333333333333L221.00000000000017,117.19999999999997L222.00000000000017,117.06666666666665L223.0000000000001,116.9333333333333L224.00000000000014,116.79999999999998L225.00000000000017,116.66666666666664L226.00000000000017,116.53333333333332L227.00000000000014,116.39999999999998L228.00000000000017,116.26666666666665L229.0000000000002,116.1333333333333L230.00000000000014,115.99999999999999L231.00000000000014,115.86666666666665L232.00000000000017,115.73333333333332L233.00000000000017,115.59999999999997L234.00000000000017,115.46666666666665L235.00000000000014,115.3333333333333L236.00000000000014,115.19999999999997L237.00000000000017,115.06666666666663L238.00000000000017,114.93333333333332L239.00000000000017,114.79999999999997L240.00000000000017,114.66666666666666L241.0000000000002,114.5333333333333L242.00000000000017,114.39999999999998L243.00000000000014,114.26666666666664L244.00000000000017,114.13333333333333L245.0000000000002,113.99999999999997L246.0000000000002,113.86666666666665L247.00000000000014,113.73333333333329L248.00000000000017,113.59999999999998L249.0000000000002,113.46666666666664L250.00000000000017,113.33333333333331L251.00000000000017,113.19999999999996L252.0000000000002,113.06666666666665L253.00000000000023,112.9333333333333L254.00000000000017,112.79999999999998L255.00000000000017,112.66666666666664L256.00000000000017,112.53333333333332L257.0000000000002,112.39999999999996L258.00000000000017,112.26666666666665L259.00000000000017,112.1333333333333L260.00000000000017,111.99999999999997L261.00000000000017,111.86666666666663L262.00000000000017,111.73333333333332L263.00000000000017,111.59999999999997L264.0000000000002,111.46666666666664L265.0000000000002,111.3333333333333L266.00000000000017,111.19999999999997L267.00000000000017,111.06666666666663L268.00000000000017,110.93333333333332L269.0000000000002,110.79999999999997L270.0000000000002,110.66666666666664L271.00000000000017,110.53333333333329L272.00000000000017,110.39999999999998L273.0000000000002,110.26666666666664L274.0000000000002,110.13333333333331L275.00000000000017,109.99999999999997L276.0000000000002,109.86666666666665L277.0000000000002,109.73333333333329L278.00000000000017,109.59999999999998L279.00000000000017,109.46666666666664L280.0000000000002,109.33333333333331L281.0000000000002,109.19999999999996L282.0000000000002,109.06666666666665L283.00000000000017,108.9333333333333L284.00000000000017,108.79999999999997L285.0000000000002,108.66666666666663L286.0000000000002,108.53333333333332L287.0000000000002,108.39999999999996L288.0000000000002,108.26666666666665L289.0000000000002,108.1333333333333L290.0000000000002,107.99999999999997L291.00000000000017,107.86666666666663L292.0000000000002,107.73333333333332L293.0000000000002,107.59999999999997L294.0000000000002,107.46666666666664L295.00000000000017,107.33333333333329L296.0000000000002,107.19999999999997L297.0000000000002,107.06666666666663L298.0000000000002,106.93333333333331L299.0000000000002,106.79999999999995L300,106.66666666666667" stroke="#2ca02c"></path><svg overflow="visible" data-type="text"><text xml:space="preserve" dominant-baseline="central" font-size="14" font-family="DejaVu Sans Mono" text-anchor="middle"><textPath href="#path-uuid-13" startOffset="50%"></textPath></text></svg></svg><svg overflow="visible" data-type="path"><path id="path-uuid-14" fill="transparent" stroke-width="2" d="M0,100L1.0000000000000009,100.33333333333333L2.0000000000000018,100.66666666666667L3.0000000000000027,101.00000000000001L4.0000000000000036,101.33333333333333L5.000000000000004,101.66666666666666L6.000000000000005,102L7.000000000000006,102.33333333333334L8.000000000000007,102.66666666666667L9.000000000000007,102.99999999999999L10.000000000000009,103.33333333333333L11.00000000000001,103.66666666666667L12.00000000000001,104L13.00000000000001,104.33333333333333L14.000000000000012,104.66666666666667L15.000000000000014,105.00000000000001L16.000000000000014,105.33333333333333L17.000000000000014,105.66666666666666L18.000000000000014,106L19.000000000000018,106.33333333333334L20.000000000000018,106.66666666666667L21.000000000000018,107L22.00000000000002,107.33333333333334L23.000000000000018,107.66666666666667L24.00000000000002,108L25.000000000000025,108.33333333333334L26.00000000000002,108.66666666666667L27.000000000000025,109.00000000000001L28.000000000000025,109.33333333333334L29.000000000000025,109.66666666666667L30.00000000000003,110.00000000000001L31.00000000000003,110.33333333333334L32.00000000000003,110.66666666666669L33.00000000000003,111L34.00000000000003,111.33333333333334L35.00000000000003,111.66666666666669L36.00000000000003,112.00000000000001L37.000000000000036,112.33333333333334L38.000000000000036,112.66666666666669L39.000000000000036,113.00000000000003L40.000000000000036,113.33333333333334L41.00000000000004,113.66666666666667L42.000000000000036,114.00000000000001L43.000000000000036,114.33333333333336L44.00000000000004,114.66666666666669L45.00000000000004,115L46.000000000000036,115.33333333333334L47.00000000000004,115.66666666666669L48.00000000000004,116.00000000000001L49.00000000000004,116.33333333333334L50.00000000000005,116.66666666666669L51.00000000000004,117.00000000000003L52.00000000000004,117.33333333333334L53.00000000000005,117.66666666666667L54.00000000000005,118.00000000000001L55.00000000000004,118.33333333333336L56.00000000000005,118.66666666666669L57.00000000000005,119L58.00000000000005,119.33333333333334L59.00000000000006,119.66666666666669L60.00000000000006,120.00000000000001L61.00000000000005,120.33333333333334L62.00000000000006,120.66666666666669L63.00000000000006,121.00000000000003L64.00000000000006,121.33333333333334L65.00000000000006,121.66666666666669L66.00000000000006,122.00000000000001L67.00000000000006,122.33333333333336L68.00000000000006,122.66666666666669L69.00000000000006,123.00000000000001L70.00000000000006,123.33333333333336L71.00000000000007,123.66666666666669L72.00000000000006,124.00000000000003L73.00000000000006,124.33333333333336L74.00000000000007,124.66666666666669L75.00000000000007,125.00000000000003L76.00000000000007,125.33333333333336L77.00000000000006,125.66666666666669L78.00000000000007,126.00000000000003L79.00000000000007,126.33333333333337L80.00000000000007,126.6666666666667L81.00000000000007,127.00000000000001L82.00000000000009,127.33333333333336L83.00000000000007,127.6666666666667L84.00000000000007,128.00000000000003L85.00000000000009,128.33333333333337L86.00000000000007,128.66666666666669L87.00000000000007,129.00000000000006L88.00000000000009,129.33333333333337L89.00000000000007,129.66666666666669L90.00000000000009,130.00000000000003L91.00000000000009,130.33333333333337L92.00000000000007,130.66666666666669L93.00000000000007,131L94.00000000000007,131.33333333333337L95.00000000000009,131.66666666666669L96.00000000000007,132.00000000000003L97.00000000000007,132.33333333333337L98.00000000000009,132.66666666666669L99.00000000000007,133L100.00000000000006,133.33333333333337L101.00000000000007,133.66666666666669L102.00000000000007,134L103.00000000000006,134.33333333333337L104.00000000000007,134.66666666666669L105.00000000000007,135L106.00000000000007,135.33333333333337L107.00000000000007,135.66666666666669L108.00000000000009,136.00000000000003L109.00000000000007,136.33333333333337L110.00000000000007,136.66666666666669L111.00000000000009,137.00000000000003L112.00000000000007,137.33333333333337L113.00000000000009,137.66666666666669L114.00000000000009,138.00000000000003L115.00000000000007,138.33333333333337L116.00000000000009,138.66666666666669L117.00000000000009,139.00000000000003L118.00000000000007,139.33333333333337L119.00000000000009,139.66666666666669L120.00000000000009,140.00000000000003L121.00000000000009,140.33333333333337L122.00000000000009,140.66666666666669L123.0000000000001,141.00000000000003L124.00000000000009,141.33333333333337L125.00000000000009,141.66666666666669L126.0000000000001,142.00000000000003L127.00000000000009,142.33333333333337L128.00000000000009,142.66666666666669L129.00000000000009,143.00000000000003L130.00000000000009,143.33333333333337L131.00000000000009,143.66666666666669L132.0000000000001,144.00000000000003L133.00000000000009,144.33333333333337L134.00000000000009,144.66666666666669L135.0000000000001,145.00000000000003L136.00000000000009,145.33333333333337L137.0000000000001,145.66666666666669L138.0000000000001,146.00000000000003L139.00000000000009,146.33333333333337L140.0000000000001,146.66666666666669L141.0000000000001,147.00000000000003L142.00000000000009,147.33333333333337L143.0000000000001,147.66666666666669L144.0000000000001,148.00000000000003L145.0000000000001,148.33333333333337L146.0000000000001,148.66666666666669L147.0000000000001,149.00000000000003L148.0000000000001,149.33333333333337L149.0000000000001,149.66666666666669L150.0000000000001,150.00000000000003L151.0000000000001,150.33333333333337L152.00000000000009,150.66666666666669L153.0000000000001,151.00000000000006L154.00000000000009,151.33333333333337L155.0000000000001,151.6666666666667L156.0000000000001,152.00000000000003L157.00000000000014,152.33333333333337L158.00000000000009,152.66666666666669L159.0000000000001,153.00000000000006L160.00000000000009,153.33333333333337L161.0000000000001,153.6666666666667L162.0000000000001,154.00000000000003L163.00000000000014,154.33333333333337L164.00000000000009,154.66666666666669L165.0000000000001,155.00000000000006L166.0000000000001,155.33333333333337L167.0000000000001,155.6666666666667L168.0000000000001,156.00000000000003L169.00000000000014,156.33333333333337L170.00000000000009,156.6666666666667L171.0000000000001,157.00000000000006L172.0000000000001,157.33333333333337L173.00000000000014,157.6666666666667L174.0000000000001,158.00000000000003L175.00000000000014,158.33333333333337L176.0000000000001,158.6666666666667L177.0000000000001,159.00000000000006L178.0000000000001,159.33333333333337L179.00000000000014,159.6666666666667L180.0000000000001,160.00000000000003L181.00000000000014,160.33333333333337L182.0000000000001,160.6666666666667L183.00000000000014,161.00000000000006L184.0000000000001,161.33333333333337L185.00000000000014,161.6666666666667L186.00000000000014,162.00000000000003L187.00000000000014,162.33333333333337L188.0000000000001,162.6666666666667L189.00000000000014,163.00000000000006L190.0000000000001,163.33333333333337L191.00000000000014,163.6666666666667L192.00000000000014,164.00000000000006L193.00000000000017,164.33333333333337L194.0000000000001,164.6666666666667L195.00000000000014,165.00000000000006L196.00000000000014,165.33333333333337L197.00000000000014,165.6666666666667L198.00000000000014,166.00000000000006L199.00000000000017,166.33333333333337L200.0000000000001,166.6666666666667L201.00000000000014,167.00000000000006L202.00000000000014,167.33333333333337L203.0000000000001,167.6666666666667L204.00000000000014,168.00000000000006L205.00000000000017,168.33333333333337L206.0000000000001,168.6666666666667L207.0000000000001,169.00000000000006L208.00000000000014,169.33333333333337L209.00000000000017,169.6666666666667L210.00000000000014,170.00000000000006L211.0000000000001,170.33333333333337L212.00000000000014,170.6666666666667L213.00000000000014,171.00000000000006L214.00000000000014,171.33333333333337L215.00000000000014,171.6666666666667L216.00000000000017,172.00000000000006L217.00000000000017,172.33333333333337L218.00000000000014,172.6666666666667L219.0000000000001,173.00000000000006L220.00000000000014,173.33333333333337L221.00000000000017,173.6666666666667L222.00000000000017,174.00000000000006L223.0000000000001,174.33333333333337L224.00000000000014,174.6666666666667L225.00000000000017,175.00000000000006L226.00000000000017,175.33333333333337L227.00000000000014,175.6666666666667L228.00000000000017,176.00000000000006L229.0000000000002,176.33333333333337L230.00000000000014,176.6666666666667L231.00000000000014,177.00000000000006L232.00000000000017,177.33333333333337L233.00000000000017,177.6666666666667L234.00000000000017,178.00000000000006L235.00000000000014,178.3333333333334L236.00000000000014,178.6666666666667L237.00000000000017,179.00000000000006L238.00000000000017,179.3333333333334L239.00000000000017,179.6666666666667L240.00000000000017,180.00000000000006L241.0000000000002,180.3333333333334L242.00000000000017,180.6666666666667L243.00000000000014,181.00000000000006L244.00000000000017,181.3333333333334L245.0000000000002,181.6666666666667L246.0000000000002,182.00000000000006L247.00000000000014,182.3333333333334L248.00000000000017,182.6666666666667L249.0000000000002,183.00000000000006L250.00000000000017,183.3333333333334L251.00000000000017,183.6666666666667L252.0000000000002,184.00000000000006L253.00000000000023,184.3333333333334L254.00000000000017,184.6666666666667L255.00000000000017,185.00000000000006L256.00000000000017,185.3333333333334L257.0000000000002,185.6666666666667L258.00000000000017,186.00000000000006L259.00000000000017,186.3333333333334L260.00000000000017,186.66666666666674L261.00000000000017,187.00000000000006L262.00000000000017,187.3333333333334L263.00000000000017,187.66666666666674L264.0000000000002,188.00000000000006L265.0000000000002,188.3333333333334L266.00000000000017,188.66666666666674L267.00000000000017,189.00000000000006L268.00000000000017,189.3333333333334L269.0000000000002,189.66666666666674L270.0000000000002,190.00000000000006L271.00000000000017,190.3333333333334L272.00000000000017,190.66666666666674L273.0000000000002,191.00000000000006L274.0000000000002,191.3333333333334L275.00000000000017,191.66666666666674L276.0000000000002,192.00000000000006L277.0000000000002,192.3333333333334L278.00000000000017,192.66666666666674L279.00000000000017,193.00000000000006L280.0000000000002,193.3333333333334L281.0000000000002,193.66666666666674L282.0000000000002,194.00000000000006L283.00000000000017,194.3333333333334L284.00000000000017,194.66666666666674L285.0000000000002,195.00000000000006L286.0000000000002,195.3333333333334L287.0000000000002,195.66666666666674L288.0000000000002,196.00000000000006L289.0000000000002,196.3333333333334L290.0000000000002,196.66666666666674L291.00000000000017,197.00000000000006L292.0000000000002,197.3333333333334L293.0000000000002,197.66666666666674L294.0000000000002,198.00000000000009L295.00000000000017,198.3333333333334L296.0000000000002,198.66666666666674L297.0000000000002,199.00000000000009L298.0000000000002,199.3333333333334L299.0000000000002,199.66666666666674L300,200" stroke="#d62728"></path><svg overflow="visible" data-type="text"><text xml:space="preserve" dominant-baseline="central" font-size="14" font-family="DejaVu Sans Mono" text-anchor="middle"><textPath href="#path-uuid-14" startOffset="50%"></textPath></text></svg></svg><svg overflow="visible" data-type="frame" y="10" x="330"><g><svg overflow="visible"><svg overflow="visible" data-type="path" y="8" x="0"><path id="path-uuid-12" fill="transparent" stroke-width="2" d="M 0 0 8 0" stroke="#1f77b4"></path><svg overflow="visible" data-type="text"><text xml:space="preserve" dominant-baseline="central" font-size="14" font-family="DejaVu Sans Mono" text-anchor="middle"><textPath href="#path-uuid-12" startOffset="50%"></textPath></text></svg></svg><svg overflow="visible" data-type="text" y="0" x="28"><text xml:space="preserve" dominant-baseline="text-before-edge" font-size="14" font-family="DejaVu Sans Mono">w =  2.0</text></svg><svg overflow="visible" data-type="path" y="24" x="0"><path id="path-uuid-13" fill="transparent" stroke-width="2" d="M 0 0 8 0" stroke="#2ca02c"></path><svg overflow="visible" data-type="text"><text xml:space="preserve" dominant-baseline="central" font-size="14" font-family="DejaVu Sans Mono" text-anchor="middle"><textPath href="#path-uuid-13" startOffset="50%"></textPath></text></svg></svg><svg overflow="visible" data-type="text" y="16" x="28"><text xml:space="preserve" dominant-baseline="text-before-edge" font-size="14" font-family="DejaVu Sans Mono">w =  0.2</text></svg><svg overflow="visible" data-type="path" y="40" x="0"><path id="path-uuid-14" fill="transparent" stroke-width="2" d="M 0 0 8 0" stroke="#d62728"></path><svg overflow="visible" data-type="text"><text xml:space="preserve" dominant-baseline="central" font-size="14" font-family="DejaVu Sans Mono" text-anchor="middle"><textPath href="#path-uuid-14" startOffset="50%"></textPath></text></svg></svg><svg overflow="visible" data-type="text" y="32" x="28"><text xml:space="preserve" dominant-baseline="text-before-edge" font-size="14" font-family="DejaVu Sans Mono">w = -0.5</text></svg></svg></g><rect fill="transparent" stroke="#c7c7c7" stroke-width="2" x="-10" y="-10" width="115.421875" height="68"></rect></svg><svg overflow="visible" data-type="circle" x="96" y="129.33333333333334"><circle stroke-width="2" r="4" cx="4" cy="4" fill="#aec7e8" stroke="#1f77b4"></circle><svg overflow="visible" data-type="text" x="4" y="4"><text xml:space="preserve" dominant-baseline="central" font-size="14" font-family="DejaVu Sans Mono" text-anchor="middle" fill="#1f77b4" stroke="transparent"></text></svg></svg><svg overflow="visible" data-type="circle" x="196" y="62.666666666666686"><circle stroke-width="2" r="4" cx="4" cy="4" fill="#aec7e8" stroke="#1f77b4"></circle><svg overflow="visible" data-type="text" x="4" y="4"><text xml:space="preserve" dominant-baseline="central" font-size="14" font-family="DejaVu Sans Mono" text-anchor="middle" fill="#1f77b4" stroke="transparent"></text></svg></svg></svg></svg>