<svg xmlns="http://www.w3.org/2000/svg" width="475.40625" height="264" viewBox="-46.84375 -18 475.40625 264"><svg overflow="visible"><svg overflow="visible" class="grid"><svg overflow="visible" data-type="path" class="tick tick-x"><path id="path-uuid-1" fill="transparent" stroke-width="2" d="M 0 200 0 0" stroke="#eee"></path><svg overflow="visible" data-type="text"><text xml:space="preserve" dominant-baseline="central" font-size="14" font-family="DejaVu Sans Mono" text-anchor="middle"><textPath href="#path-uuid-1" startOffset="50%"></textPath></text></svg></svg><svg overflow="visible" data-type="path" class="tick tick-x"><path id="path-uuid-3" fill="transparent" stroke-width="2" d="M 200 200 200 0" stroke="#eee"></path><svg overflow="visible" data-type="text"><text xml:space="preserve" dominant-baseline="central" font-size="14" font-family="DejaVu Sans Mono" text-anchor="middle"><textPath href="#path-uuid-3" startOffset="50%"></textPath></text></svg></svg><svg overflow="visible" data-type="path" class="tick tick-x"><path id="path-uuid-4" fill="transparent" stroke-width="2" d="M 300 200 300 0" stroke="#eee"></path><svg overflow="visible" data-type="text"><text xml:space="preserve" dominant-baseline="central" font-size="14" font-family="DejaVu Sans Mono" text-anchor="middle"><textPath href="#path-uuid-4" startOffset="50%"></textPath></text></svg></svg><svg overflow="visible" data-type="path" class="tick tick-y"><path id="path-uuid-5" fill="transparent" stroke-width="2" d="M 0 200 300 200" stroke="#eee"></path><svg overflow="visible" data-type="text"><text xml:space="preserve" dominant-baseline="central" font-size="14" font-family="DejaVu Sans Mono" text-anchor="middle"><textPath href="#path-uuid-5" startOffset="50%"></textPath></text></svg></svg><svg overflow="visible" data-type="path" class="tick tick-y"><path id="path-uuid-7" fill="transparent" stroke-width="2" d="M 0 66.66666666666669 300 66.66666666666669" stroke="#eee"></path><svg overflow="visible" data-type="text"><text xml:space="preserve" dominant-baseline="central" font-size="14" font-family="DejaVu Sans Mono" text-anchor="middle"><textPath href="#path-uuid-7" startOffset="50%"></textPath></text></svg></svg><svg overflow="visible" data-type="path" class="tick tick-y"><path id="path-uuid-8" fill="transparent" stroke-width="2" d="M 0 0 300 0" stroke="#eee"></path><svg overflow="visible" data-type="text"><text xml:space="preserve" dominant-baseline="central" font-size="14" font-family="DejaVu Sans Mono" text-anchor="middle"><textPath href="#path-uuid-8" startOffset="50%"></textPath></text></svg></svg><svg overflow="visible" data-type="path" class="tick tick-x"><path id="path-uuid-2" fill="transparent" stroke-width="2" d="M 100 200 100 0" stroke="#111111"></path><svg overflow="visible" data-type="text"><text xml:space="preserve" dominant-baseline="central" font-size="14" font-family="DejaVu Sans Mono" text-anchor="middle"><textPath href="#path-uuid-2" startOffset="50%"></textPath></text></svg></svg><svg overflow="visible" data-type="path" class="tick tick-y"><path id="path-uuid-6" fill="transparent" stroke-width="2" d="M 0 133.33333333333334 300 133.33333333333334" stroke="#111111"></path><svg overflow="visible" data-type="text"><text xml:space="preserve" dominant-baseline="central" font-size="14" font-family="DejaVu Sans Mono" text-anchor="middle"><textPath href="#path-uuid-6" startOffset="50%"></textPath></text></svg></svg></svg><svg overflow="visible" class="axis axis-x" y="220"><svg overflow="visible" data-type="text" class="tick-label tick-label-x" x="-8.421875"><text xml:space="preserve" dominant-baseline="text-before-edge" font-size="14" font-family="DejaVu Sans Mono">-1</text></svg><svg overflow="visible" data-type="text" class="tick-label tick-label-x" x="95.7890625"><text xml:space="preserve" dominant-baseline="text-before-edge" font-size="14" font-family="DejaVu Sans Mono">0</text></svg><svg overflow="visible" data-type="text" class="tick-label tick-label-x" x="195.7890625"><text xml:space="preserve" dominant-baseline="text-before-edge" font-size="14" font-family="DejaVu Sans Mono">1</text></svg><svg overflow="visible" data-type="text" class="tick-label tick-label-x" x="295.7890625"><text xml:space="preserve" dominant-baseline="text-before-edge" font-size="14" font-family="DejaVu Sans Mono">2</text></svg></svg><svg overflow="visible" class="axis axis-y" x="-36.84375"><svg overflow="visible" data-type="text" class="tick-label tick-label-y" y="192" x="0"><text xml:space="preserve" dominant-baseline="text-before-edge" font-size="14" font-family="DejaVu Sans Mono">-1</text></svg><svg overflow="visible" data-type="text" class="tick-label tick-label-y" y="125.33333333333334" x="4.2109375"><text xml:space="preserve" dominant-baseline="text-before-edge" font-size="14" font-family="DejaVu Sans Mono">0</text></svg><svg overflow="visible" data-type="text" class="tick-label tick-label-y" y="58.666666666666686" x="4.2109375"><text xml:space="preserve" dominant-baseline="text-before-edge" font-size="14" font-family="DejaVu Sans Mono">1</text></svg><svg overflow="visible" data-type="text" class="tick-label tick-label-y" y="-8" x="4.2109375"><text xml:space="preserve" dominant-baseline="text-before-edge" font-size="14" font-family="DejaVu Sans Mono">2</text></svg></svg><svg overflow="visible" data-type="path"><path id="path-uuid-10" fill="transparent" stroke-width="2" d="M99.00000000000007,0L100.00000000000006,5.684341886080802e-14L101.00000000000007,0.666666666666714L102.00000000000007,1.3333333333333712L103.00000000000006,2.000000000000057L104.00000000000007,2.6666666666667425L105.00000000000007,3.3333333333333997L106.00000000000007,4.000000000000028L107.00000000000007,4.666666666666714L108.00000000000009,5.3333333333334L109.00000000000007,6.000000000000057L110.00000000000007,6.666666666666714L111.00000000000009,7.3333333333334L112.00000000000007,8.000000000000085L113.00000000000009,8.666666666666714L114.00000000000009,9.333333333333371L115.00000000000007,10.000000000000057L116.00000000000009,10.666666666666742L117.00000000000009,11.3333333333334L118.00000000000007,12.000000000000028L119.00000000000009,12.666666666666714L120.00000000000009,13.3333333333334L121.00000000000009,14.000000000000057L122.00000000000009,14.666666666666714L123.0000000000001,15.3333333333334L124.00000000000009,16.000000000000085L125.00000000000009,16.666666666666714L126.0000000000001,17.33333333333337L127.00000000000009,18.000000000000057L128.00000000000009,18.666666666666742L129.00000000000009,19.3333333333334L130.00000000000009,20.00000000000003L131.00000000000009,20.666666666666714L132.0000000000001,21.3333333333334L133.00000000000009,22.000000000000057L134.00000000000009,22.666666666666714L135.0000000000001,23.3333333333334L136.00000000000009,24.000000000000085L137.0000000000001,24.666666666666714L138.0000000000001,25.33333333333337L139.00000000000009,26.000000000000057L140.0000000000001,26.666666666666742L141.0000000000001,27.3333333333334L142.00000000000009,28.000000000000057L143.0000000000001,28.666666666666742L144.0000000000001,29.3333333333334L145.0000000000001,30.000000000000057L146.0000000000001,30.666666666666742L147.0000000000001,31.3333333333334L148.0000000000001,32.000000000000085L149.0000000000001,32.66666666666674L150.0000000000001,33.3333333333334L151.0000000000001,34.000000000000085L152.00000000000009,34.66666666666674L153.0000000000001,35.33333333333343L154.00000000000009,36.00000000000006L155.0000000000001,36.66666666666674L156.0000000000001,37.3333333333334L157.00000000000014,38.000000000000085L158.00000000000009,38.66666666666674L159.0000000000001,39.33333333333343L160.00000000000009,40.00000000000006L161.0000000000001,40.66666666666674L162.0000000000001,41.3333333333334L163.00000000000014,42.000000000000085L164.00000000000009,42.66666666666674L165.0000000000001,43.33333333333343L166.0000000000001,44.00000000000006L167.0000000000001,44.66666666666674L168.0000000000001,45.3333333333334L169.00000000000014,46.000000000000085L170.00000000000009,46.66666666666674L171.0000000000001,47.33333333333343L172.0000000000001,48.00000000000006L173.00000000000014,48.66666666666674L174.0000000000001,49.3333333333334L175.00000000000014,50.000000000000085L176.0000000000001,50.66666666666674L177.0000000000001,51.33333333333343L178.0000000000001,52.00000000000006L179.00000000000014,52.66666666666674L180.0000000000001,53.3333333333334L181.00000000000014,54.000000000000085L182.0000000000001,54.66666666666674L183.00000000000014,55.33333333333343L184.0000000000001,56.000000000000085L185.00000000000014,56.66666666666674L186.00000000000014,57.33333333333343L187.00000000000014,58.000000000000085L188.0000000000001,58.66666666666674L189.00000000000014,59.33333333333343L190.0000000000001,60.000000000000085L191.00000000000014,60.66666666666677L192.00000000000014,61.33333333333343L193.00000000000017,62.000000000000114L194.0000000000001,62.66666666666677L195.00000000000014,63.33333333333343L196.00000000000014,64.00000000000009L197.00000000000014,64.66666666666677L198.00000000000014,65.33333333333343L199.00000000000017,66.00000000000011L200.0000000000001,66.66666666666677L201.00000000000014,67.33333333333343L202.00000000000014,68.00000000000009L203.0000000000001,68.66666666666677L204.00000000000014,69.33333333333343L205.00000000000017,70.00000000000009L206.0000000000001,70.66666666666677L207.0000000000001,71.33333333333343L208.00000000000014,72.00000000000009L209.00000000000017,72.66666666666677L210.00000000000014,73.33333333333343L211.0000000000001,74.00000000000009L212.00000000000014,74.66666666666677L213.00000000000014,75.33333333333343L214.00000000000014,76.00000000000009L215.00000000000014,76.66666666666677L216.00000000000017,77.33333333333343L217.00000000000017,78.00000000000009L218.00000000000014,78.66666666666677L219.0000000000001,79.33333333333343L220.00000000000014,80.0000000000001L221.00000000000017,80.66666666666677L222.00000000000017,81.33333333333343L223.0000000000001,82.0000000000001L224.00000000000014,82.66666666666677L225.00000000000017,83.33333333333344L226.00000000000017,84.0000000000001L227.00000000000014,84.66666666666679L228.00000000000017,85.33333333333344L229.0000000000002,86.0000000000001L230.00000000000014,86.66666666666679L231.00000000000014,87.33333333333344L232.00000000000017,88.0000000000001L233.00000000000017,88.66666666666679L234.00000000000017,89.33333333333344L235.00000000000014,90.0000000000001L236.00000000000014,90.66666666666679L237.00000000000017,91.33333333333344L238.00000000000017,92.0000000000001L239.00000000000017,92.66666666666679L240.00000000000017,93.33333333333344L241.0000000000002,94.0000000000001L242.00000000000017,94.66666666666679L243.00000000000014,95.33333333333344L244.00000000000017,96.00000000000011L245.0000000000002,96.66666666666679L246.0000000000002,97.33333333333346L247.00000000000014,98.00000000000011L248.00000000000017,98.66666666666679L249.0000000000002,99.33333333333346L250.00000000000017,100.00000000000013L251.00000000000017,100.66666666666679L252.0000000000002,101.33333333333346L253.00000000000023,102.00000000000013L254.00000000000017,102.66666666666679L255.00000000000017,103.33333333333346L256.00000000000017,104.00000000000013L257.0000000000002,104.66666666666679L258.00000000000017,105.33333333333346L259.00000000000017,106.00000000000013L260.00000000000017,106.66666666666679L261.00000000000017,107.33333333333346L262.00000000000017,108.00000000000013L263.00000000000017,108.66666666666679L264.0000000000002,109.33333333333346L265.0000000000002,110.00000000000013L266.00000000000017,110.66666666666679L267.00000000000017,111.33333333333346L268.00000000000017,112.00000000000013L269.0000000000002,112.6666666666668L270.0000000000002,113.33333333333346L271.00000000000017,114.00000000000013L272.00000000000017,114.6666666666668L273.0000000000002,115.33333333333347L274.0000000000002,116.00000000000014L275.00000000000017,116.6666666666668L276.0000000000002,117.33333333333347L277.0000000000002,118.00000000000014L278.00000000000017,118.6666666666668L279.00000000000017,119.33333333333347L280.0000000000002,120.00000000000014L281.0000000000002,120.6666666666668L282.0000000000002,121.33333333333347L283.00000000000017,122.00000000000014L284.00000000000017,122.6666666666668L285.0000000000002,123.33333333333347L286.0000000000002,124.00000000000014L287.0000000000002,124.6666666666668L288.0000000000002,125.33333333333347L289.0000000000002,126.00000000000014L290.0000000000002,126.6666666666668L291.00000000000017,127.33333333333347L292.0000000000002,128.00000000000014L293.0000000000002,128.6666666666668L294.0000000000002,129.33333333333348L295.00000000000017,130.00000000000014L296.0000000000002,130.6666666666668L297.0000000000002,131.33333333333348L298.0000000000002,132.00000000000017L299.0000000000002,132.6666666666668L300,133.33333333333334" stroke="#1f77b4"></path><svg overflow="visible" data-type="text"><text xml:space="preserve" dominant-baseline="central" font-size="14" font-family="DejaVu Sans Mono" text-anchor="middle"><textPath href="#path-uuid-10" startOffset="50%"></textPath></text></svg></svg><svg overflow="visible" data-type="path"><path id="path-uuid-11" fill="transparent" stroke-width="2" d="M0,66.66666666666669L1.0000000000000009,67.33333333333334L2.0000000000000018,68L3.0000000000000027,68.66666666666669L4.0000000000000036,69.33333333333334L5.000000000000004,70L6.000000000000005,70.66666666666669L7.000000000000006,71.33333333333334L8.000000000000007,72L9.000000000000007,72.66666666666669L10.000000000000009,73.33333333333334L11.00000000000001,74L12.00000000000001,74.66666666666669L13.00000000000001,75.33333333333334L14.000000000000012,76L15.000000000000014,76.66666666666669L16.000000000000014,77.33333333333334L17.000000000000014,78L18.000000000000014,78.66666666666669L19.000000000000018,79.33333333333334L20.000000000000018,80L21.000000000000018,80.66666666666669L22.00000000000002,81.33333333333334L23.000000000000018,82L24.00000000000002,82.66666666666669L25.000000000000025,83.33333333333334L26.00000000000002,84.00000000000001L27.000000000000025,84.66666666666669L28.000000000000025,85.33333333333334L29.000000000000025,86.00000000000001L30.00000000000003,86.66666666666669L31.00000000000003,87.33333333333336L32.00000000000003,88.00000000000001L33.00000000000003,88.6666666666667L34.00000000000003,89.33333333333336L35.00000000000003,90.00000000000001L36.00000000000003,90.6666666666667L37.000000000000036,91.33333333333336L38.000000000000036,92.00000000000001L39.000000000000036,92.6666666666667L40.000000000000036,93.33333333333336L41.00000000000004,94.00000000000001L42.000000000000036,94.6666666666667L43.000000000000036,95.33333333333336L44.00000000000004,96.00000000000001L45.00000000000004,96.6666666666667L46.000000000000036,97.33333333333336L47.00000000000004,98.00000000000001L48.00000000000004,98.6666666666667L49.00000000000004,99.33333333333336L50.00000000000005,100.00000000000003L51.00000000000004,100.6666666666667L52.00000000000004,101.33333333333337L53.00000000000005,102.00000000000003L54.00000000000005,102.6666666666667L55.00000000000004,103.33333333333337L56.00000000000005,104.00000000000004L57.00000000000005,104.6666666666667L58.00000000000005,105.33333333333337L59.00000000000006,106.00000000000004L60.00000000000006,106.6666666666667L61.00000000000005,107.33333333333337L62.00000000000006,108.00000000000004L63.00000000000006,108.6666666666667L64.00000000000006,109.33333333333337L65.00000000000006,110.00000000000004L66.00000000000006,110.6666666666667L67.00000000000006,111.33333333333337L68.00000000000006,112.00000000000004L69.00000000000006,112.6666666666667L70.00000000000006,113.33333333333337L71.00000000000007,114.00000000000004L72.00000000000006,114.6666666666667L73.00000000000006,115.33333333333337L74.00000000000007,116.00000000000004L75.00000000000007,116.66666666666671L76.00000000000007,117.33333333333337L77.00000000000006,118.00000000000004L78.00000000000007,118.66666666666671L79.00000000000007,119.33333333333339L80.00000000000007,120.00000000000006L81.00000000000007,120.66666666666671L82.00000000000009,121.33333333333339L83.00000000000007,122.00000000000006L84.00000000000007,122.66666666666671L85.00000000000009,123.33333333333339L86.00000000000007,124.00000000000006L87.00000000000007,124.66666666666671L88.00000000000009,125.33333333333339L89.00000000000007,126.00000000000006L90.00000000000009,126.66666666666671L91.00000000000009,127.33333333333339L92.00000000000007,128.00000000000006L93.00000000000007,128.6666666666667L94.00000000000007,129.33333333333337L95.00000000000009,130.00000000000006L96.00000000000007,130.6666666666667L97.00000000000007,131.33333333333337L98.00000000000009,132.00000000000006L99.00000000000007,132.6666666666667L100.00000000000006,133.33333333333337L101.00000000000007,134.00000000000006L102.00000000000007,134.66666666666674L103.00000000000006,135.33333333333337L104.00000000000007,136.00000000000006L105.00000000000007,136.6666666666667L106.00000000000007,137.33333333333337L107.00000000000007,138.00000000000006L108.00000000000009,138.6666666666667L109.00000000000007,139.33333333333337L110.00000000000007,140.00000000000006L111.00000000000009,140.6666666666667L112.00000000000007,141.33333333333337L113.00000000000009,142.00000000000006L114.00000000000009,142.6666666666667L115.00000000000007,143.3333333333334L116.00000000000009,144.00000000000006L117.00000000000009,144.6666666666667L118.00000000000007,145.3333333333334L119.00000000000009,146.00000000000006L120.00000000000009,146.6666666666667L121.00000000000009,147.3333333333334L122.00000000000009,148.00000000000006L123.0000000000001,148.66666666666674L124.00000000000009,149.3333333333334L125.00000000000009,150.00000000000006L126.0000000000001,150.66666666666674L127.00000000000009,151.3333333333334L128.00000000000009,152.00000000000006L129.00000000000009,152.66666666666674L130.00000000000009,153.3333333333334L131.00000000000009,154.00000000000006L132.0000000000001,154.66666666666674L133.00000000000009,155.3333333333334L134.00000000000009,156.00000000000006L135.0000000000001,156.66666666666674L136.00000000000009,157.3333333333334L137.0000000000001,158.00000000000006L138.0000000000001,158.66666666666674L139.00000000000009,159.3333333333334L140.0000000000001,160.00000000000006L141.0000000000001,160.66666666666674L142.00000000000009,161.3333333333334L143.0000000000001,162.00000000000006L144.0000000000001,162.66666666666674L145.0000000000001,163.3333333333334L146.0000000000001,164.00000000000006L147.0000000000001,164.66666666666674L148.0000000000001,165.3333333333334L149.0000000000001,166.00000000000009L150.0000000000001,166.66666666666674L151.0000000000001,167.3333333333334L152.00000000000009,168.00000000000006L153.0000000000001,168.66666666666674L154.00000000000009,169.3333333333334L155.0000000000001,170.00000000000006L156.0000000000001,170.66666666666674L157.00000000000014,171.3333333333334L158.00000000000009,172.00000000000006L159.0000000000001,172.66666666666674L160.00000000000009,173.3333333333334L161.0000000000001,174.00000000000006L162.0000000000001,174.66666666666674L163.00000000000014,175.3333333333334L164.00000000000009,176.00000000000009L165.0000000000001,176.66666666666674L166.0000000000001,177.3333333333334L167.0000000000001,178.00000000000009L168.0000000000001,178.66666666666674L169.00000000000014,179.3333333333334L170.00000000000009,180.00000000000009L171.0000000000001,180.66666666666674L172.0000000000001,181.33333333333343L173.00000000000014,182.00000000000009L174.0000000000001,182.66666666666674L175.00000000000014,183.33333333333343L176.0000000000001,184.00000000000009L177.0000000000001,184.66666666666674L178.0000000000001,185.33333333333343L179.00000000000014,186.00000000000009L180.0000000000001,186.66666666666674L181.00000000000014,187.33333333333343L182.0000000000001,188.00000000000009L183.00000000000014,188.66666666666674L184.0000000000001,189.33333333333343L185.00000000000014,190.00000000000009L186.00000000000014,190.66666666666674L187.00000000000014,191.33333333333343L188.0000000000001,192.00000000000009L189.00000000000014,192.66666666666674L190.0000000000001,193.33333333333343L191.00000000000014,194.00000000000009L192.00000000000014,194.66666666666677L193.00000000000017,195.33333333333343L194.0000000000001,196.00000000000009L195.00000000000014,196.66666666666677L196.00000000000014,197.33333333333343L197.00000000000014,198.00000000000009L198.00000000000014,198.66666666666677L199.00000000000017,199.33333333333343L200.0000000000001,200" stroke="#2ca02c"></path><svg overflow="visible" data-type="text"><text xml:space="preserve" dominant-baseline="central" font-size="14" font-family="DejaVu Sans Mono" text-anchor="middle"><textPath href="#path-uuid-11" startOffset="50%"></textPath></text></svg></svg><svg overflow="visible" data-type="path"><path id="path-uuid-12" fill="transparent" stroke-width="2" d="M0,133.33333333333334L1.0000000000000009,134L2.0000000000000018,134.66666666666669L3.0000000000000027,135.33333333333334L4.0000000000000036,136L5.000000000000004,136.66666666666669L6.000000000000005,137.33333333333334L7.000000000000006,138L8.000000000000007,138.66666666666669L9.000000000000007,139.33333333333334L10.000000000000009,140L11.00000000000001,140.66666666666669L12.00000000000001,141.33333333333334L13.00000000000001,142L14.000000000000012,142.66666666666669L15.000000000000014,143.33333333333334L16.000000000000014,144L17.000000000000014,144.66666666666669L18.000000000000014,145.33333333333334L19.000000000000018,146L20.000000000000018,146.66666666666669L21.000000000000018,147.33333333333334L22.00000000000002,148L23.000000000000018,148.66666666666669L24.00000000000002,149.33333333333334L25.000000000000025,150L26.00000000000002,150.66666666666669L27.000000000000025,151.33333333333334L28.000000000000025,152.00000000000003L29.000000000000025,152.66666666666669L30.00000000000003,153.33333333333334L31.00000000000003,154.00000000000003L32.00000000000003,154.66666666666669L33.00000000000003,155.33333333333334L34.00000000000003,156.00000000000003L35.00000000000003,156.66666666666669L36.00000000000003,157.33333333333334L37.000000000000036,158.00000000000003L38.000000000000036,158.66666666666669L39.000000000000036,159.33333333333337L40.000000000000036,160.00000000000003L41.00000000000004,160.66666666666669L42.000000000000036,161.33333333333337L43.000000000000036,162.00000000000003L44.00000000000004,162.66666666666669L45.00000000000004,163.33333333333337L46.000000000000036,164.00000000000003L47.00000000000004,164.66666666666669L48.00000000000004,165.33333333333337L49.00000000000004,166.00000000000003L50.00000000000005,166.66666666666669L51.00000000000004,167.33333333333337L52.00000000000004,168.00000000000003L53.00000000000005,168.66666666666669L54.00000000000005,169.33333333333337L55.00000000000004,170.00000000000003L56.00000000000005,170.66666666666669L57.00000000000005,171.33333333333337L58.00000000000005,172.00000000000003L59.00000000000006,172.66666666666669L60.00000000000006,173.33333333333337L61.00000000000005,174.00000000000003L62.00000000000006,174.6666666666667L63.00000000000006,175.33333333333337L64.00000000000006,176.00000000000003L65.00000000000006,176.6666666666667L66.00000000000006,177.33333333333337L67.00000000000006,178.00000000000003L68.00000000000006,178.6666666666667L69.00000000000006,179.33333333333337L70.00000000000006,180.00000000000003L71.00000000000007,180.6666666666667L72.00000000000006,181.33333333333337L73.00000000000006,182.00000000000006L74.00000000000007,182.6666666666667L75.00000000000007,183.33333333333337L76.00000000000007,184.00000000000006L77.00000000000006,184.6666666666667L78.00000000000007,185.33333333333337L79.00000000000007,186.00000000000006L80.00000000000007,186.6666666666667L81.00000000000007,187.33333333333337L82.00000000000009,188.00000000000006L83.00000000000007,188.6666666666667L84.00000000000007,189.33333333333337L85.00000000000009,190.00000000000006L86.00000000000007,190.6666666666667L87.00000000000007,191.33333333333337L88.00000000000009,192.00000000000006L89.00000000000007,192.6666666666667L90.00000000000009,193.3333333333334L91.00000000000009,194.00000000000006L92.00000000000007,194.6666666666667L93.00000000000007,195.33333333333337L94.00000000000007,196.00000000000006L95.00000000000009,196.6666666666667L96.00000000000007,197.33333333333337L97.00000000000007,198.00000000000006L98.00000000000009,198.6666666666667L99.00000000000007,199.33333333333337L100.00000000000006,200" stroke="#d62728"></path><svg overflow="visible" data-type="text"><text xml:space="preserve" dominant-baseline="central" font-size="14" font-family="DejaVu Sans Mono" text-anchor="middle"><textPath href="#path-uuid-12" startOffset="50%"></textPath></text></svg></svg><svg overflow="visible" data-type="frame" y="10" x="330"><g><svg overflow="visible"><svg overflow="visible" data-type="path" y="8" x="0"><path id="path-uuid-10" fill="transparent" stroke-width="2" d="M 0 0 8 0" stroke="#1f77b4"></path><svg overflow="visible" data-type="text"><text xml:space="preserve" dominant-baseline="central" font-size="14" font-family="DejaVu Sans Mono" text-anchor="middle"><textPath href="#path-uuid-10" startOffset="50%"></textPath></text></svg></svg><svg overflow="visible" data-type="text" y="0" x="28"><text xml:space="preserve" dominant-baseline="text-before-edge" font-size="14" font-family="DejaVu Sans Mono">b =  2</text></svg><svg overflow="visible" data-type="path" y="24" x="0"><path id="path-uuid-11" fill="transparent" stroke-width="2" d="M 0 0 8 0" stroke="#2ca02c"></path><svg overflow="visible" data-type="text"><text xml:space="preserve" dominant-baseline="central" font-size="14" font-family="DejaVu Sans Mono" text-anchor="middle"><textPath href="#path-uuid-11" startOffset="50%"></textPath></text></svg></svg><svg overflow="visible" data-type="text" y="16" x="28"><text xml:space="preserve" dominant-baseline="text-before-edge" font-size="14" font-family="DejaVu Sans Mono">b =  0</text></svg><svg overflow="visible" data-type="path" y="40" x="0"><path id="path-uuid-12" fill="transparent" stroke-width="2" d="M 0 0 8 0" stroke="#d62728"></path><svg overflow="visible" data-type="text"><text xml:space="preserve" dominant-baseline="central" font-size="14" font-family="DejaVu Sans Mono" text-anchor="middle"><textPath href="#path-uuid-12" startOffset="50%"></textPath></text></svg></svg><svg overflow="visible" data-type="text" y="32" x="28"><text xml:space="preserve" dominant-baseline="text-before-edge" font-size="14" font-family="DejaVu Sans Mono">b = -1</text></svg></svg></g><rect fill="transparent" stroke="#c7c7c7" stroke-width="2" x="-10" y="-10" width="98.5625" height="68"></rect></svg><svg overflow="visible" data-type="circle" x="96" y="62.666666666666686"><circle stroke-width="2" r="4" cx="4" cy="4" fill="#aec7e8" stroke="#1f77b4"></circle><svg overflow="visible" data-type="text" x="4" y="4"><text xml:space="preserve" dominant-baseline="central" font-size="14" font-family="DejaVu Sans Mono" text-anchor="middle" fill="#1f77b4" stroke="transparent"></text></svg></svg><svg overflow="visible" data-type="circle" x="196" y="129.33333333333334"><circle stroke-width="2" r="4" cx="4" cy="4" fill="#aec7e8" stroke="#1f77b4"></circle><svg overflow="visible" data-type="text" x="4" y="4"><text xml:space="preserve" dominant-baseline="central" font-size="14" font-family="DejaVu Sans Mono" text-anchor="middle" fill="#1f77b4" stroke="transparent"></text></svg></svg></svg></svg>