<svg xmlns="http://www.w3.org/2000/svg" width="551.265625" height="264" viewBox="-46.84375 -18 551.265625 264"><svg overflow="visible"><svg overflow="visible" class="grid"><svg overflow="visible" data-type="path" class="tick tick-x"><path id="path-uuid-1" fill="transparent" stroke-width="2" d="M 0 200 0 0" stroke="#eee"></path><svg overflow="visible" data-type="text"><text xml:space="preserve" dominant-baseline="central" font-size="14" font-family="DejaVu Sans Mono" text-anchor="middle"><textPath href="#path-uuid-1" startOffset="50%"></textPath></text></svg></svg><svg overflow="visible" data-type="path" class="tick tick-x"><path id="path-uuid-2" fill="transparent" stroke-width="2" d="M 75 200 75 0" stroke="#eee"></path><svg overflow="visible" data-type="text"><text xml:space="preserve" dominant-baseline="central" font-size="14" font-family="DejaVu Sans Mono" text-anchor="middle"><textPath href="#path-uuid-2" startOffset="50%"></textPath></text></svg></svg><svg overflow="visible" data-type="path" class="tick tick-x"><path id="path-uuid-4" fill="transparent" stroke-width="2" d="M 225 200 225 0" stroke="#eee"></path><svg overflow="visible" data-type="text"><text xml:space="preserve" dominant-baseline="central" font-size="14" font-family="DejaVu Sans Mono" text-anchor="middle"><textPath href="#path-uuid-4" startOffset="50%"></textPath></text></svg></svg><svg overflow="visible" data-type="path" class="tick tick-x"><path id="path-uuid-5" fill="transparent" stroke-width="2" d="M 300 200 300 0" stroke="#eee"></path><svg overflow="visible" data-type="text"><text xml:space="preserve" dominant-baseline="central" font-size="14" font-family="DejaVu Sans Mono" text-anchor="middle"><textPath href="#path-uuid-5" startOffset="50%"></textPath></text></svg></svg><svg overflow="visible" data-type="path" class="tick tick-y"><path id="path-uuid-6" fill="transparent" stroke-width="2" d="M 0 200 300 200" stroke="#eee"></path><svg overflow="visible" data-type="text"><text xml:space="preserve" dominant-baseline="central" font-size="14" font-family="DejaVu Sans Mono" text-anchor="middle"><textPath href="#path-uuid-6" startOffset="50%"></textPath></text></svg></svg><svg overflow="visible" data-type="path" class="tick tick-y"><path id="path-uuid-7" fill="transparent" stroke-width="2" d="M 0 150 300 150" stroke="#eee"></path><svg overflow="visible" data-type="text"><text xml:space="preserve" dominant-baseline="central" font-size="14" font-family="DejaVu Sans Mono" text-anchor="middle"><textPath href="#path-uuid-7" startOffset="50%"></textPath></text></svg></svg><svg overflow="visible" data-type="path" class="tick tick-y"><path id="path-uuid-9" fill="transparent" stroke-width="2" d="M 0 50 300 50" stroke="#eee"></path><svg overflow="visible" data-type="text"><text xml:space="preserve" dominant-baseline="central" font-size="14" font-family="DejaVu Sans Mono" text-anchor="middle"><textPath href="#path-uuid-9" startOffset="50%"></textPath></text></svg></svg><svg overflow="visible" data-type="path" class="tick tick-y"><path id="path-uuid-10" fill="transparent" stroke-width="2" d="M 0 0 300 0" stroke="#eee"></path><svg overflow="visible" data-type="text"><text xml:space="preserve" dominant-baseline="central" font-size="14" font-family="DejaVu Sans Mono" text-anchor="middle"><textPath href="#path-uuid-10" startOffset="50%"></textPath></text></svg></svg><svg overflow="visible" data-type="path" class="tick tick-x"><path id="path-uuid-3" fill="transparent" stroke-width="2" d="M 150 200 150 0" stroke="#111111"></path><svg overflow="visible" data-type="text"><text xml:space="preserve" dominant-baseline="central" font-size="14" font-family="DejaVu Sans Mono" text-anchor="middle"><textPath href="#path-uuid-3" startOffset="50%"></textPath></text></svg></svg><svg overflow="visible" data-type="path" class="tick tick-y"><path id="path-uuid-8" fill="transparent" stroke-width="2" d="M 0 100 300 100" stroke="#111111"></path><svg overflow="visible" data-type="text"><text xml:space="preserve" dominant-baseline="central" font-size="14" font-family="DejaVu Sans Mono" text-anchor="middle"><textPath href="#path-uuid-8" startOffset="50%"></textPath></text></svg></svg></svg><svg overflow="visible" class="axis axis-x" y="220"><svg overflow="visible" data-type="text" class="tick-label tick-label-x" x="-8.421875"><text xml:space="preserve" dominant-baseline="text-before-edge" font-size="14" font-family="DejaVu Sans Mono">-2</text></svg><svg overflow="visible" data-type="text" class="tick-label tick-label-x" x="66.578125"><text xml:space="preserve" dominant-baseline="text-before-edge" font-size="14" font-family="DejaVu Sans Mono">-1</text></svg><svg overflow="visible" data-type="text" class="tick-label tick-label-x" x="145.7890625"><text xml:space="preserve" dominant-baseline="text-before-edge" font-size="14" font-family="DejaVu Sans Mono">0</text></svg><svg overflow="visible" data-type="text" class="tick-label tick-label-x" x="220.7890625"><text xml:space="preserve" dominant-baseline="text-before-edge" font-size="14" font-family="DejaVu Sans Mono">1</text></svg><svg overflow="visible" data-type="text" class="tick-label tick-label-x" x="295.7890625"><text xml:space="preserve" dominant-baseline="text-before-edge" font-size="14" font-family="DejaVu Sans Mono">2</text></svg></svg><svg overflow="visible" class="axis axis-y" x="-36.84375"><svg overflow="visible" data-type="text" class="tick-label tick-label-y" y="192" x="0"><text xml:space="preserve" dominant-baseline="text-before-edge" font-size="14" font-family="DejaVu Sans Mono">-2</text></svg><svg overflow="visible" data-type="text" class="tick-label tick-label-y" y="142" x="0"><text xml:space="preserve" dominant-baseline="text-before-edge" font-size="14" font-family="DejaVu Sans Mono">-1</text></svg><svg overflow="visible" data-type="text" class="tick-label tick-label-y" y="92" x="4.2109375"><text xml:space="preserve" dominant-baseline="text-before-edge" font-size="14" font-family="DejaVu Sans Mono">0</text></svg><svg overflow="visible" data-type="text" class="tick-label tick-label-y" y="42" x="4.2109375"><text xml:space="preserve" dominant-baseline="text-before-edge" font-size="14" font-family="DejaVu Sans Mono">1</text></svg><svg overflow="visible" data-type="text" class="tick-label tick-label-y" y="-8" x="4.2109375"><text xml:space="preserve" dominant-baseline="text-before-edge" font-size="14" font-family="DejaVu Sans Mono">2</text></svg></svg><svg overflow="visible" data-type="path"><path id="path-uuid-11" fill="transparent" stroke-width="2" d="M0,200L1.0000000000000064,199.33333333333334L2.000000000000013,198.66666666666666L3.0000000000000195,198L4.000000000000026,197.33333333333331L5.000000000000032,196.66666666666666L6.000000000000039,195.99999999999997L7.000000000000045,195.33333333333331L8.000000000000052,194.66666666666663L9.000000000000059,193.99999999999997L10.000000000000064,193.3333333333333L11.000000000000071,192.66666666666663L12.000000000000078,191.99999999999994L13.000000000000083,191.3333333333333L14.00000000000009,190.6666666666666L15.000000000000096,189.99999999999994L16.000000000000103,189.33333333333326L17.00000000000011,188.6666666666666L18.000000000000117,187.99999999999991L19.00000000000012,187.33333333333326L20.000000000000128,186.66666666666657L21.000000000000135,185.99999999999991L22.000000000000142,185.33333333333323L23.00000000000015,184.66666666666657L24.000000000000156,183.9999999999999L25.00000000000016,183.33333333333323L26.000000000000167,182.66666666666654L27.000000000000174,181.9999999999999L28.00000000000018,181.3333333333332L29.00000000000019,180.66666666666654L30.000000000000192,179.9999999999999L31.0000000000002,179.3333333333332L32.000000000000206,178.66666666666652L33.00000000000021,177.99999999999986L34.00000000000022,177.3333333333332L35.00000000000023,176.66666666666652L36.000000000000234,175.99999999999983L37.00000000000024,175.33333333333317L38.00000000000024,174.66666666666652L39.00000000000025,173.99999999999983L40.000000000000256,173.33333333333317L41.00000000000026,172.6666666666665L42.00000000000027,171.99999999999983L43.00000000000028,171.33333333333314L44.000000000000284,170.6666666666665L45.00000000000029,169.9999999999998L46.0000000000003,169.33333333333314L47.000000000000306,168.66666666666646L48.00000000000031,167.9999999999998L49.00000000000031,167.33333333333312L50.00000000000032,166.66666666666646L51.00000000000033,165.99999999999977L52.000000000000334,165.33333333333312L53.00000000000034,164.66666666666643L54.00000000000035,163.99999999999977L55.000000000000355,163.3333333333331L56.00000000000036,162.66666666666643L57.00000000000037,161.99999999999977L58.00000000000038,161.3333333333331L59.00000000000038,160.6666666666664L60.000000000000384,159.99999999999974L61.00000000000039,159.3333333333331L62.0000000000004,158.6666666666664L63.000000000000405,157.99999999999972L64.00000000000041,157.33333333333306L65.00000000000041,156.6666666666664L66.00000000000043,155.99999999999972L67.00000000000043,155.33333333333303L68.00000000000044,154.66666666666637L69.00000000000044,153.99999999999972L70.00000000000045,153.33333333333303L71.00000000000045,152.66666666666634L72.00000000000047,151.9999999999997L73.00000000000047,151.33333333333303L74.00000000000048,150.66666666666634L75.00000000000047,149.9999999999997L76.00000000000047,149.33333333333303L77.00000000000048,148.66666666666634L78.00000000000047,147.9999999999997L79.00000000000045,147.33333333333303L80.00000000000047,146.66666666666634L81.00000000000047,145.9999999999997L82.00000000000045,145.33333333333303L83.00000000000045,144.66666666666637L84.00000000000045,143.9999999999997L85.00000000000047,143.33333333333303L86.00000000000045,142.66666666666637L87.00000000000044,141.99999999999972L88.00000000000045,141.33333333333303L89.00000000000045,140.66666666666634L90.00000000000044,139.99999999999972L91.00000000000044,139.33333333333303L92.00000000000044,138.66666666666637L93.00000000000045,137.99999999999972L94.00000000000044,137.33333333333303L95.00000000000043,136.66666666666637L96.00000000000044,135.99999999999972L97.00000000000044,135.33333333333303L98.00000000000043,134.66666666666637L99.00000000000043,133.99999999999972L100.00000000000043,133.33333333333303L101.00000000000044,132.66666666666637L102.00000000000043,131.99999999999972L103.00000000000041,131.33333333333306L104.00000000000043,130.6666666666664L105.00000000000043,129.99999999999972L106.00000000000041,129.33333333333306L107.00000000000041,128.6666666666664L108.00000000000041,127.99999999999973L109.00000000000041,127.33333333333306L110.00000000000041,126.6666666666664L111.0000000000004,125.99999999999973L112.0000000000004,125.33333333333306L113.00000000000041,124.66666666666639L114.0000000000004,123.99999999999973L115.0000000000004,123.33333333333307L116.0000000000004,122.6666666666664L117.0000000000004,121.99999999999973L118.0000000000004,121.33333333333307L119.00000000000038,120.66666666666642L120.00000000000038,119.99999999999974L121.0000000000004,119.33333333333307L122.00000000000038,118.66666666666642L123.00000000000037,117.99999999999974L124.00000000000038,117.33333333333307L125.00000000000038,116.6666666666664L126.00000000000038,115.99999999999974L127.00000000000037,115.33333333333309L128.00000000000037,114.66666666666642L129.00000000000037,113.99999999999974L130.00000000000037,113.33333333333309L131.00000000000037,112.66666666666643L132.00000000000037,111.99999999999976L133.00000000000037,111.33333333333309L134.00000000000037,110.66666666666643L135.00000000000037,109.99999999999976L136.00000000000037,109.33333333333309L137.00000000000037,108.66666666666643L138.00000000000037,107.99999999999976L139.00000000000037,107.33333333333309L140.00000000000037,106.66666666666642L141.00000000000037,105.99999999999974L142.00000000000037,105.33333333333309L143.00000000000037,104.66666666666642L144.00000000000037,103.99999999999974L145.00000000000037,103.33333333333309L146.00000000000037,102.66666666666642L147.00000000000037,101.99999999999976L148.00000000000037,101.33333333333309L149.00000000000037,100.66666666666642L150.00000000000037,99.99999999999976L151.00000000000037,99.3333333333331L152.00000000000037,98.66666666666642L153.00000000000037,97.99999999999976L154.00000000000037,97.33333333333309L155.00000000000037,96.66666666666642L156.00000000000037,95.99999999999976L157.00000000000037,95.33333333333309L158.0000000000004,94.66666666666642L159.00000000000037,93.99999999999974L160.00000000000037,93.33333333333309L161.0000000000004,92.6666666666664L162.00000000000037,91.99999999999974L163.00000000000037,91.33333333333309L164.0000000000004,90.6666666666664L165.00000000000037,89.99999999999974L166.00000000000037,89.33333333333309L167.00000000000037,88.66666666666643L168.00000000000037,87.99999999999974L169.00000000000037,87.33333333333309L170.00000000000037,86.66666666666643L171.00000000000034,85.99999999999977L172.00000000000037,85.33333333333309L173.00000000000037,84.66666666666643L174.00000000000034,83.99999999999976L175.00000000000037,83.33333333333309L176.00000000000037,82.66666666666642L177.00000000000037,81.99999999999976L178.00000000000034,81.3333333333331L179.00000000000034,80.66666666666644L180.00000000000037,79.99999999999976L181.00000000000034,79.3333333333331L182.00000000000034,78.66666666666644L183.00000000000037,77.99999999999976L184.00000000000034,77.3333333333331L185.00000000000034,76.66666666666644L186.00000000000034,75.99999999999977L187.0000000000003,75.33333333333312L188.00000000000034,74.66666666666643L189.00000000000034,73.99999999999977L190.0000000000003,73.33333333333312L191.00000000000034,72.66666666666643L192.00000000000034,71.99999999999977L193.00000000000034,71.33333333333312L194.0000000000003,70.66666666666646L195.0000000000003,69.9999999999998L196.00000000000034,69.33333333333312L197.0000000000003,68.66666666666646L198.0000000000003,67.9999999999998L199.00000000000034,67.33333333333312L200.0000000000003,66.66666666666646L201.0000000000003,65.9999999999998L202.0000000000003,65.33333333333314L203.00000000000028,64.66666666666646L204.0000000000003,63.9999999999998L205.0000000000003,63.333333333333144L206.00000000000028,62.66666666666646L207.0000000000003,61.9999999999998L208.0000000000003,61.333333333333115L209.00000000000028,60.66666666666646L210.00000000000028,59.9999999999998L211.00000000000028,59.333333333333144L212.0000000000003,58.66666666666646L213.00000000000028,57.9999999999998L214.00000000000028,57.333333333333144L215.0000000000003,56.66666666666646L216.00000000000028,55.9999999999998L217.00000000000028,55.333333333333144L218.00000000000028,54.66666666666649L219.00000000000026,53.99999999999983L220.00000000000028,53.333333333333144L221.00000000000028,52.66666666666649L222.00000000000026,51.99999999999983L223.00000000000028,51.333333333333144L224.00000000000028,50.66666666666649L225.00000000000026,49.99999999999983L226.00000000000028,49.333333333333144L227.00000000000028,48.66666666666649L228.00000000000026,47.99999999999983L229.00000000000028,47.333333333333144L230.0000000000003,46.66666666666646L231.0000000000003,45.9999999999998L232.00000000000028,45.333333333333144L233.0000000000003,44.66666666666646L234.00000000000034,43.99999999999977L235.00000000000034,43.333333333333115L236.0000000000003,42.66666666666646L237.00000000000034,41.99999999999977L238.00000000000037,41.33333333333309L239.00000000000037,40.66666666666643L240.00000000000034,39.99999999999977L241.00000000000037,39.33333333333309L242.0000000000004,38.6666666666664L243.00000000000037,37.999999999999744L244.00000000000037,37.33333333333309L245.0000000000004,36.6666666666664L246.00000000000043,35.999999999999716L247.0000000000004,35.33333333333306L248.0000000000004,34.6666666666664L249.00000000000043,33.999999999999716L250.00000000000045,33.33333333333303L251.00000000000043,32.66666666666637L252.00000000000043,31.999999999999716L253.00000000000045,31.33333333333303L254.00000000000048,30.666666666666345L255.00000000000045,29.999999999999687L256.00000000000045,29.33333333333303L257.00000000000045,28.666666666666345L258.0000000000005,27.99999999999966L259.0000000000005,27.333333333333L260.00000000000045,26.666666666666345L261.0000000000005,25.99999999999966L262.0000000000005,25.333333333332973L263.0000000000005,24.666666666666316L264.0000000000005,23.99999999999966L265.0000000000005,23.333333333332973L266.00000000000057,22.666666666666288L267.0000000000005,21.99999999999963L268.0000000000005,21.333333333332973L269.00000000000057,20.666666666666288L270.00000000000057,19.99999999999963L271.00000000000057,19.333333333332945L272.00000000000057,18.666666666666288L273.00000000000057,17.999999999999602L274.0000000000006,17.333333333332945L275.00000000000057,16.666666666666288L276.00000000000057,15.999999999999602L277.0000000000006,15.333333333332945L278.0000000000006,14.66666666666626L279.0000000000006,13.999999999999602L280.0000000000006,13.333333333332916L281.0000000000006,12.66666666666626L282.0000000000006,11.999999999999574L283.0000000000006,11.333333333332916L284.0000000000006,10.66666666666626L285.0000000000006,9.999999999999574L286.0000000000007,9.333333333332888L287.0000000000007,8.66666666666623L288.0000000000007,7.999999999999574L289.0000000000007,7.333333333332888L290.0000000000007,6.6666666666662024L291.0000000000007,5.999999999999545L292.0000000000007,5.333333333332888L293.0000000000007,4.6666666666662024L294.00000000000074,3.999999999999517L295.00000000000074,3.3333333333328596L296.0000000000007,2.6666666666662024L297.00000000000074,1.9999999999995168L298.00000000000074,1.3333333333328312L299.00000000000074,0.666666666666174L300,0" stroke="#1f77b4"></path><svg overflow="visible" data-type="text"><text xml:space="preserve" dominant-baseline="central" font-size="14" font-family="DejaVu Sans Mono" text-anchor="middle"><textPath href="#path-uuid-11" startOffset="50%"></textPath></text></svg></svg><svg overflow="visible" data-type="path"><path id="path-uuid-12" fill="transparent" stroke-width="2" d="M74.00000000000048,0L75.00000000000047,6.252776074688882e-13L76.00000000000047,1.333333333333968L77.00000000000048,2.666666666667311L78.00000000000047,4.000000000000625L79.00000000000045,5.33333333333394L80.00000000000047,6.6666666666672825L81.00000000000047,8.000000000000625L82.00000000000045,9.33333333333394L83.00000000000045,10.666666666667254L84.00000000000045,12.000000000000597L85.00000000000047,13.33333333333394L86.00000000000045,14.666666666667282L87.00000000000044,16.000000000000597L88.00000000000045,17.33333333333394L89.00000000000045,18.666666666667282L90.00000000000044,20.000000000000597L91.00000000000044,21.33333333333391L92.00000000000044,22.666666666667254L93.00000000000045,24.000000000000597L94.00000000000044,25.33333333333391L95.00000000000043,26.666666666667226L96.00000000000044,28.00000000000057L97.00000000000044,29.33333333333391L98.00000000000043,30.666666666667254L99.00000000000043,32.00000000000057L100.00000000000043,33.33333333333391L101.00000000000044,34.666666666667254L102.00000000000043,36.00000000000057L103.00000000000041,37.33333333333388L104.00000000000043,38.666666666667226L105.00000000000043,40.00000000000057L106.00000000000041,41.33333333333388L107.00000000000041,42.6666666666672L108.00000000000041,44.00000000000054L109.00000000000041,45.33333333333388L110.00000000000041,46.6666666666672L111.0000000000004,48.00000000000054L112.0000000000004,49.33333333333388L113.00000000000041,50.666666666667226L114.0000000000004,52.00000000000054L115.0000000000004,53.333333333333854L116.0000000000004,54.6666666666672L117.0000000000004,56.00000000000054L118.0000000000004,57.333333333333854L119.00000000000038,58.66666666666717L120.00000000000038,60.00000000000051L121.0000000000004,61.333333333333854L122.00000000000038,62.66666666666717L123.00000000000037,64.00000000000051L124.00000000000038,65.33333333333385L125.00000000000038,66.6666666666672L126.00000000000038,68.00000000000051L127.00000000000037,69.33333333333383L128.00000000000037,70.66666666666717L129.00000000000037,72.00000000000051L130.00000000000037,73.33333333333383L131.00000000000037,74.66666666666714L132.00000000000037,76.00000000000048L133.00000000000037,77.33333333333383L134.00000000000037,78.66666666666715L135.00000000000037,80.0000000000005L136.00000000000037,81.33333333333384L137.00000000000037,82.66666666666715L138.00000000000037,84.0000000000005L139.00000000000037,85.33333333333384L140.00000000000037,86.66666666666715L141.00000000000037,88.0000000000005L142.00000000000037,89.33333333333383L143.00000000000037,90.66666666666717L144.00000000000037,92.0000000000005L145.00000000000037,93.33333333333383L146.00000000000037,94.66666666666717L147.00000000000037,96.00000000000048L148.00000000000037,97.33333333333383L149.00000000000037,98.66666666666717L150.00000000000037,100.0000000000005L151.00000000000037,101.33333333333383L152.00000000000037,102.66666666666715L153.00000000000037,104.0000000000005L154.00000000000037,105.33333333333384L155.00000000000037,106.66666666666717L156.00000000000037,108.0000000000005L157.00000000000037,109.33333333333383L158.0000000000004,110.66666666666717L159.00000000000037,112.0000000000005L160.00000000000037,113.33333333333383L161.0000000000004,114.66666666666715L162.00000000000037,116.0000000000005L163.00000000000037,117.33333333333384L164.0000000000004,118.66666666666717L165.00000000000037,120.0000000000005L166.00000000000037,121.33333333333383L167.00000000000037,122.66666666666717L168.00000000000037,124.0000000000005L169.00000000000037,125.33333333333383L170.00000000000037,126.66666666666715L171.00000000000034,128.0000000000005L172.00000000000037,129.33333333333383L173.00000000000037,130.66666666666714L174.00000000000034,132.00000000000048L175.00000000000037,133.33333333333383L176.00000000000037,134.66666666666714L177.00000000000037,136.00000000000048L178.00000000000034,137.3333333333338L179.00000000000034,138.66666666666714L180.00000000000037,140.00000000000045L181.00000000000034,141.3333333333338L182.00000000000034,142.66666666666714L183.00000000000037,144.00000000000045L184.00000000000034,145.3333333333338L185.00000000000034,146.66666666666714L186.00000000000034,148.00000000000045L187.0000000000003,149.33333333333377L188.00000000000034,150.6666666666671L189.00000000000034,152.00000000000045L190.0000000000003,153.33333333333377L191.00000000000034,154.6666666666671L192.00000000000034,156.00000000000045L193.00000000000034,157.33333333333377L194.0000000000003,158.66666666666708L195.0000000000003,160.00000000000043L196.00000000000034,161.33333333333377L197.0000000000003,162.66666666666708L198.0000000000003,164.00000000000043L199.00000000000034,165.33333333333377L200.0000000000003,166.66666666666708L201.0000000000003,168.00000000000043L202.0000000000003,169.33333333333374L203.00000000000028,170.66666666666708L204.0000000000003,172.0000000000004L205.0000000000003,173.33333333333374L206.00000000000028,174.66666666666708L207.0000000000003,176.0000000000004L208.0000000000003,177.33333333333374L209.00000000000028,178.66666666666706L210.00000000000028,180.0000000000004L211.00000000000028,181.3333333333337L212.0000000000003,182.66666666666706L213.00000000000028,184.0000000000004L214.00000000000028,185.3333333333337L215.0000000000003,186.66666666666706L216.00000000000028,188.00000000000037L217.00000000000028,189.3333333333337L218.00000000000028,190.66666666666703L219.00000000000026,192.00000000000037L220.00000000000028,193.3333333333337L221.00000000000028,194.66666666666703L222.00000000000026,196.00000000000037L223.00000000000028,197.33333333333368L224.00000000000028,198.66666666666703L225.00000000000026,200" stroke="#2ca02c"></path><svg overflow="visible" data-type="text"><text xml:space="preserve" dominant-baseline="central" font-size="14" font-family="DejaVu Sans Mono" text-anchor="middle"><textPath href="#path-uuid-12" startOffset="50%"></textPath></text></svg></svg><svg overflow="visible" data-type="path"><path id="path-uuid-13" fill="transparent" stroke-width="2" d="M0,100L1.0000000000000064,100L2.000000000000013,100L3.0000000000000195,100L4.000000000000026,100L5.000000000000032,100L6.000000000000039,100L7.000000000000045,100L8.000000000000052,100L9.000000000000059,100L10.000000000000064,100L11.000000000000071,100L12.000000000000078,100L13.000000000000083,100L14.00000000000009,100L15.000000000000096,100L16.000000000000103,100L17.00000000000011,100L18.000000000000117,100L19.00000000000012,100L20.000000000000128,100L21.000000000000135,100L22.000000000000142,100L23.00000000000015,100L24.000000000000156,100L25.00000000000016,100L26.000000000000167,100L27.000000000000174,100L28.00000000000018,100L29.00000000000019,100L30.000000000000192,100L31.0000000000002,100L32.000000000000206,100L33.00000000000021,100L34.00000000000022,100L35.00000000000023,100L36.000000000000234,100L37.00000000000024,100L38.00000000000024,100L39.00000000000025,100L40.000000000000256,100L41.00000000000026,100L42.00000000000027,100L43.00000000000028,100L44.000000000000284,100L45.00000000000029,100L46.0000000000003,100L47.000000000000306,100L48.00000000000031,100L49.00000000000031,100L50.00000000000032,100L51.00000000000033,100L52.000000000000334,100L53.00000000000034,100L54.00000000000035,100L55.000000000000355,100L56.00000000000036,100L57.00000000000037,100L58.00000000000038,100L59.00000000000038,100L60.000000000000384,100L61.00000000000039,100L62.0000000000004,100L63.000000000000405,100L64.00000000000041,100L65.00000000000041,100L66.00000000000043,100L67.00000000000043,100L68.00000000000044,100L69.00000000000044,100L70.00000000000045,100L71.00000000000045,100L72.00000000000047,100L73.00000000000047,100L74.00000000000048,100L75.00000000000047,100L76.00000000000047,100L77.00000000000048,100L78.00000000000047,100L79.00000000000045,100L80.00000000000047,100L81.00000000000047,100L82.00000000000045,100L83.00000000000045,100L84.00000000000045,100L85.00000000000047,100L86.00000000000045,100L87.00000000000044,100L88.00000000000045,100L89.00000000000045,100L90.00000000000044,100L91.00000000000044,100L92.00000000000044,100L93.00000000000045,100L94.00000000000044,100L95.00000000000043,100L96.00000000000044,100L97.00000000000044,100L98.00000000000043,100L99.00000000000043,100L100.00000000000043,100L101.00000000000044,100L102.00000000000043,100L103.00000000000041,100L104.00000000000043,100L105.00000000000043,100L106.00000000000041,100L107.00000000000041,100L108.00000000000041,100L109.00000000000041,100L110.00000000000041,100L111.0000000000004,100L112.0000000000004,100L113.00000000000041,100L114.0000000000004,100L115.0000000000004,100L116.0000000000004,100L117.0000000000004,100L118.0000000000004,100L119.00000000000038,100L120.00000000000038,100L121.0000000000004,100L122.00000000000038,100L123.00000000000037,100L124.00000000000038,100L125.00000000000038,100L126.00000000000038,100L127.00000000000037,100L128.00000000000037,100L129.00000000000037,100L130.00000000000037,100L131.00000000000037,100L132.00000000000037,100L133.00000000000037,100L134.00000000000037,100L135.00000000000037,100L136.00000000000037,100L137.00000000000037,100L138.00000000000037,100L139.00000000000037,100L140.00000000000037,100L141.00000000000037,100L142.00000000000037,100L143.00000000000037,100L144.00000000000037,100L145.00000000000037,100L146.00000000000037,100L147.00000000000037,100L148.00000000000037,100L149.00000000000037,100L150.00000000000037,100L151.00000000000037,100L152.00000000000037,100L153.00000000000037,100L154.00000000000037,100L155.00000000000037,100L156.00000000000037,100L157.00000000000037,100L158.0000000000004,100L159.00000000000037,100L160.00000000000037,100L161.0000000000004,100L162.00000000000037,100L163.00000000000037,100L164.0000000000004,100L165.00000000000037,100L166.00000000000037,100L167.00000000000037,100L168.00000000000037,100L169.00000000000037,100L170.00000000000037,100L171.00000000000034,100L172.00000000000037,100L173.00000000000037,100L174.00000000000034,100L175.00000000000037,100L176.00000000000037,100L177.00000000000037,100L178.00000000000034,100L179.00000000000034,100L180.00000000000037,100L181.00000000000034,100L182.00000000000034,100L183.00000000000037,100L184.00000000000034,100L185.00000000000034,100L186.00000000000034,100L187.0000000000003,100L188.00000000000034,100L189.00000000000034,100L190.0000000000003,100L191.00000000000034,100L192.00000000000034,100L193.00000000000034,100L194.0000000000003,100L195.0000000000003,100L196.00000000000034,100L197.0000000000003,100L198.0000000000003,100L199.00000000000034,100L200.0000000000003,100L201.0000000000003,100L202.0000000000003,100L203.00000000000028,100L204.0000000000003,100L205.0000000000003,100L206.00000000000028,100L207.0000000000003,100L208.0000000000003,100L209.00000000000028,100L210.00000000000028,100L211.00000000000028,100L212.0000000000003,100L213.00000000000028,100L214.00000000000028,100L215.0000000000003,100L216.00000000000028,100L217.00000000000028,100L218.00000000000028,100L219.00000000000026,100L220.00000000000028,100L221.00000000000028,100L222.00000000000026,100L223.00000000000028,100L224.00000000000028,100L225.00000000000026,100L226.00000000000028,100L227.00000000000028,100L228.00000000000026,100L229.00000000000028,100L230.0000000000003,100L231.0000000000003,100L232.00000000000028,100L233.0000000000003,100L234.00000000000034,100L235.00000000000034,100L236.0000000000003,100L237.00000000000034,100L238.00000000000037,100L239.00000000000037,100L240.00000000000034,100L241.00000000000037,100L242.0000000000004,100L243.00000000000037,100L244.00000000000037,100L245.0000000000004,100L246.00000000000043,100L247.0000000000004,100L248.0000000000004,100L249.00000000000043,100L250.00000000000045,100L251.00000000000043,100L252.00000000000043,100L253.00000000000045,100L254.00000000000048,100L255.00000000000045,100L256.00000000000045,100L257.00000000000045,100L258.0000000000005,100L259.0000000000005,100L260.00000000000045,100L261.0000000000005,100L262.0000000000005,100L263.0000000000005,100L264.0000000000005,100L265.0000000000005,100L266.00000000000057,100L267.0000000000005,100L268.0000000000005,100L269.00000000000057,100L270.00000000000057,100L271.00000000000057,100L272.00000000000057,100L273.00000000000057,100L274.0000000000006,100L275.00000000000057,100L276.00000000000057,100L277.0000000000006,100L278.0000000000006,100L279.0000000000006,100L280.0000000000006,100L281.0000000000006,100L282.0000000000006,100L283.0000000000006,100L284.0000000000006,100L285.0000000000006,100L286.0000000000007,100L287.0000000000007,100L288.0000000000007,100L289.0000000000007,100L290.0000000000007,100L291.0000000000007,100L292.0000000000007,100L293.0000000000007,100L294.00000000000074,100L295.00000000000074,100L296.0000000000007,100L297.00000000000074,100L298.00000000000074,100L299.00000000000074,100L300,100" stroke="#d62728"></path><svg overflow="visible" data-type="text"><text xml:space="preserve" dominant-baseline="central" font-size="14" font-family="DejaVu Sans Mono" text-anchor="middle"><textPath href="#path-uuid-13" startOffset="50%"></textPath></text></svg></svg><svg overflow="visible" data-type="frame" y="10" x="330"><g><svg overflow="visible"><svg overflow="visible" data-type="path" y="8" x="0"><path id="path-uuid-11" fill="transparent" stroke-width="2" d="M 0 0 8 0" stroke="#1f77b4"></path><svg overflow="visible" data-type="text"><text xml:space="preserve" dominant-baseline="central" font-size="14" font-family="DejaVu Sans Mono" text-anchor="middle"><textPath href="#path-uuid-11" startOffset="50%"></textPath></text></svg></svg><svg overflow="visible" data-type="text" y="0" x="28"><text xml:space="preserve" dominant-baseline="text-before-edge" font-size="14" font-family="DejaVu Sans Mono">w1 = 1, w2 =  1</text></svg><svg overflow="visible" data-type="path" y="24" x="0"><path id="path-uuid-12" fill="transparent" stroke-width="2" d="M 0 0 8 0" stroke="#2ca02c"></path><svg overflow="visible" data-type="text"><text xml:space="preserve" dominant-baseline="central" font-size="14" font-family="DejaVu Sans Mono" text-anchor="middle"><textPath href="#path-uuid-12" startOffset="50%"></textPath></text></svg></svg><svg overflow="visible" data-type="text" y="16" x="28"><text xml:space="preserve" dominant-baseline="text-before-edge" font-size="14" font-family="DejaVu Sans Mono">w1 = 2, w2 = -1</text></svg><svg overflow="visible" data-type="path" y="40" x="0"><path id="path-uuid-13" fill="transparent" stroke-width="2" d="M 0 0 8 0" stroke="#d62728"></path><svg overflow="visible" data-type="text"><text xml:space="preserve" dominant-baseline="central" font-size="14" font-family="DejaVu Sans Mono" text-anchor="middle"><textPath href="#path-uuid-13" startOffset="50%"></textPath></text></svg></svg><svg overflow="visible" data-type="text" y="32" x="28"><text xml:space="preserve" dominant-baseline="text-before-edge" font-size="14" font-family="DejaVu Sans Mono">w1 = 0, w2 = -1</text></svg></svg></g><rect fill="transparent" stroke="#c7c7c7" stroke-width="2" x="-10" y="-10" width="174.421875" height="68"></rect></svg></svg></svg>