<svg xmlns="http://www.w3.org/2000/svg" width="502.984375" height="300" viewBox="-82.84375 -18 502.984375 300"><svg overflow="visible"><svg overflow="visible" class="grid"><svg overflow="visible" data-type="path" class="tick tick-x"><path id="path-uuid-1" fill="transparent" stroke-width="2" d="M 0 200 0 0" stroke="#eee"></path><svg overflow="visible" data-type="text"><text xml:space="preserve" dominant-baseline="central" font-size="14" font-family="DejaVu Sans Mono" text-anchor="middle"><textPath href="#path-uuid-1" startOffset="50%"></textPath></text></svg></svg><svg overflow="visible" data-type="path" class="tick tick-x"><path id="path-uuid-3" fill="transparent" stroke-width="2" d="M 200 200 200 0" stroke="#eee"></path><svg overflow="visible" data-type="text"><text xml:space="preserve" dominant-baseline="central" font-size="14" font-family="DejaVu Sans Mono" text-anchor="middle"><textPath href="#path-uuid-3" startOffset="50%"></textPath></text></svg></svg><svg overflow="visible" data-type="path" class="tick tick-x"><path id="path-uuid-4" fill="transparent" stroke-width="2" d="M 300 200 300 0" stroke="#eee"></path><svg overflow="visible" data-type="text"><text xml:space="preserve" dominant-baseline="central" font-size="14" font-family="DejaVu Sans Mono" text-anchor="middle"><textPath href="#path-uuid-4" startOffset="50%"></textPath></text></svg></svg><svg overflow="visible" data-type="path" class="tick tick-y"><path id="path-uuid-5" fill="transparent" stroke-width="2" d="M 0 200 300 200" stroke="#eee"></path><svg overflow="visible" data-type="text"><text xml:space="preserve" dominant-baseline="central" font-size="14" font-family="DejaVu Sans Mono" text-anchor="middle"><textPath href="#path-uuid-5" startOffset="50%"></textPath></text></svg></svg><svg overflow="visible" data-type="path" class="tick tick-y"><path id="path-uuid-7" fill="transparent" stroke-width="2" d="M 0 66.66666666666669 300 66.66666666666669" stroke="#eee"></path><svg overflow="visible" data-type="text"><text xml:space="preserve" dominant-baseline="central" font-size="14" font-family="DejaVu Sans Mono" text-anchor="middle"><textPath href="#path-uuid-7" startOffset="50%"></textPath></text></svg></svg><svg overflow="visible" data-type="path" class="tick tick-y"><path id="path-uuid-8" fill="transparent" stroke-width="2" d="M 0 0 300 0" stroke="#eee"></path><svg overflow="visible" data-type="text"><text xml:space="preserve" dominant-baseline="central" font-size="14" font-family="DejaVu Sans Mono" text-anchor="middle"><textPath href="#path-uuid-8" startOffset="50%"></textPath></text></svg></svg><svg overflow="visible" data-type="path" class="tick tick-x"><path id="path-uuid-2" fill="transparent" stroke-width="2" d="M 100 200 100 0" stroke="#111111"></path><svg overflow="visible" data-type="text"><text xml:space="preserve" dominant-baseline="central" font-size="14" font-family="DejaVu Sans Mono" text-anchor="middle"><textPath href="#path-uuid-2" startOffset="50%"></textPath></text></svg></svg><svg overflow="visible" data-type="path" class="tick tick-y"><path id="path-uuid-6" fill="transparent" stroke-width="2" d="M 0 133.33333333333334 300 133.33333333333334" stroke="#111111"></path><svg overflow="visible" data-type="text"><text xml:space="preserve" dominant-baseline="central" font-size="14" font-family="DejaVu Sans Mono" text-anchor="middle"><textPath href="#path-uuid-6" startOffset="50%"></textPath></text></svg></svg></svg><svg overflow="visible" class="axis axis-x" y="220"><svg overflow="visible" data-type="text" class="tick-label tick-label-x" x="-8.421875"><text xml:space="preserve" dominant-baseline="text-before-edge" font-size="14" font-family="DejaVu Sans Mono">-1</text></svg><svg overflow="visible" data-type="text" class="tick-label tick-label-x" x="95.7890625"><text xml:space="preserve" dominant-baseline="text-before-edge" font-size="14" font-family="DejaVu Sans Mono">0</text></svg><svg overflow="visible" data-type="text" class="tick-label tick-label-x" x="195.7890625"><text xml:space="preserve" dominant-baseline="text-before-edge" font-size="14" font-family="DejaVu Sans Mono">1</text></svg><svg overflow="visible" data-type="text" class="tick-label tick-label-x" x="295.7890625"><text xml:space="preserve" dominant-baseline="text-before-edge" font-size="14" font-family="DejaVu Sans Mono">2</text></svg></svg><svg overflow="visible" class="axis axis-y" x="-36.84375"><svg overflow="visible" data-type="text" class="tick-label tick-label-y" y="192" x="0"><text xml:space="preserve" dominant-baseline="text-before-edge" font-size="14" font-family="DejaVu Sans Mono">-1</text></svg><svg overflow="visible" data-type="text" class="tick-label tick-label-y" y="125.33333333333334" x="4.2109375"><text xml:space="preserve" dominant-baseline="text-before-edge" font-size="14" font-family="DejaVu Sans Mono">0</text></svg><svg overflow="visible" data-type="text" class="tick-label tick-label-y" y="58.666666666666686" x="4.2109375"><text xml:space="preserve" dominant-baseline="text-before-edge" font-size="14" font-family="DejaVu Sans Mono">1</text></svg><svg overflow="visible" data-type="text" class="tick-label tick-label-y" y="-8" x="4.2109375"><text xml:space="preserve" dominant-baseline="text-before-edge" font-size="14" font-family="DejaVu Sans Mono">2</text></svg></svg><svg overflow="visible" data-type="frame" y="256" x="86.7890625"><g><svg overflow="visible" data-type="text"><text xml:space="preserve" dominant-baseline="text-before-edge" font-size="14" font-family="DejaVu Sans Mono">pixel value (x)</text></svg></g></svg><svg overflow="visible" data-type="frame" x="-72.84374999999999" y="142.140625"><g data-rotate="270" transform="rotate(270)"><svg overflow="visible" data-type="text"><text xml:space="preserve" dominant-baseline="text-before-edge" font-size="14" font-family="DejaVu Sans Mono">output (y)</text></svg></g></svg><svg overflow="visible" data-type="path"><path id="path-uuid-11" fill="transparent" stroke-width="2" d="M0,200L1.0000000000000009,199.33333333333334L2.0000000000000018,198.66666666666666L3.0000000000000027,198L4.0000000000000036,197.33333333333334L5.000000000000004,196.66666666666666L6.000000000000005,196L7.000000000000006,195.33333333333331L8.000000000000007,194.66666666666666L9.000000000000007,194L10.000000000000009,193.33333333333331L11.00000000000001,192.66666666666666L12.00000000000001,192L13.00000000000001,191.33333333333331L14.000000000000012,190.66666666666666L15.000000000000014,190L16.000000000000014,189.33333333333331L17.000000000000014,188.66666666666666L18.000000000000014,188L19.000000000000018,187.33333333333331L20.000000000000018,186.66666666666666L21.000000000000018,186L22.00000000000002,185.33333333333331L23.000000000000018,184.66666666666666L24.00000000000002,184L25.000000000000025,183.33333333333331L26.00000000000002,182.66666666666666L27.000000000000025,182L28.000000000000025,181.33333333333331L29.000000000000025,180.66666666666666L30.00000000000003,179.99999999999997L31.00000000000003,179.33333333333331L32.00000000000003,178.66666666666666L33.00000000000003,177.99999999999997L34.00000000000003,177.33333333333331L35.00000000000003,176.66666666666666L36.00000000000003,175.99999999999997L37.000000000000036,175.33333333333331L38.000000000000036,174.66666666666663L39.000000000000036,173.99999999999997L40.000000000000036,173.33333333333331L41.00000000000004,172.66666666666663L42.000000000000036,171.99999999999997L43.000000000000036,171.33333333333331L44.00000000000004,170.66666666666663L45.00000000000004,169.99999999999997L46.000000000000036,169.33333333333331L47.00000000000004,168.66666666666663L48.00000000000004,167.99999999999997L49.00000000000004,167.33333333333331L50.00000000000005,166.66666666666663L51.00000000000004,165.99999999999997L52.00000000000004,165.33333333333331L53.00000000000005,164.66666666666663L54.00000000000005,163.99999999999997L55.00000000000004,163.33333333333331L56.00000000000005,162.66666666666663L57.00000000000005,161.99999999999997L58.00000000000005,161.33333333333331L59.00000000000006,160.66666666666663L60.00000000000006,159.99999999999997L61.00000000000005,159.33333333333331L62.00000000000006,158.66666666666663L63.00000000000006,157.99999999999997L64.00000000000006,157.33333333333331L65.00000000000006,156.66666666666663L66.00000000000006,155.99999999999994L67.00000000000006,155.3333333333333L68.00000000000006,154.66666666666663L69.00000000000006,153.99999999999994L70.00000000000006,153.3333333333333L71.00000000000007,152.66666666666663L72.00000000000006,151.99999999999994L73.00000000000006,151.3333333333333L74.00000000000007,150.66666666666663L75.00000000000007,149.99999999999994L76.00000000000007,149.3333333333333L77.00000000000006,148.66666666666663L78.00000000000007,147.99999999999994L79.00000000000007,147.3333333333333L80.00000000000007,146.66666666666663L81.00000000000007,145.99999999999994L82.00000000000009,145.3333333333333L83.00000000000007,144.66666666666663L84.00000000000007,143.99999999999994L85.00000000000009,143.3333333333333L86.00000000000007,142.66666666666663L87.00000000000007,141.99999999999994L88.00000000000009,141.3333333333333L89.00000000000007,140.66666666666663L90.00000000000009,139.99999999999994L91.00000000000009,139.3333333333333L92.00000000000007,138.66666666666663L93.00000000000007,137.99999999999994L94.00000000000007,137.3333333333333L95.00000000000009,136.66666666666663L96.00000000000007,135.99999999999994L97.00000000000007,135.3333333333333L98.00000000000009,134.66666666666663L99.00000000000007,133.99999999999994L100.00000000000006,133.3333333333333L101.00000000000007,132.66666666666663L102.00000000000007,131.99999999999994L103.00000000000006,131.3333333333333L104.00000000000007,130.66666666666663L105.00000000000007,129.99999999999994L106.00000000000007,129.3333333333333L107.00000000000007,128.66666666666663L108.00000000000009,127.99999999999994L109.00000000000007,127.33333333333329L110.00000000000007,126.66666666666661L111.00000000000009,125.99999999999994L112.00000000000007,125.33333333333329L113.00000000000009,124.66666666666661L114.00000000000009,123.99999999999994L115.00000000000007,123.33333333333329L116.00000000000009,122.66666666666661L117.00000000000009,121.99999999999994L118.00000000000007,121.33333333333329L119.00000000000009,120.66666666666661L120.00000000000009,119.99999999999994L121.00000000000009,119.33333333333329L122.00000000000009,118.66666666666661L123.0000000000001,117.99999999999994L124.00000000000009,117.33333333333327L125.00000000000009,116.6666666666666L126.0000000000001,115.99999999999994L127.00000000000009,115.33333333333327L128.00000000000009,114.6666666666666L129.00000000000009,113.99999999999993L130.00000000000009,113.33333333333327L131.00000000000009,112.6666666666666L132.0000000000001,111.99999999999993L133.00000000000009,111.33333333333327L134.00000000000009,110.6666666666666L135.0000000000001,109.99999999999993L136.00000000000009,109.33333333333327L137.0000000000001,108.6666666666666L138.0000000000001,107.99999999999993L139.00000000000009,107.33333333333327L140.0000000000001,106.6666666666666L141.0000000000001,105.99999999999993L142.00000000000009,105.33333333333327L143.0000000000001,104.6666666666666L144.0000000000001,103.99999999999993L145.0000000000001,103.33333333333327L146.0000000000001,102.6666666666666L147.0000000000001,101.99999999999993L148.0000000000001,101.33333333333326L149.0000000000001,100.6666666666666L150.0000000000001,99.99999999999993L151.0000000000001,99.33333333333326L152.00000000000009,98.66666666666661L153.0000000000001,97.99999999999993L154.00000000000009,97.33333333333327L155.0000000000001,96.66666666666659L156.0000000000001,95.99999999999993L157.00000000000014,95.33333333333324L158.00000000000009,94.66666666666661L159.0000000000001,93.99999999999993L160.00000000000009,93.33333333333327L161.0000000000001,92.66666666666659L162.0000000000001,91.99999999999993L163.00000000000014,91.33333333333324L164.00000000000009,90.6666666666666L165.0000000000001,89.99999999999993L166.0000000000001,89.33333333333326L167.0000000000001,88.66666666666659L168.0000000000001,87.99999999999993L169.00000000000014,87.33333333333324L170.00000000000009,86.6666666666666L171.0000000000001,85.99999999999991L172.0000000000001,85.33333333333326L173.00000000000014,84.66666666666657L174.0000000000001,83.99999999999991L175.00000000000014,83.33333333333324L176.0000000000001,82.6666666666666L177.0000000000001,81.99999999999991L178.0000000000001,81.33333333333326L179.00000000000014,80.66666666666657L180.0000000000001,79.99999999999991L181.00000000000014,79.33333333333323L182.0000000000001,78.6666666666666L183.00000000000014,77.99999999999991L184.0000000000001,77.33333333333326L185.00000000000014,76.66666666666657L186.00000000000014,75.99999999999991L187.00000000000014,75.33333333333323L188.0000000000001,74.66666666666659L189.00000000000014,73.99999999999991L190.0000000000001,73.33333333333326L191.00000000000014,72.66666666666657L192.00000000000014,71.99999999999991L193.00000000000017,71.33333333333323L194.0000000000001,70.6666666666666L195.00000000000014,69.99999999999991L196.00000000000014,69.33333333333326L197.00000000000014,68.66666666666657L198.00000000000014,67.99999999999991L199.00000000000017,67.33333333333323L200.0000000000001,66.66666666666657L201.00000000000014,65.99999999999991L202.00000000000014,65.33333333333326L203.0000000000001,64.66666666666657L204.00000000000014,63.999999999999915L205.00000000000017,63.33333333333323L206.0000000000001,62.66666666666657L207.0000000000001,61.999999999999915L208.00000000000014,61.33333333333323L209.00000000000017,60.66666666666657L210.00000000000014,59.999999999999886L211.0000000000001,59.33333333333326L212.00000000000014,58.66666666666657L213.00000000000014,57.999999999999886L214.00000000000014,57.33333333333323L215.00000000000014,56.66666666666657L216.00000000000017,55.999999999999886L217.00000000000017,55.3333333333332L218.00000000000014,54.66666666666657L219.0000000000001,53.999999999999915L220.00000000000014,53.33333333333323L221.00000000000017,52.66666666666654L222.00000000000017,51.999999999999886L223.0000000000001,51.33333333333326L224.00000000000014,50.66666666666657L225.00000000000017,49.999999999999886L226.00000000000017,49.33333333333323L227.00000000000014,48.66666666666657L228.00000000000017,47.999999999999886L229.0000000000002,47.3333333333332L230.00000000000014,46.66666666666657L231.00000000000014,45.999999999999915L232.00000000000017,45.33333333333323L233.00000000000017,44.66666666666654L234.00000000000017,43.999999999999886L235.00000000000014,43.33333333333326L236.00000000000014,42.66666666666657L237.00000000000017,41.999999999999886L238.00000000000017,41.33333333333323L239.00000000000017,40.66666666666657L240.00000000000017,39.999999999999886L241.0000000000002,39.3333333333332L242.00000000000017,38.66666666666657L243.00000000000014,37.999999999999886L244.00000000000017,37.33333333333323L245.0000000000002,36.66666666666654L246.0000000000002,35.999999999999886L247.00000000000014,35.33333333333323L248.00000000000017,34.66666666666654L249.0000000000002,33.999999999999886L250.00000000000017,33.3333333333332L251.00000000000017,32.66666666666654L252.0000000000002,31.999999999999886L253.00000000000023,31.3333333333332L254.00000000000017,30.666666666666544L255.00000000000017,29.999999999999886L256.00000000000017,29.3333333333332L257.0000000000002,28.666666666666515L258.00000000000017,27.999999999999858L259.00000000000017,27.33333333333323L260.00000000000017,26.666666666666544L261.00000000000017,25.999999999999858L262.00000000000017,25.3333333333332L263.00000000000017,24.666666666666544L264.0000000000002,23.999999999999858L265.0000000000002,23.333333333333172L266.00000000000017,22.666666666666544L267.00000000000017,21.999999999999886L268.00000000000017,21.3333333333332L269.0000000000002,20.666666666666515L270.0000000000002,19.999999999999858L271.00000000000017,19.33333333333323L272.00000000000017,18.666666666666544L273.0000000000002,17.999999999999858L274.0000000000002,17.3333333333332L275.00000000000017,16.666666666666544L276.0000000000002,15.999999999999858L277.0000000000002,15.333333333333172L278.00000000000017,14.666666666666544L279.00000000000017,13.999999999999886L280.0000000000002,13.3333333333332L281.0000000000002,12.666666666666515L282.0000000000002,11.999999999999858L283.00000000000017,11.33333333333323L284.00000000000017,10.666666666666544L285.0000000000002,9.999999999999858L286.0000000000002,9.3333333333332L287.0000000000002,8.666666666666544L288.0000000000002,7.999999999999858L289.0000000000002,7.333333333333172L290.0000000000002,6.6666666666665435L291.00000000000017,5.999999999999886L292.0000000000002,5.333333333333201L293.0000000000002,4.666666666666515L294.0000000000002,3.999999999999858L295.00000000000017,3.3333333333332007L296.0000000000002,2.666666666666515L297.0000000000002,1.999999999999858L298.0000000000002,1.3333333333332007L299.0000000000002,0.6666666666665151L300,0" stroke="#1f77b4"></path><svg overflow="visible" data-type="text"><text xml:space="preserve" dominant-baseline="central" font-size="14" font-family="DejaVu Sans Mono" text-anchor="middle"><textPath href="#path-uuid-11" startOffset="50%"></textPath></text></svg></svg><svg overflow="visible" data-type="frame" y="10" x="330"><g><svg overflow="visible"><svg overflow="visible" data-type="path" y="8" x="0"><path id="path-uuid-11" fill="transparent" stroke-width="2" d="M 0 0 8 0" stroke="#1f77b4"></path><svg overflow="visible" data-type="text"><text xml:space="preserve" dominant-baseline="central" font-size="14" font-family="DejaVu Sans Mono" text-anchor="middle"><textPath href="#path-uuid-11" startOffset="50%"></textPath></text></svg></svg><svg overflow="visible" data-type="text" y="0" x="28"><text xml:space="preserve" dominant-baseline="text-before-edge" font-size="14" font-family="DejaVu Sans Mono">w = 1</text></svg></svg></g><rect fill="transparent" stroke="#c7c7c7" stroke-width="2" x="-10" y="-10" width="90.140625" height="36"></rect></svg><svg overflow="visible" data-type="circle" x="96" y="129.33333333333334"><circle stroke-width="2" r="4" cx="4" cy="4" fill="#aec7e8" stroke="#1f77b4"></circle><svg overflow="visible" data-type="text" x="4" y="4"><text xml:space="preserve" dominant-baseline="central" font-size="14" font-family="DejaVu Sans Mono" text-anchor="middle" fill="#1f77b4" stroke="transparent"></text></svg></svg><svg overflow="visible" data-type="circle" x="196" y="62.666666666666686"><circle stroke-width="2" r="4" cx="4" cy="4" fill="#aec7e8" stroke="#1f77b4"></circle><svg overflow="visible" data-type="text" x="4" y="4"><text xml:space="preserve" dominant-baseline="central" font-size="14" font-family="DejaVu Sans Mono" text-anchor="middle" fill="#1f77b4" stroke="transparent"></text></svg></svg></svg></svg>