<svg xmlns="http://www.w3.org/2000/svg" width="482.359375" height="132" viewBox="-10 -10 482.359375 132"><svg overflow="visible" data-type="rect" y="36" x="0"><rect stroke-width="2" width="40" height="40" fill="#333333" stroke="#111111"></rect><svg overflow="visible" data-type="text" x="20" y="20"><text xml:space="preserve" dominant-baseline="central" font-size="14" font-family="DejaVu Sans Mono" text-anchor="middle" fill="#ffffff" stroke="transparent">5</text></svg></svg><svg overflow="visible" data-type="path" y="56" x="60"><path id="path-uuid-1" fill="transparent" stroke-width="2" d="M 0 0 40 0" stroke="#c7c7c7"></path><svg overflow="visible" data-type="text"><text xml:space="preserve" dominant-baseline="central" font-size="14" font-family="DejaVu Sans Mono" text-anchor="middle"><textPath href="#path-uuid-1" startOffset="50%"></textPath></text></svg><g data-x="40" transform="translate(40, 0) rotate(0)" data-y="0" data-rotate="0"><path d="M 0 -2.5 5 0 0 2.5 A 1 2 0 0 0 0 -2.5" fill="#c7c7c7" stroke="#c7c7c7"></path></g></svg><svg overflow="visible" data-type="rect" y="36" x="125"><rect stroke-width="2" width="120" height="40" fill="#c7c7c7" stroke="#7f7f7f"></rect><svg overflow="visible" data-type="text" x="59.9921875" y="20"><text xml:space="preserve" dominant-baseline="central" font-size="14" font-family="DejaVu Sans Mono" text-anchor="middle" fill="#ffffff" stroke="transparent">model</text></svg></svg><svg overflow="visible" y="0" x="265"><svg overflow="visible" y="0" x="0"><svg overflow="visible" data-type="path" y="26" x="0"><path id="path-uuid-2" fill="transparent" stroke-width="2" d="M 0 -18 37.5 -18" stroke="#c7c7c7"></path><svg overflow="visible" data-type="text"><text xml:space="preserve" dominant-baseline="central" font-size="14" font-family="DejaVu Sans Mono" text-anchor="middle"><textPath href="#path-uuid-2" startOffset="50%"></textPath></text></svg><g data-x="37.5" transform="translate(37.5, -18) rotate(0)" data-y="-18" data-rotate="0"><path d="M 0 -2.5 5 0 0 2.5 A 1 2 0 0 0 0 -2.5" fill="#c7c7c7" stroke="#c7c7c7"></path></g></svg><svg overflow="visible" data-type="text" y="0" x="62.5"><text xml:space="preserve" dominant-baseline="text-before-edge" font-size="14" font-family="DejaVu Sans Mono">this is a 0: no</text></svg></svg><svg overflow="visible" y="16" x="0"><svg overflow="visible" data-type="path" y="26" x="0"><path id="path-uuid-3" fill="transparent" stroke-width="2" d="M 0 -18 37.5 -18" stroke="#c7c7c7"></path><svg overflow="visible" data-type="text"><text xml:space="preserve" dominant-baseline="central" font-size="14" font-family="DejaVu Sans Mono" text-anchor="middle"><textPath href="#path-uuid-3" startOffset="50%"></textPath></text></svg><g data-x="37.5" transform="translate(37.5, -18) rotate(0)" data-y="-18" data-rotate="0"><path d="M 0 -2.5 5 0 0 2.5 A 1 2 0 0 0 0 -2.5" fill="#c7c7c7" stroke="#c7c7c7"></path></g></svg><svg overflow="visible" data-type="text" y="0" x="62.5"><text xml:space="preserve" dominant-baseline="text-before-edge" font-size="14" font-family="DejaVu Sans Mono">this is a 1: no</text></svg></svg><svg overflow="visible" y="32" x="0"><svg overflow="visible" data-type="path" y="26" x="0"><path id="path-uuid-4" fill="transparent" stroke-width="2" d="M 0 -18 37.5 -18" stroke="#c7c7c7"></path><svg overflow="visible" data-type="text"><text xml:space="preserve" dominant-baseline="central" font-size="14" font-family="DejaVu Sans Mono" text-anchor="middle"><textPath href="#path-uuid-4" startOffset="50%"></textPath></text></svg><g data-x="37.5" transform="translate(37.5, -18) rotate(0)" data-y="-18" data-rotate="0"><path d="M 0 -2.5 5 0 0 2.5 A 1 2 0 0 0 0 -2.5" fill="#c7c7c7" stroke="#c7c7c7"></path></g></svg><svg overflow="visible" data-type="text" y="0" x="62.5"><text xml:space="preserve" dominant-baseline="text-before-edge" font-size="14" font-family="DejaVu Sans Mono">...</text></svg></svg><svg overflow="visible" y="48" x="0"><svg overflow="visible" data-type="path" y="26" x="0"><path id="path-uuid-5" fill="transparent" stroke-width="2" d="M 0 -18 37.5 -18" stroke="#c7c7c7"></path><svg overflow="visible" data-type="text"><text xml:space="preserve" dominant-baseline="central" font-size="14" font-family="DejaVu Sans Mono" text-anchor="middle"><textPath href="#path-uuid-5" startOffset="50%"></textPath></text></svg><g data-x="37.5" transform="translate(37.5, -18) rotate(0)" data-y="-18" data-rotate="0"><path d="M 0 -2.5 5 0 0 2.5 A 1 2 0 0 0 0 -2.5" fill="#c7c7c7" stroke="#c7c7c7"></path></g></svg><svg overflow="visible" data-type="text" y="0" x="62.5"><text xml:space="preserve" dominant-baseline="text-before-edge" font-size="14" font-family="DejaVu Sans Mono">this is a 5: yes</text></svg></svg><svg overflow="visible" y="64" x="0"><svg overflow="visible" data-type="path" y="26" x="0"><path id="path-uuid-6" fill="transparent" stroke-width="2" d="M 0 -18 37.5 -18" stroke="#c7c7c7"></path><svg overflow="visible" data-type="text"><text xml:space="preserve" dominant-baseline="central" font-size="14" font-family="DejaVu Sans Mono" text-anchor="middle"><textPath href="#path-uuid-6" startOffset="50%"></textPath></text></svg><g data-x="37.5" transform="translate(37.5, -18) rotate(0)" data-y="-18" data-rotate="0"><path d="M 0 -2.5 5 0 0 2.5 A 1 2 0 0 0 0 -2.5" fill="#c7c7c7" stroke="#c7c7c7"></path></g></svg><svg overflow="visible" data-type="text" y="0" x="62.5"><text xml:space="preserve" dominant-baseline="text-before-edge" font-size="14" font-family="DejaVu Sans Mono">...</text></svg></svg><svg overflow="visible" y="80" x="0"><svg overflow="visible" data-type="path" y="26" x="0"><path id="path-uuid-7" fill="transparent" stroke-width="2" d="M 0 -18 37.5 -18" stroke="#c7c7c7"></path><svg overflow="visible" data-type="text"><text xml:space="preserve" dominant-baseline="central" font-size="14" font-family="DejaVu Sans Mono" text-anchor="middle"><textPath href="#path-uuid-7" startOffset="50%"></textPath></text></svg><g data-x="37.5" transform="translate(37.5, -18) rotate(0)" data-y="-18" data-rotate="0"><path d="M 0 -2.5 5 0 0 2.5 A 1 2 0 0 0 0 -2.5" fill="#c7c7c7" stroke="#c7c7c7"></path></g></svg><svg overflow="visible" data-type="text" y="0" x="62.5"><text xml:space="preserve" dominant-baseline="text-before-edge" font-size="14" font-family="DejaVu Sans Mono">this is a 8: no</text></svg></svg><svg overflow="visible" y="96" x="0"><svg overflow="visible" data-type="path" y="26" x="0"><path id="path-uuid-8" fill="transparent" stroke-width="2" d="M 0 -18 37.5 -18" stroke="#c7c7c7"></path><svg overflow="visible" data-type="text"><text xml:space="preserve" dominant-baseline="central" font-size="14" font-family="DejaVu Sans Mono" text-anchor="middle"><textPath href="#path-uuid-8" startOffset="50%"></textPath></text></svg><g data-x="37.5" transform="translate(37.5, -18) rotate(0)" data-y="-18" data-rotate="0"><path d="M 0 -2.5 5 0 0 2.5 A 1 2 0 0 0 0 -2.5" fill="#c7c7c7" stroke="#c7c7c7"></path></g></svg><svg overflow="visible" data-type="text" y="0" x="62.5"><text xml:space="preserve" dominant-baseline="text-before-edge" font-size="14" font-family="DejaVu Sans Mono">this is a 9: no</text></svg></svg></svg></svg>