<svg xmlns="http://www.w3.org/2000/svg" width="512.1264038085938" height="72" viewBox="-10 -10 512.1264038085938 72"><svg overflow="visible" data-type="path" y="13.436594843864441" x="0.00039505958557128906"><path id="path-uuid-1" fill="transparent" stroke-width="2" d="M20.578,12.791c-1.662,1.147-2.8,1.285-2.8,1.285s0.043-5.14-2.932-6.333 C11.872,6.551,6.098,4.072,5.922,1.87c0,0-1.268,2.708,0.219,4.589C6.751,7.23,7.374,7.769,7.9,8.137 c0.312,0.177,0.703,0.291,1.019,0.35c4.389,0.799,3.978,3.295,3.978,3.295s0.058-1.051-1.517-2.187 c-0.401-0.288-1.034-0.61-2.21-0.746C8.368,8.752,6.828,9.095,4.916,8.753c-2.057-0.367-4.332-1.79-4.332-1.79 S0.234,9.349,2.99,11.14c2.757,1.789,2.514,1.251,5.082,4.599c0.403,0.525,2.198,1.583,2.198,1.583s-5.354,1.252-7.28,1.572 c-1.925,0.322-4.243,1.148-2.188,2.708c2.057,1.561,2.275,1.836,4.244,1.561s3.588-2.569,4.987-2.616c0,0,5.645,0.459,7.438,0.047 c1.794-0.413,3.894-1.056,4.419-4.772c0,0,0.219-1.515,1.662-1.652c1.42-0.135,1.57-0.447,1.574-0.458 c-0.006,0-0.082-0.031-0.786-0.46C23.51,12.745,22.24,11.643,20.578,12.791z" stroke="#c7c7c7"></path><svg overflow="visible" data-type="text"><text xml:space="preserve" dominant-baseline="central" font-size="14" font-family="DejaVu Sans Mono" text-anchor="middle"><textPath href="#path-uuid-1" startOffset="50%"></textPath></text></svg></svg><svg overflow="visible" data-type="path" y="26" x="45.12639617919922"><path id="path-uuid-2" fill="transparent" stroke-width="2" d="M 0 0 40 0" stroke="#c7c7c7"></path><svg overflow="visible" data-type="text"><text xml:space="preserve" dominant-baseline="central" font-size="14" font-family="DejaVu Sans Mono" text-anchor="middle"><textPath href="#path-uuid-2" startOffset="50%"></textPath></text></svg><g data-x="40" transform="translate(40, 0) rotate(0)" data-y="0" data-rotate="0"><path d="M 0 -2.5 5 0 0 2.5 A 1 2 0 0 0 0 -2.5" fill="#c7c7c7" stroke="#c7c7c7"></path></g></svg><svg overflow="visible" data-type="rect" y="6" x="110.12639617919922"><rect stroke-width="2" width="120" height="40" fill="#c7c7c7" stroke="#7f7f7f"></rect><svg overflow="visible" data-type="text" x="59.9921875" y="20"><text xml:space="preserve" dominant-baseline="central" font-size="14" font-family="DejaVu Sans Mono" text-anchor="middle" fill="#ffffff" stroke="transparent">child</text></svg></svg><svg overflow="visible" y="26" x="252.62640380859375"><svg overflow="visible" data-type="path"><path id="path-uuid-3" fill="transparent" stroke-width="2" d="M 0 -18 37.5 -18" stroke="#c7c7c7"></path><svg overflow="visible" data-type="text"><text xml:space="preserve" dominant-baseline="central" font-size="14" font-family="DejaVu Sans Mono" text-anchor="middle"><textPath href="#path-uuid-3" startOffset="50%"></textPath></text></svg><g data-x="37.5" transform="translate(37.5, -18) rotate(0)" data-y="-18" data-rotate="0"><path d="M 0 -2.5 5 0 0 2.5 A 1 2 0 0 0 0 -2.5" fill="#c7c7c7" stroke="#c7c7c7"></path></g></svg><svg overflow="visible" data-type="path" class="hidden" visibility="hidden"><path id="path-uuid-4" fill="transparent" stroke-width="2" d="M 40 18 2.5 18" stroke="#c7c7c7"></path><svg overflow="visible" data-type="text"><text xml:space="preserve" dominant-baseline="central" font-size="14" font-family="DejaVu Sans Mono" text-anchor="middle"><textPath href="#path-uuid-4" startOffset="50%"></textPath></text></svg><g data-x="2.5" transform="translate(2.5, 18) rotate(180)" data-y="18" data-rotate="180"><path d="M 0 -2.5 5 0 0 2.5 A 1 2 0 0 0 0 -2.5" fill="#c7c7c7" stroke="#c7c7c7"></path></g></svg></svg><svg overflow="visible" y="0" x="315.12640380859375"><svg overflow="visible" data-type="text" class="guess" y="0" x="0"><text xml:space="preserve" dominant-baseline="text-before-edge" font-size="14" font-family="DejaVu Sans Mono">I think this is a ...</text></svg><svg overflow="visible" data-type="text" class="label" y="36" x="0"><text xml:space="preserve" dominant-baseline="text-before-edge" font-size="14" font-family="DejaVu Sans Mono"> </text></svg></svg></svg>