<svg xmlns="http://www.w3.org/2000/svg" width="511.703125" height="264" viewBox="-46.84375 -18 511.703125 264"><svg overflow="visible"><svg overflow="visible" class="grid"><svg overflow="visible" data-type="path" class="tick tick-x"><path id="path-uuid-1" fill="transparent" stroke-width="2" d="M 0 200 0 0" stroke="#eee"></path><svg overflow="visible" data-type="text"><text xml:space="preserve" dominant-baseline="central" font-size="14" font-family="DejaVu Sans Mono" text-anchor="middle"><textPath href="#path-uuid-1" startOffset="50%"></textPath></text></svg></svg><svg overflow="visible" data-type="path" class="tick tick-x"><path id="path-uuid-3" fill="transparent" stroke-width="2" d="M 200 200 200 0" stroke="#eee"></path><svg overflow="visible" data-type="text"><text xml:space="preserve" dominant-baseline="central" font-size="14" font-family="DejaVu Sans Mono" text-anchor="middle"><textPath href="#path-uuid-3" startOffset="50%"></textPath></text></svg></svg><svg overflow="visible" data-type="path" class="tick tick-x"><path id="path-uuid-4" fill="transparent" stroke-width="2" d="M 300 200 300 0" stroke="#eee"></path><svg overflow="visible" data-type="text"><text xml:space="preserve" dominant-baseline="central" font-size="14" font-family="DejaVu Sans Mono" text-anchor="middle"><textPath href="#path-uuid-4" startOffset="50%"></textPath></text></svg></svg><svg overflow="visible" data-type="path" class="tick tick-y"><path id="path-uuid-5" fill="transparent" stroke-width="2" d="M 0 200 300 200" stroke="#eee"></path><svg overflow="visible" data-type="text"><text xml:space="preserve" dominant-baseline="central" font-size="14" font-family="DejaVu Sans Mono" text-anchor="middle"><textPath href="#path-uuid-5" startOffset="50%"></textPath></text></svg></svg><svg overflow="visible" data-type="path" class="tick tick-y"><path id="path-uuid-7" fill="transparent" stroke-width="2" d="M 0 100 300 100" stroke="#eee"></path><svg overflow="visible" data-type="text"><text xml:space="preserve" dominant-baseline="central" font-size="14" font-family="DejaVu Sans Mono" text-anchor="middle"><textPath href="#path-uuid-7" startOffset="50%"></textPath></text></svg></svg><svg overflow="visible" data-type="path" class="tick tick-y"><path id="path-uuid-8" fill="transparent" stroke-width="2" d="M 0 50 300 50" stroke="#eee"></path><svg overflow="visible" data-type="text"><text xml:space="preserve" dominant-baseline="central" font-size="14" font-family="DejaVu Sans Mono" text-anchor="middle"><textPath href="#path-uuid-8" startOffset="50%"></textPath></text></svg></svg><svg overflow="visible" data-type="path" class="tick tick-y"><path id="path-uuid-9" fill="transparent" stroke-width="2" d="M 0 0 300 0" stroke="#eee"></path><svg overflow="visible" data-type="text"><text xml:space="preserve" dominant-baseline="central" font-size="14" font-family="DejaVu Sans Mono" text-anchor="middle"><textPath href="#path-uuid-9" startOffset="50%"></textPath></text></svg></svg><svg overflow="visible" data-type="path" class="tick tick-x"><path id="path-uuid-2" fill="transparent" stroke-width="2" d="M 100 200 100 0" stroke="#111111"></path><svg overflow="visible" data-type="text"><text xml:space="preserve" dominant-baseline="central" font-size="14" font-family="DejaVu Sans Mono" text-anchor="middle"><textPath href="#path-uuid-2" startOffset="50%"></textPath></text></svg></svg><svg overflow="visible" data-type="path" class="tick tick-y"><path id="path-uuid-6" fill="transparent" stroke-width="2" d="M 0 150 300 150" stroke="#111111"></path><svg overflow="visible" data-type="text"><text xml:space="preserve" dominant-baseline="central" font-size="14" font-family="DejaVu Sans Mono" text-anchor="middle"><textPath href="#path-uuid-6" startOffset="50%"></textPath></text></svg></svg></svg><svg overflow="visible" class="axis axis-x" y="220"><svg overflow="visible" data-type="text" class="tick-label tick-label-x" x="-8.421875"><text xml:space="preserve" dominant-baseline="text-before-edge" font-size="14" font-family="DejaVu Sans Mono">-1</text></svg><svg overflow="visible" data-type="text" class="tick-label tick-label-x" x="95.7890625"><text xml:space="preserve" dominant-baseline="text-before-edge" font-size="14" font-family="DejaVu Sans Mono">0</text></svg><svg overflow="visible" data-type="text" class="tick-label tick-label-x" x="195.7890625"><text xml:space="preserve" dominant-baseline="text-before-edge" font-size="14" font-family="DejaVu Sans Mono">1</text></svg><svg overflow="visible" data-type="text" class="tick-label tick-label-x" x="295.7890625"><text xml:space="preserve" dominant-baseline="text-before-edge" font-size="14" font-family="DejaVu Sans Mono">2</text></svg></svg><svg overflow="visible" class="axis axis-y" x="-36.84375"><svg overflow="visible" data-type="text" class="tick-label tick-label-y" y="192" x="0"><text xml:space="preserve" dominant-baseline="text-before-edge" font-size="14" font-family="DejaVu Sans Mono">-1</text></svg><svg overflow="visible" data-type="text" class="tick-label tick-label-y" y="142" x="4.2109375"><text xml:space="preserve" dominant-baseline="text-before-edge" font-size="14" font-family="DejaVu Sans Mono">0</text></svg><svg overflow="visible" data-type="text" class="tick-label tick-label-y" y="92" x="4.2109375"><text xml:space="preserve" dominant-baseline="text-before-edge" font-size="14" font-family="DejaVu Sans Mono">1</text></svg><svg overflow="visible" data-type="text" class="tick-label tick-label-y" y="42" x="4.2109375"><text xml:space="preserve" dominant-baseline="text-before-edge" font-size="14" font-family="DejaVu Sans Mono">2</text></svg><svg overflow="visible" data-type="text" class="tick-label tick-label-y" y="-8" x="4.2109375"><text xml:space="preserve" dominant-baseline="text-before-edge" font-size="14" font-family="DejaVu Sans Mono">3</text></svg></svg><svg overflow="visible" data-type="path"><path id="path-uuid-10" fill="transparent" stroke-width="2" d="M49.00000000000004,200L50.00000000000005,199.99999999999994L51.00000000000004,198.99999999999994L52.00000000000004,197.99999999999994L53.00000000000005,196.99999999999994L54.00000000000005,195.99999999999994L55.00000000000004,194.99999999999994L56.00000000000005,193.99999999999994L57.00000000000005,192.99999999999994L58.00000000000005,191.99999999999994L59.00000000000006,190.99999999999994L60.00000000000006,189.99999999999994L61.00000000000005,188.99999999999994L62.00000000000006,187.99999999999994L63.00000000000006,186.99999999999994L64.00000000000006,185.99999999999994L65.00000000000006,184.99999999999994L66.00000000000006,183.99999999999994L67.00000000000006,182.99999999999994L68.00000000000006,181.99999999999994L69.00000000000006,180.99999999999994L70.00000000000006,179.99999999999994L71.00000000000007,178.99999999999994L72.00000000000006,177.99999999999994L73.00000000000006,176.99999999999994L74.00000000000007,175.99999999999994L75.00000000000007,174.99999999999994L76.00000000000007,173.99999999999994L77.00000000000006,172.99999999999994L78.00000000000007,171.99999999999994L79.00000000000007,170.99999999999994L80.00000000000007,169.99999999999994L81.00000000000007,168.99999999999994L82.00000000000009,167.99999999999994L83.00000000000007,166.99999999999994L84.00000000000007,165.99999999999994L85.00000000000009,164.99999999999991L86.00000000000007,163.99999999999991L87.00000000000007,162.99999999999991L88.00000000000009,161.99999999999991L89.00000000000007,160.99999999999991L90.00000000000009,159.99999999999994L91.00000000000009,158.99999999999991L92.00000000000007,157.99999999999991L93.00000000000007,156.99999999999994L94.00000000000007,155.99999999999994L95.00000000000009,154.99999999999994L96.00000000000007,153.99999999999994L97.00000000000007,152.99999999999991L98.00000000000009,151.99999999999991L99.00000000000007,150.99999999999991L100.00000000000006,149.99999999999991L101.00000000000007,148.99999999999991L102.00000000000007,147.99999999999991L103.00000000000006,146.99999999999991L104.00000000000007,145.99999999999994L105.00000000000007,144.99999999999994L106.00000000000007,143.99999999999994L107.00000000000007,142.99999999999994L108.00000000000009,141.99999999999994L109.00000000000007,140.99999999999994L110.00000000000007,139.99999999999991L111.00000000000009,138.99999999999991L112.00000000000007,137.99999999999991L113.00000000000009,136.99999999999991L114.00000000000009,135.99999999999991L115.00000000000007,134.99999999999991L116.00000000000009,133.99999999999991L117.00000000000009,132.99999999999991L118.00000000000007,131.99999999999991L119.00000000000009,130.99999999999991L120.00000000000009,129.99999999999991L121.00000000000009,128.99999999999991L122.00000000000009,127.99999999999991L123.0000000000001,126.99999999999991L124.00000000000009,125.99999999999991L125.00000000000009,124.99999999999991L126.0000000000001,123.99999999999991L127.00000000000009,122.99999999999991L128.00000000000009,121.99999999999991L129.00000000000009,120.99999999999991L130.00000000000009,119.9999999999999L131.00000000000009,118.9999999999999L132.0000000000001,117.9999999999999L133.00000000000009,116.9999999999999L134.00000000000009,115.9999999999999L135.0000000000001,114.9999999999999L136.00000000000009,113.9999999999999L137.0000000000001,112.9999999999999L138.0000000000001,111.9999999999999L139.00000000000009,110.9999999999999L140.0000000000001,109.9999999999999L141.0000000000001,108.9999999999999L142.00000000000009,107.9999999999999L143.0000000000001,106.9999999999999L144.0000000000001,105.9999999999999L145.0000000000001,104.99999999999989L146.0000000000001,103.99999999999989L147.0000000000001,102.99999999999989L148.0000000000001,101.99999999999989L149.0000000000001,100.99999999999989L150.0000000000001,99.99999999999991L151.0000000000001,98.99999999999989L152.00000000000009,97.99999999999991L153.0000000000001,96.99999999999989L154.00000000000009,95.99999999999991L155.0000000000001,94.99999999999989L156.0000000000001,93.9999999999999L157.00000000000014,92.99999999999989L158.00000000000009,91.9999999999999L159.0000000000001,90.99999999999989L160.00000000000009,89.9999999999999L161.0000000000001,88.99999999999989L162.0000000000001,87.9999999999999L163.00000000000014,86.99999999999987L164.00000000000009,85.9999999999999L165.0000000000001,84.99999999999987L166.0000000000001,83.9999999999999L167.0000000000001,82.99999999999987L168.0000000000001,81.9999999999999L169.00000000000014,80.99999999999987L170.00000000000009,79.99999999999989L171.0000000000001,78.99999999999987L172.0000000000001,77.99999999999989L173.00000000000014,76.99999999999987L174.0000000000001,75.99999999999989L175.00000000000014,74.99999999999987L176.0000000000001,73.99999999999989L177.0000000000001,72.99999999999986L178.0000000000001,71.99999999999989L179.00000000000014,70.99999999999986L180.0000000000001,69.99999999999989L181.00000000000014,68.99999999999986L182.0000000000001,67.99999999999989L183.00000000000014,66.99999999999986L184.0000000000001,65.99999999999989L185.00000000000014,64.99999999999986L186.00000000000014,63.999999999999886L187.00000000000014,62.99999999999986L188.0000000000001,61.999999999999886L189.00000000000014,60.99999999999986L190.0000000000001,59.999999999999886L191.00000000000014,58.99999999999986L192.00000000000014,57.999999999999886L193.00000000000017,56.99999999999986L194.0000000000001,55.999999999999886L195.00000000000014,54.99999999999986L196.00000000000014,53.99999999999986L197.00000000000014,52.99999999999986L198.00000000000014,51.99999999999986L199.00000000000017,50.99999999999986L200.0000000000001,49.99999999999986L201.00000000000014,48.99999999999986L202.00000000000014,47.99999999999986L203.0000000000001,46.99999999999986L204.00000000000014,45.99999999999986L205.00000000000017,44.99999999999986L206.0000000000001,43.99999999999986L207.0000000000001,42.99999999999986L208.00000000000014,41.99999999999986L209.00000000000017,40.99999999999986L210.00000000000014,39.99999999999986L211.0000000000001,38.99999999999986L212.00000000000014,37.99999999999986L213.00000000000014,36.99999999999986L214.00000000000014,35.99999999999986L215.00000000000014,34.99999999999986L216.00000000000017,33.99999999999986L217.00000000000017,32.99999999999986L218.00000000000014,31.999999999999858L219.0000000000001,30.999999999999858L220.00000000000014,29.999999999999858L221.00000000000017,28.999999999999858L222.00000000000017,27.999999999999858L223.0000000000001,26.999999999999858L224.00000000000014,25.999999999999858L225.00000000000017,24.999999999999858L226.00000000000017,23.99999999999983L227.00000000000014,22.99999999999983L228.00000000000017,21.99999999999983L229.0000000000002,20.99999999999983L230.00000000000014,19.99999999999983L231.00000000000014,18.99999999999983L232.00000000000017,17.99999999999983L233.00000000000017,16.99999999999983L234.00000000000017,15.99999999999983L235.00000000000014,14.99999999999983L236.00000000000014,13.99999999999983L237.00000000000017,12.99999999999983L238.00000000000017,11.99999999999983L239.00000000000017,10.99999999999983L240.00000000000017,9.99999999999983L241.0000000000002,8.99999999999983L242.00000000000017,7.9999999999998295L243.00000000000014,6.9999999999998295L244.00000000000017,5.9999999999998295L245.0000000000002,4.9999999999998295L246.0000000000002,3.9999999999998295L247.00000000000014,2.9999999999998295L248.00000000000017,1.9999999999998295L249.0000000000002,0.9999999999998295L250.00000000000017,0" stroke="#1f77b4"></path><svg overflow="visible" data-type="text"><text xml:space="preserve" dominant-baseline="central" font-size="14" font-family="DejaVu Sans Mono" text-anchor="middle"><textPath href="#path-uuid-10" startOffset="50%"></textPath></text></svg></svg><svg overflow="visible" data-type="circle" x="96" y="146"><circle stroke-width="2" r="4" cx="4" cy="4" fill="#c5b0d5" stroke="#9467bd"></circle><svg overflow="visible" data-type="text" x="4" y="4"><text xml:space="preserve" dominant-baseline="central" font-size="14" font-family="DejaVu Sans Mono" text-anchor="middle" fill="#9467bd" stroke="transparent"></text></svg></svg><svg overflow="visible" data-type="circle" x="196" y="46"><circle stroke-width="2" r="4" cx="4" cy="4" fill="#c5b0d5" stroke="#9467bd"></circle><svg overflow="visible" data-type="text" x="4" y="4"><text xml:space="preserve" dominant-baseline="central" font-size="14" font-family="DejaVu Sans Mono" text-anchor="middle" fill="#9467bd" stroke="transparent"></text></svg></svg></svg><svg overflow="visible" x="320" y="76"><svg overflow="visible" data-type="text" y="0" x="0"><text xml:space="preserve" dominant-baseline="text-before-edge" font-size="14" font-family="DejaVu Sans Mono">(2 - 0)   2</text></svg><svg overflow="visible" data-type="text" y="16" x="0"><text xml:space="preserve" dominant-baseline="text-before-edge" font-size="14" font-family="DejaVu Sans Mono">------- = - = +2</text></svg><svg overflow="visible" data-type="text" y="32" x="0"><text xml:space="preserve" dominant-baseline="text-before-edge" font-size="14" font-family="DejaVu Sans Mono">(1 - 0)   1</text></svg></svg></svg>