<svg xmlns="http://www.w3.org/2000/svg" width="361.0546875" height="264" viewBox="-46.84375 -18 361.0546875 264"><svg overflow="visible"><svg overflow="visible" class="grid"><svg overflow="visible" data-type="path" class="tick tick-x"><path id="path-uuid-1" fill="transparent" stroke-width="2" d="M 0 200 0 0" stroke="#eee"></path><svg overflow="visible" data-type="text"><text xml:space="preserve" dominant-baseline="central" font-size="14" font-family="DejaVu Sans Mono" text-anchor="middle"><textPath href="#path-uuid-1" startOffset="50%"></textPath></text></svg></svg><svg overflow="visible" data-type="path" class="tick tick-x"><path id="path-uuid-3" fill="transparent" stroke-width="2" d="M 200 200 200 0" stroke="#eee"></path><svg overflow="visible" data-type="text"><text xml:space="preserve" dominant-baseline="central" font-size="14" font-family="DejaVu Sans Mono" text-anchor="middle"><textPath href="#path-uuid-3" startOffset="50%"></textPath></text></svg></svg><svg overflow="visible" data-type="path" class="tick tick-x"><path id="path-uuid-4" fill="transparent" stroke-width="2" d="M 300 200 300 0" stroke="#eee"></path><svg overflow="visible" data-type="text"><text xml:space="preserve" dominant-baseline="central" font-size="14" font-family="DejaVu Sans Mono" text-anchor="middle"><textPath href="#path-uuid-4" startOffset="50%"></textPath></text></svg></svg><svg overflow="visible" data-type="path" class="tick tick-y"><path id="path-uuid-5" fill="transparent" stroke-width="2" d="M 0 200 300 200" stroke="#eee"></path><svg overflow="visible" data-type="text"><text xml:space="preserve" dominant-baseline="central" font-size="14" font-family="DejaVu Sans Mono" text-anchor="middle"><textPath href="#path-uuid-5" startOffset="50%"></textPath></text></svg></svg><svg overflow="visible" data-type="path" class="tick tick-y"><path id="path-uuid-7" fill="transparent" stroke-width="2" d="M 0 66.66666666666669 300 66.66666666666669" stroke="#eee"></path><svg overflow="visible" data-type="text"><text xml:space="preserve" dominant-baseline="central" font-size="14" font-family="DejaVu Sans Mono" text-anchor="middle"><textPath href="#path-uuid-7" startOffset="50%"></textPath></text></svg></svg><svg overflow="visible" data-type="path" class="tick tick-y"><path id="path-uuid-8" fill="transparent" stroke-width="2" d="M 0 0 300 0" stroke="#eee"></path><svg overflow="visible" data-type="text"><text xml:space="preserve" dominant-baseline="central" font-size="14" font-family="DejaVu Sans Mono" text-anchor="middle"><textPath href="#path-uuid-8" startOffset="50%"></textPath></text></svg></svg><svg overflow="visible" data-type="path" class="tick tick-x"><path id="path-uuid-2" fill="transparent" stroke-width="2" d="M 100 200 100 0" stroke="#111111"></path><svg overflow="visible" data-type="text"><text xml:space="preserve" dominant-baseline="central" font-size="14" font-family="DejaVu Sans Mono" text-anchor="middle"><textPath href="#path-uuid-2" startOffset="50%"></textPath></text></svg></svg><svg overflow="visible" data-type="path" class="tick tick-y"><path id="path-uuid-6" fill="transparent" stroke-width="2" d="M 0 133.33333333333334 300 133.33333333333334" stroke="#111111"></path><svg overflow="visible" data-type="text"><text xml:space="preserve" dominant-baseline="central" font-size="14" font-family="DejaVu Sans Mono" text-anchor="middle"><textPath href="#path-uuid-6" startOffset="50%"></textPath></text></svg></svg></svg><svg overflow="visible" class="axis axis-x" y="220"><svg overflow="visible" data-type="text" class="tick-label tick-label-x" x="-8.421875"><text xml:space="preserve" dominant-baseline="text-before-edge" font-size="14" font-family="DejaVu Sans Mono">-1</text></svg><svg overflow="visible" data-type="text" class="tick-label tick-label-x" x="95.7890625"><text xml:space="preserve" dominant-baseline="text-before-edge" font-size="14" font-family="DejaVu Sans Mono">0</text></svg><svg overflow="visible" data-type="text" class="tick-label tick-label-x" x="195.7890625"><text xml:space="preserve" dominant-baseline="text-before-edge" font-size="14" font-family="DejaVu Sans Mono">1</text></svg><svg overflow="visible" data-type="text" class="tick-label tick-label-x" x="295.7890625"><text xml:space="preserve" dominant-baseline="text-before-edge" font-size="14" font-family="DejaVu Sans Mono">2</text></svg></svg><svg overflow="visible" class="axis axis-y" x="-36.84375"><svg overflow="visible" data-type="text" class="tick-label tick-label-y" y="192" x="0"><text xml:space="preserve" dominant-baseline="text-before-edge" font-size="14" font-family="DejaVu Sans Mono">-1</text></svg><svg overflow="visible" data-type="text" class="tick-label tick-label-y" y="125.33333333333334" x="4.2109375"><text xml:space="preserve" dominant-baseline="text-before-edge" font-size="14" font-family="DejaVu Sans Mono">0</text></svg><svg overflow="visible" data-type="text" class="tick-label tick-label-y" y="58.666666666666686" x="4.2109375"><text xml:space="preserve" dominant-baseline="text-before-edge" font-size="14" font-family="DejaVu Sans Mono">1</text></svg><svg overflow="visible" data-type="text" class="tick-label tick-label-y" y="-8" x="4.2109375"><text xml:space="preserve" dominant-baseline="text-before-edge" font-size="14" font-family="DejaVu Sans Mono">2</text></svg></svg><svg overflow="visible" data-type="path"><path id="path-uuid-9" fill="transparent" stroke-width="2" d="M0,0L1.0000000000000009,0.6666666666666572L2.0000000000000018,1.3333333333333428L3.0000000000000027,2.0000000000000284L4.0000000000000036,2.666666666666657L5.000000000000004,3.3333333333333144L6.000000000000005,4L7.000000000000006,4.666666666666686L8.000000000000007,5.333333333333343L9.000000000000007,5.999999999999972L10.000000000000009,6.666666666666657L11.00000000000001,7.333333333333343L12.00000000000001,8L13.00000000000001,8.666666666666657L14.000000000000012,9.333333333333343L15.000000000000014,10.000000000000028L16.000000000000014,10.666666666666657L17.000000000000014,11.333333333333314L18.000000000000014,12L19.000000000000018,12.666666666666686L20.000000000000018,13.333333333333343L21.000000000000018,14L22.00000000000002,14.666666666666686L23.000000000000018,15.333333333333343L24.00000000000002,16L25.000000000000025,16.666666666666686L26.00000000000002,17.333333333333343L27.000000000000025,18.00000000000003L28.000000000000025,18.666666666666686L29.000000000000025,19.333333333333343L30.00000000000003,20.00000000000003L31.00000000000003,20.666666666666686L32.00000000000003,21.33333333333337L33.00000000000003,22L34.00000000000003,22.666666666666686L35.00000000000003,23.33333333333337L36.00000000000003,24.00000000000003L37.000000000000036,24.666666666666686L38.000000000000036,25.33333333333337L39.000000000000036,26.000000000000057L40.000000000000036,26.666666666666686L41.00000000000004,27.333333333333343L42.000000000000036,28.00000000000003L43.000000000000036,28.666666666666714L44.00000000000004,29.33333333333337L45.00000000000004,30L46.000000000000036,30.666666666666686L47.00000000000004,31.33333333333337L48.00000000000004,32.00000000000003L49.00000000000004,32.666666666666686L50.00000000000005,33.33333333333337L51.00000000000004,34.00000000000006L52.00000000000004,34.666666666666686L53.00000000000005,35.33333333333334L54.00000000000005,36.00000000000003L55.00000000000004,36.666666666666714L56.00000000000005,37.33333333333337L57.00000000000005,38L58.00000000000005,38.666666666666686L59.00000000000006,39.33333333333337L60.00000000000006,40.00000000000003L61.00000000000005,40.666666666666686L62.00000000000006,41.33333333333337L63.00000000000006,42.00000000000006L64.00000000000006,42.666666666666686L65.00000000000006,43.33333333333337L66.00000000000006,44.00000000000003L67.00000000000006,44.666666666666714L68.00000000000006,45.33333333333337L69.00000000000006,46.00000000000003L70.00000000000006,46.666666666666714L71.00000000000007,47.33333333333337L72.00000000000006,48.00000000000006L73.00000000000006,48.666666666666714L74.00000000000007,49.33333333333337L75.00000000000007,50.00000000000006L76.00000000000007,50.666666666666714L77.00000000000006,51.33333333333337L78.00000000000007,52.00000000000006L79.00000000000007,52.66666666666674L80.00000000000007,53.3333333333334L81.00000000000007,54.00000000000003L82.00000000000009,54.666666666666714L83.00000000000007,55.3333333333334L84.00000000000007,56.00000000000006L85.00000000000009,56.666666666666714L86.00000000000007,57.3333333333334L87.00000000000007,58.000000000000085L88.00000000000009,58.666666666666714L89.00000000000007,59.33333333333337L90.00000000000009,60.00000000000006L91.00000000000009,60.66666666666674L92.00000000000007,61.3333333333334L93.00000000000007,62.00000000000003L94.00000000000007,62.666666666666714L95.00000000000009,63.3333333333334L96.00000000000007,64.00000000000006L97.00000000000007,64.66666666666671L98.00000000000009,65.33333333333334L99.00000000000007,66.00000000000003L100.00000000000006,66.66666666666671L101.00000000000007,67.33333333333337L102.00000000000007,68.00000000000006L103.00000000000006,68.66666666666671L104.00000000000007,69.33333333333337L105.00000000000007,70.00000000000003L106.00000000000007,70.66666666666671L107.00000000000007,71.33333333333337L108.00000000000009,72.00000000000004L109.00000000000007,72.66666666666673L110.00000000000007,73.33333333333339L111.00000000000009,74.00000000000004L112.00000000000007,74.66666666666673L113.00000000000009,75.33333333333339L114.00000000000009,76.00000000000004L115.00000000000007,76.66666666666673L116.00000000000009,77.33333333333339L117.00000000000009,78.00000000000004L118.00000000000007,78.66666666666673L119.00000000000009,79.33333333333339L120.00000000000009,80.00000000000004L121.00000000000009,80.66666666666673L122.00000000000009,81.33333333333339L123.0000000000001,82.00000000000006L124.00000000000009,82.66666666666673L125.00000000000009,83.3333333333334L126.0000000000001,84.00000000000006L127.00000000000009,84.66666666666673L128.00000000000009,85.3333333333334L129.00000000000009,86.00000000000006L130.00000000000009,86.66666666666674L131.00000000000009,87.3333333333334L132.0000000000001,88.00000000000006L133.00000000000009,88.66666666666674L134.00000000000009,89.3333333333334L135.0000000000001,90.00000000000006L136.00000000000009,90.66666666666674L137.0000000000001,91.3333333333334L138.0000000000001,92.00000000000006L139.00000000000009,92.66666666666674L140.0000000000001,93.3333333333334L141.0000000000001,94.00000000000006L142.00000000000009,94.66666666666674L143.0000000000001,95.3333333333334L144.0000000000001,96.00000000000006L145.0000000000001,96.66666666666674L146.0000000000001,97.3333333333334L147.0000000000001,98.00000000000007L148.0000000000001,98.66666666666674L149.0000000000001,99.3333333333334L150.0000000000001,100.00000000000006L151.0000000000001,100.66666666666674L152.00000000000009,101.3333333333334L153.0000000000001,102.00000000000009L154.00000000000009,102.66666666666673L155.0000000000001,103.33333333333341L156.0000000000001,104.00000000000006L157.00000000000014,104.66666666666674L158.00000000000009,105.3333333333334L159.0000000000001,106.00000000000009L160.00000000000009,106.66666666666673L161.0000000000001,107.33333333333341L162.0000000000001,108.00000000000006L163.00000000000014,108.66666666666674L164.00000000000009,109.3333333333334L165.0000000000001,110.00000000000009L166.0000000000001,110.66666666666674L167.0000000000001,111.33333333333341L168.0000000000001,112.00000000000007L169.00000000000014,112.66666666666674L170.00000000000009,113.33333333333341L171.0000000000001,114.00000000000009L172.0000000000001,114.66666666666674L173.00000000000014,115.33333333333343L174.0000000000001,116.00000000000007L175.00000000000014,116.66666666666676L176.0000000000001,117.33333333333341L177.0000000000001,118.0000000000001L178.0000000000001,118.66666666666674L179.00000000000014,119.33333333333343L180.0000000000001,120.00000000000007L181.00000000000014,120.66666666666676L182.0000000000001,121.33333333333341L183.00000000000014,122.0000000000001L184.0000000000001,122.66666666666674L185.00000000000014,123.33333333333343L186.00000000000014,124.00000000000007L187.00000000000014,124.66666666666676L188.0000000000001,125.33333333333341L189.00000000000014,126.0000000000001L190.0000000000001,126.66666666666674L191.00000000000014,127.33333333333343L192.00000000000014,128.00000000000009L193.00000000000017,128.66666666666674L194.0000000000001,129.33333333333343L195.00000000000014,130.0000000000001L196.00000000000014,130.66666666666674L197.00000000000014,131.33333333333343L198.00000000000014,132.00000000000009L199.00000000000017,132.66666666666677L200.0000000000001,133.33333333333343L201.00000000000014,134.00000000000009L202.00000000000014,134.66666666666674L203.0000000000001,135.33333333333343L204.00000000000014,136.00000000000009L205.00000000000017,136.66666666666674L206.0000000000001,137.33333333333343L207.0000000000001,138.00000000000009L208.00000000000014,138.66666666666674L209.00000000000017,139.33333333333343L210.00000000000014,140.00000000000009L211.0000000000001,140.66666666666677L212.00000000000014,141.33333333333343L213.00000000000014,142.00000000000009L214.00000000000014,142.66666666666677L215.00000000000014,143.33333333333343L216.00000000000017,144.00000000000009L217.00000000000017,144.66666666666677L218.00000000000014,145.33333333333343L219.0000000000001,146.0000000000001L220.00000000000014,146.66666666666677L221.00000000000017,147.33333333333343L222.00000000000017,148.0000000000001L223.0000000000001,148.66666666666677L224.00000000000014,149.33333333333343L225.00000000000017,150.0000000000001L226.00000000000017,150.66666666666677L227.00000000000014,151.33333333333343L228.00000000000017,152.0000000000001L229.0000000000002,152.66666666666677L230.00000000000014,153.33333333333343L231.00000000000014,154.0000000000001L232.00000000000017,154.66666666666677L233.00000000000017,155.33333333333343L234.00000000000017,156.0000000000001L235.00000000000014,156.66666666666677L236.00000000000014,157.33333333333343L237.00000000000017,158.0000000000001L238.00000000000017,158.66666666666677L239.00000000000017,159.33333333333343L240.00000000000017,160.0000000000001L241.0000000000002,160.66666666666677L242.00000000000017,161.33333333333343L243.00000000000014,162.0000000000001L244.00000000000017,162.6666666666668L245.0000000000002,163.33333333333346L246.0000000000002,164.0000000000001L247.00000000000014,164.6666666666668L248.00000000000017,165.33333333333346L249.0000000000002,166.0000000000001L250.00000000000017,166.6666666666668L251.00000000000017,167.33333333333346L252.0000000000002,168.0000000000001L253.00000000000023,168.6666666666668L254.00000000000017,169.33333333333346L255.00000000000017,170.0000000000001L256.00000000000017,170.6666666666668L257.0000000000002,171.33333333333346L258.00000000000017,172.0000000000001L259.00000000000017,172.6666666666668L260.00000000000017,173.33333333333346L261.00000000000017,174.0000000000001L262.00000000000017,174.6666666666668L263.00000000000017,175.33333333333346L264.0000000000002,176.0000000000001L265.0000000000002,176.6666666666668L266.00000000000017,177.33333333333346L267.00000000000017,178.0000000000001L268.00000000000017,178.6666666666668L269.0000000000002,179.33333333333346L270.0000000000002,180.0000000000001L271.00000000000017,180.6666666666668L272.00000000000017,181.33333333333346L273.0000000000002,182.00000000000014L274.0000000000002,182.6666666666668L275.00000000000017,183.33333333333346L276.0000000000002,184.00000000000014L277.0000000000002,184.6666666666668L278.00000000000017,185.33333333333346L279.00000000000017,186.00000000000014L280.0000000000002,186.6666666666668L281.0000000000002,187.33333333333348L282.0000000000002,188.00000000000014L283.00000000000017,188.6666666666668L284.00000000000017,189.33333333333348L285.0000000000002,190.00000000000014L286.0000000000002,190.6666666666668L287.0000000000002,191.33333333333348L288.0000000000002,192.00000000000014L289.0000000000002,192.6666666666668L290.0000000000002,193.33333333333348L291.00000000000017,194.00000000000014L292.0000000000002,194.6666666666668L293.0000000000002,195.33333333333348L294.0000000000002,196.00000000000014L295.00000000000017,196.6666666666668L296.0000000000002,197.33333333333348L297.0000000000002,198.00000000000014L298.0000000000002,198.6666666666668L299.0000000000002,199.33333333333348L300,200" stroke="#1f77b4"></path><svg overflow="visible" data-type="text"><text xml:space="preserve" dominant-baseline="central" font-size="14" font-family="DejaVu Sans Mono" text-anchor="middle"><textPath href="#path-uuid-9" startOffset="50%"></textPath></text></svg></svg><svg overflow="visible" data-type="circle" x="96" y="62.666666666666686"><circle stroke-width="2" r="4" cx="4" cy="4" fill="#aec7e8" stroke="#1f77b4"></circle><svg overflow="visible" data-type="text" x="4" y="4"><text xml:space="preserve" dominant-baseline="central" font-size="14" font-family="DejaVu Sans Mono" text-anchor="middle" fill="#1f77b4" stroke="transparent"></text></svg></svg><svg overflow="visible" data-type="circle" x="196" y="129.33333333333334"><circle stroke-width="2" r="4" cx="4" cy="4" fill="#aec7e8" stroke="#1f77b4"></circle><svg overflow="visible" data-type="text" x="4" y="4"><text xml:space="preserve" dominant-baseline="central" font-size="14" font-family="DejaVu Sans Mono" text-anchor="middle" fill="#1f77b4" stroke="transparent"></text></svg></svg></svg></svg>