<svg xmlns="http://www.w3.org/2000/svg" width="377.9140625" height="264" viewBox="-63.703125 -18 377.9140625 264"><svg overflow="visible"><svg overflow="visible" class="grid"><svg overflow="visible" data-type="path" class="tick tick-x"><path id="path-uuid-1" fill="transparent" stroke-width="2" d="M 0 200 0 0" stroke="#eee"></path><svg overflow="visible" data-type="text"><text xml:space="preserve" dominant-baseline="central" font-size="14" font-family="DejaVu Sans Mono" text-anchor="middle"><textPath href="#path-uuid-1" startOffset="50%"></textPath></text></svg></svg><svg overflow="visible" data-type="path" class="tick tick-x"><path id="path-uuid-2" fill="transparent" stroke-width="2" d="M 75 200 75 0" stroke="#eee"></path><svg overflow="visible" data-type="text"><text xml:space="preserve" dominant-baseline="central" font-size="14" font-family="DejaVu Sans Mono" text-anchor="middle"><textPath href="#path-uuid-2" startOffset="50%"></textPath></text></svg></svg><svg overflow="visible" data-type="path" class="tick tick-x"><path id="path-uuid-4" fill="transparent" stroke-width="2" d="M 225 200 225 0" stroke="#eee"></path><svg overflow="visible" data-type="text"><text xml:space="preserve" dominant-baseline="central" font-size="14" font-family="DejaVu Sans Mono" text-anchor="middle"><textPath href="#path-uuid-4" startOffset="50%"></textPath></text></svg></svg><svg overflow="visible" data-type="path" class="tick tick-x"><path id="path-uuid-5" fill="transparent" stroke-width="2" d="M 300 200 300 0" stroke="#eee"></path><svg overflow="visible" data-type="text"><text xml:space="preserve" dominant-baseline="central" font-size="14" font-family="DejaVu Sans Mono" text-anchor="middle"><textPath href="#path-uuid-5" startOffset="50%"></textPath></text></svg></svg><svg overflow="visible" data-type="path" class="tick tick-y"><path id="path-uuid-6" fill="transparent" stroke-width="2" d="M 0 200 300 200" stroke="#eee"></path><svg overflow="visible" data-type="text"><text xml:space="preserve" dominant-baseline="central" font-size="14" font-family="DejaVu Sans Mono" text-anchor="middle"><textPath href="#path-uuid-6" startOffset="50%"></textPath></text></svg></svg><svg overflow="visible" data-type="path" class="tick tick-y"><path id="path-uuid-7" fill="transparent" stroke-width="2" d="M 0 150 300 150" stroke="#eee"></path><svg overflow="visible" data-type="text"><text xml:space="preserve" dominant-baseline="central" font-size="14" font-family="DejaVu Sans Mono" text-anchor="middle"><textPath href="#path-uuid-7" startOffset="50%"></textPath></text></svg></svg><svg overflow="visible" data-type="path" class="tick tick-y"><path id="path-uuid-9" fill="transparent" stroke-width="2" d="M 0 50 300 50" stroke="#eee"></path><svg overflow="visible" data-type="text"><text xml:space="preserve" dominant-baseline="central" font-size="14" font-family="DejaVu Sans Mono" text-anchor="middle"><textPath href="#path-uuid-9" startOffset="50%"></textPath></text></svg></svg><svg overflow="visible" data-type="path" class="tick tick-y"><path id="path-uuid-10" fill="transparent" stroke-width="2" d="M 0 0 300 0" stroke="#eee"></path><svg overflow="visible" data-type="text"><text xml:space="preserve" dominant-baseline="central" font-size="14" font-family="DejaVu Sans Mono" text-anchor="middle"><textPath href="#path-uuid-10" startOffset="50%"></textPath></text></svg></svg><svg overflow="visible" data-type="path" class="tick tick-x"><path id="path-uuid-3" fill="transparent" stroke-width="2" d="M 150 200 150 0" stroke="#111111"></path><svg overflow="visible" data-type="text"><text xml:space="preserve" dominant-baseline="central" font-size="14" font-family="DejaVu Sans Mono" text-anchor="middle"><textPath href="#path-uuid-3" startOffset="50%"></textPath></text></svg></svg><svg overflow="visible" data-type="path" class="tick tick-y"><path id="path-uuid-8" fill="transparent" stroke-width="2" d="M 0 100 300 100" stroke="#111111"></path><svg overflow="visible" data-type="text"><text xml:space="preserve" dominant-baseline="central" font-size="14" font-family="DejaVu Sans Mono" text-anchor="middle"><textPath href="#path-uuid-8" startOffset="50%"></textPath></text></svg></svg></svg><svg overflow="visible" class="axis axis-x" y="220"><svg overflow="visible" data-type="text" class="tick-label tick-label-x" x="-8.421875"><text xml:space="preserve" dominant-baseline="text-before-edge" font-size="14" font-family="DejaVu Sans Mono">-4</text></svg><svg overflow="visible" data-type="text" class="tick-label tick-label-x" x="66.578125"><text xml:space="preserve" dominant-baseline="text-before-edge" font-size="14" font-family="DejaVu Sans Mono">-2</text></svg><svg overflow="visible" data-type="text" class="tick-label tick-label-x" x="145.7890625"><text xml:space="preserve" dominant-baseline="text-before-edge" font-size="14" font-family="DejaVu Sans Mono">0</text></svg><svg overflow="visible" data-type="text" class="tick-label tick-label-x" x="220.7890625"><text xml:space="preserve" dominant-baseline="text-before-edge" font-size="14" font-family="DejaVu Sans Mono">2</text></svg><svg overflow="visible" data-type="text" class="tick-label tick-label-x" x="295.7890625"><text xml:space="preserve" dominant-baseline="text-before-edge" font-size="14" font-family="DejaVu Sans Mono">4</text></svg></svg><svg overflow="visible" class="axis axis-y" x="-53.703125"><svg overflow="visible" data-type="text" class="tick-label tick-label-y" y="192" x="8.4296875"><text xml:space="preserve" dominant-baseline="text-before-edge" font-size="14" font-family="DejaVu Sans Mono">-1</text></svg><svg overflow="visible" data-type="text" class="tick-label tick-label-y" y="142" x="0"><text xml:space="preserve" dominant-baseline="text-before-edge" font-size="14" font-family="DejaVu Sans Mono">-0.5</text></svg><svg overflow="visible" data-type="text" class="tick-label tick-label-y" y="92" x="12.640625"><text xml:space="preserve" dominant-baseline="text-before-edge" font-size="14" font-family="DejaVu Sans Mono">0</text></svg><svg overflow="visible" data-type="text" class="tick-label tick-label-y" y="42" x="4.2109375"><text xml:space="preserve" dominant-baseline="text-before-edge" font-size="14" font-family="DejaVu Sans Mono">0.5</text></svg><svg overflow="visible" data-type="text" class="tick-label tick-label-y" y="-8" x="12.640625"><text xml:space="preserve" dominant-baseline="text-before-edge" font-size="14" font-family="DejaVu Sans Mono">1</text></svg></svg><svg overflow="visible" data-type="path"><path id="path-uuid-11" fill="transparent" stroke-width="2" d="M0,199.9329299739067L1.0000000000000064,199.92925709832673L2.000000000000013,199.92538316452135L3.0000000000000195,199.9212971747347L4.000000000000026,199.91698753059114L5.000000000000032,199.9124420004004L6.000000000000039,199.90764768469518L7.000000000000045,199.90259097990702L8.000000000000052,199.89725754008083L9.000000000000059,199.89163223652454L10.000000000000064,199.8856991152839L11.000000000000071,199.87944135232752L12.000000000000078,199.87284120632094L13.000000000000083,199.8658799688631L14.00000000000009,199.85853791205096L15.000000000000096,199.85079423323268L16.000000000000103,199.8426269968019L17.00000000000011,199.83401307287858L18.000000000000117,199.82492807271416L19.00000000000012,199.81534628065117L20.000000000000128,199.80524058245885L21.000000000000135,199.79458238985768L22.000000000000142,199.783341561037L23.00000000000015,199.77148631696042L24.000000000000156,199.7589831532442L25.00000000000016,199.74579674738374L26.000000000000167,199.73188986109244L27.000000000000174,199.71722323750788L28.00000000000018,199.70175549300708L29.00000000000019,199.6854430033636L30.000000000000192,199.6682397839651L31.0000000000002,199.65009736380028L32.000000000000206,199.63096465290957L33.00000000000021,199.61078780298288L34.00000000000022,199.5895100607746L35.00000000000023,199.56707161399166L36.000000000000234,199.54340942929937L37.00000000000024,199.51845708207426L38.00000000000024,199.49214457752115L39.00000000000025,199.46439816275736L40.000000000000256,199.4351401294543L41.00000000000026,199.40428860661245L42.00000000000027,199.37175734303412L43.00000000000028,199.33745547904437L44.000000000000284,199.30128730699985L45.00000000000029,199.26315202011278L46.0000000000003,199.22294344910733L47.000000000000306,199.18054978621632L48.00000000000031,199.13585329601761L49.00000000000031,199.08873001260307L50.00000000000032,199.03904942256807L51.00000000000033,198.98667413330674L52.000000000000334,198.9314595260978L53.00000000000034,198.87325339346887L54.00000000000035,198.81189556033192L55.000000000000355,198.7472174883934L56.00000000000036,198.67904186335608L57.00000000000037,198.60718216444755L58.00000000000038,198.5314422158369L59.00000000000038,198.45161571952931L60.000000000000384,198.367485769368L61.00000000000039,198.27882434581753L62.0000000000004,198.18539179125776L63.000000000000405,198.0869362655816L64.00000000000041,197.98319318196576L65.00000000000041,197.87388462277116L66.00000000000043,197.7587187356314L67.00000000000043,197.6373891099034L68.00000000000044,197.50957413378822L69.00000000000044,197.37493633257938L70.00000000000045,197.23312168866946L71.00000000000045,197.0837589441358L72.00000000000047,196.9264588869448L73.00000000000047,196.76081362205443L74.00000000000048,196.58639582896683L75.00000000000047,196.4027580075816L76.00000000000047,196.2094317145338L77.00000000000048,196.0059267925682L78.00000000000047,195.79173059590624L79.00000000000045,195.56630721500636L80.00000000000047,195.32909670460447L81.00000000000047,195.079514319452L82.00000000000045,194.81694976274454L83.00000000000045,194.5407664528592L84.00000000000045,194.25030081469185L85.00000000000047,193.94486160260976L86.00000000000045,193.62372926281031L87.00000000000044,193.28615534370334L88.00000000000045,192.93136196381033L89.00000000000045,192.55854134759963L90.00000000000044,192.16685544064694L91.00000000000044,191.75543561652322L92.00000000000044,191.3233824888589L93.00000000000045,190.86976584311105L94.00000000000044,190.39362470365407L95.00000000000043,189.89396755291708L96.00000000000044,189.369772720387L97.00000000000044,188.8199889603669L98.00000000000043,188.2435362384065L99.00000000000043,187.63930674728203L100.00000000000043,187.00616617426692L101.00000000000044,186.3429552421765L102.00000000000043,185.64849154724942L103.00000000000041,184.92157171731318L104.00000000000043,184.16097391382218L105.00000000000043,183.3654607012152L106.00000000000041,182.53378230655912L107.00000000000041,181.66468029157858L108.00000000000041,180.75689165786105L109.00000000000041,179.80915340421794L110.00000000000041,178.82020755281602L111.0000000000004,177.78880665771806L112.0000000000004,176.71371980583177L113.00000000000041,175.59373911591493L114.0000000000004,174.42768673618326L115.0000000000004,173.21442233518476L116.0000000000004,171.952851073922L117.0000000000004,170.641932039723L118.0000000000004,169.280687114099L119.00000000000038,167.86821023782275L120.00000000000038,166.40367702678432L121.0000000000004,164.8863546819261L122.00000000000038,163.3156121258515L123.00000000000037,161.69093028770587L124.00000000000038,160.01191244683758L125.00000000000038,158.27829453479035L126.00000000000038,156.48995528462183L127.00000000000037,154.6469261066769L128.00000000000037,152.74940056109054L129.00000000000037,150.79774328978888L130.00000000000037,148.79249826495084L131.00000000000037,146.73439620713194L132.00000000000037,144.6243610248772L133.00000000000037,142.4635151289722L134.00000000000037,140.25318347877163L135.00000000000037,137.99489622552164L136.00000000000037,135.69038982840277L137.00000000000037,133.34160653322374L138.00000000000037,130.95069212126296L139.00000000000037,128.51999185653966L140.00000000000037,126.05204458354933L141.00000000000037,123.54957495384886L142.00000000000037,121.01548378834656L143.00000000000037,118.45283661215733L144.00000000000037,115.86485042974893L145.00000000000037,113.25487883908687L146.00000000000037,110.62639561378927L147.00000000000037,107.98297691111215L148.00000000000037,105.3282822900958L149.00000000000037,102.66603474764548L150.00000000000037,99.999999999999L151.00000000000037,97.33396525235251L152.00000000000037,94.67171770990221L153.00000000000037,92.01702308888588L154.00000000000037,89.37360438620875L155.00000000000037,86.74512116091118L156.00000000000037,84.13514957024914L157.00000000000037,81.54716338784075L158.0000000000004,78.98451621165154L159.00000000000037,76.45042504614925L160.00000000000037,73.9479554164488L161.0000000000004,71.48000814345852L162.00000000000037,69.04930787873528L163.00000000000037,66.6583934667745L164.0000000000004,64.3096101715955L165.00000000000037,62.00510377447665L166.00000000000037,59.74681652122672L167.00000000000037,57.536484871026175L168.00000000000037,55.375638975121234L169.00000000000037,53.26560379286653L170.00000000000037,51.20750173504766L171.00000000000034,49.20225671020967L172.00000000000037,47.25059943890804L173.00000000000037,45.35307389332172L174.00000000000034,43.510044715376864L175.00000000000037,41.72170546520837L176.00000000000037,39.988087553161165L177.00000000000037,38.30906971229291L178.00000000000034,36.68438787414732L179.00000000000034,35.11364531807274L180.00000000000037,33.59632297321457L181.00000000000034,32.1317897621762L182.00000000000034,30.719312885899967L183.00000000000037,29.35806796027603L184.00000000000034,28.047148926077057L185.00000000000034,26.785577664814298L186.00000000000034,25.572313263815886L187.0000000000003,24.406260884084247L188.00000000000034,23.286280194167404L189.00000000000034,22.211193342281177L190.0000000000003,21.179792447183246L191.00000000000034,20.190846595781323L192.00000000000034,19.24310834213827L193.00000000000034,18.33531970842077L194.0000000000003,17.46621769344023L195.0000000000003,16.634539298784205L196.00000000000034,15.839026086177256L197.0000000000003,15.078428282686275L198.0000000000003,14.35150845275004L199.00000000000034,13.65704475782303L200.0000000000003,12.993833825732594L201.0000000000003,12.36069325271751L202.0000000000003,11.75646376159304L203.00000000000028,11.180011039632689L204.0000000000003,10.63022727961257L205.0000000000003,10.106032447082526L206.00000000000028,9.606375296345561L207.0000000000003,9.130234156888605L208.0000000000003,8.67661751114079L209.00000000000028,8.244564383476472L210.00000000000028,7.833144559352746L211.00000000000028,7.441458652400087L212.0000000000003,7.068638036189412L213.00000000000028,6.713844656296402L214.00000000000028,6.376270737189458L215.0000000000003,6.05513839739001L216.00000000000028,5.749699185307918L217.00000000000028,5.459233547140599L218.00000000000028,5.183050237255259L219.00000000000026,4.920485680547813L220.00000000000028,4.670903295395362L221.00000000000028,4.433692784993468L222.00000000000026,4.208269404093613L223.00000000000028,3.994073207431626L224.00000000000028,3.790568285466037L225.00000000000026,3.597241992418276L226.00000000000028,3.4136041710330574L227.00000000000028,3.239186377945458L228.00000000000026,3.0735411130550574L229.00000000000028,2.9162410558640772L230.0000000000003,2.7668783113304585L231.0000000000003,2.625063667420534L232.00000000000028,2.4904258662116945L233.0000000000003,2.3626108900964766L234.00000000000034,2.2412812643685243L235.00000000000034,2.126115377228757L236.0000000000003,2.016806818034155L237.00000000000034,1.913063734418273L238.00000000000037,1.8146082087421576L239.00000000000037,1.7211756541823888L240.00000000000034,1.6325142306319265L241.00000000000037,1.5483842804706285L242.0000000000004,1.468557784163039L243.00000000000037,1.3928178355523926L244.00000000000037,1.320958136643867L245.0000000000004,1.2527825116065117L246.00000000000043,1.1881044396680238L247.0000000000004,1.1267466065310998L248.0000000000004,1.0685404739021465L249.00000000000043,1.0133258666932363L250.00000000000045,0.9609505774318734L251.00000000000043,0.9112699873969063L252.00000000000043,0.8641467039823567L253.00000000000045,0.8194502137836821L254.00000000000048,0.7770565508926381L255.00000000000045,0.7368479798871874L256.00000000000045,0.6987126930001182L257.00000000000045,0.6625445209556347L258.0000000000005,0.628242656965881L259.0000000000005,0.5957113933875178L260.00000000000045,0.5648598705456607L261.0000000000005,0.5356018372426092L262.0000000000005,0.5078554224788547L263.0000000000005,0.481542917925708L264.0000000000005,0.45659057070059816L265.0000000000005,0.43292838600831374L266.00000000000057,0.41048993922538557L267.0000000000005,0.38921219701708765L268.0000000000005,0.3690353470904313L269.00000000000057,0.34990263619965845L270.00000000000057,0.3317602160348656L271.00000000000057,0.3145569966363837L272.00000000000057,0.2982445069929156L273.00000000000057,0.28277676249211936L274.0000000000006,0.2681101389075309L275.00000000000057,0.2542032526162643L276.00000000000057,0.24101684675579804L277.0000000000006,0.22851368303957997L278.0000000000006,0.21665843896298043L279.0000000000006,0.2054176101422911L280.0000000000006,0.19475941754114956L281.0000000000006,0.18465371934883024L282.0000000000006,0.17507192728584187L283.0000000000006,0.16598692712142338L284.0000000000006,0.15737300319810288L285.0000000000006,0.14920576676732367L286.0000000000007,0.14146208794903714L287.0000000000007,0.13412003113688797L288.0000000000007,0.1271587936790297L289.0000000000007,0.12055864767245339L290.0000000000007,0.11430088471607291L291.0000000000007,0.10836776347545651L292.0000000000007,0.10274245991917041L293.0000000000007,0.09740902009295382L294.00000000000074,0.09235231530482224L295.00000000000074,0.08755799959959631L296.0000000000007,0.08301246940885676L297.00000000000074,0.07870282526531014L298.00000000000074,0.0746168354786505L299.00000000000074,0.07074290167327035L300,0.06707002609329038" stroke="#1f77b4"></path><svg overflow="visible" data-type="text"><text xml:space="preserve" dominant-baseline="central" font-size="14" font-family="DejaVu Sans Mono" text-anchor="middle"><textPath href="#path-uuid-11" startOffset="50%"></textPath></text></svg></svg></svg></svg>