<svg xmlns="http://www.w3.org/2000/svg" width="417.421875" height="120" viewBox="-10 -10 417.421875 120"><svg overflow="visible" data-type="rect" y="0" x="0"><rect stroke-width="2" width="40" height="40" fill="#333333" stroke="#111111"></rect><svg overflow="visible" data-type="text" x="20" y="20"><text xml:space="preserve" dominant-baseline="central" font-size="14" font-family="DejaVu Sans Mono" text-anchor="middle" fill="#ffffff" stroke="transparent"></text></svg></svg><svg overflow="visible" data-type="path" y="20" x="60"><path id="path-uuid-1" fill="transparent" stroke-width="2" d="M 0 0 40 0" stroke="#c7c7c7"></path><svg overflow="visible" data-type="text"><text xml:space="preserve" dominant-baseline="central" font-size="14" font-family="DejaVu Sans Mono" text-anchor="middle"><textPath href="#path-uuid-1" startOffset="50%"></textPath></text></svg><g data-x="40" transform="translate(40, 0) rotate(0)" data-y="0" data-rotate="0"><path d="M 0 -2.5 5 0 0 2.5 A 1 2 0 0 0 0 -2.5" fill="#c7c7c7" stroke="#c7c7c7"></path></g></svg><svg overflow="visible" data-type="rect" y="0" x="125"><rect stroke-width="2" width="120" height="40" fill="#c7c7c7" stroke="#7f7f7f"></rect><svg overflow="visible" data-type="text" x="60" y="20"><text xml:space="preserve" dominant-baseline="central" font-size="14" font-family="DejaVu Sans Mono" text-anchor="middle" fill="#ffffff" stroke="transparent">model</text></svg></svg><svg overflow="visible" data-type="path" y="20" x="265"><path id="path-uuid-2" fill="transparent" stroke-width="2" d="M 0 0 40 0" stroke="#c7c7c7"></path><svg overflow="visible" data-type="text"><text xml:space="preserve" dominant-baseline="central" font-size="14" font-family="DejaVu Sans Mono" text-anchor="middle"><textPath href="#path-uuid-2" startOffset="50%"></textPath></text></svg><g data-x="40" transform="translate(40, 0) rotate(0)" data-y="0" data-rotate="0"><path d="M 0 -2.5 5 0 0 2.5 A 1 2 0 0 0 0 -2.5" fill="#c7c7c7" stroke="#c7c7c7"></path></g></svg><svg overflow="visible" data-type="text" y="12" x="330"><text xml:space="preserve" dominant-baseline="text-before-edge" font-size="14" font-family="DejaVu Sans Mono">white: 0</text></svg><svg overflow="visible" data-type="rect" y="60" x="0"><rect stroke-width="2" width="40" height="40" fill="#ffffff" stroke="#7f7f7f"></rect><svg overflow="visible" data-type="text" x="20" y="20"><text xml:space="preserve" dominant-baseline="central" font-size="14" font-family="DejaVu Sans Mono" text-anchor="middle" fill="#111111" stroke="transparent"></text></svg></svg><svg overflow="visible" data-type="path" y="80" x="60"><path id="path-uuid-3" fill="transparent" stroke-width="2" d="M 0 0 40 0" stroke="#c7c7c7"></path><svg overflow="visible" data-type="text"><text xml:space="preserve" dominant-baseline="central" font-size="14" font-family="DejaVu Sans Mono" text-anchor="middle"><textPath href="#path-uuid-3" startOffset="50%"></textPath></text></svg><g data-x="40" transform="translate(40, 0) rotate(0)" data-y="0" data-rotate="0"><path d="M 0 -2.5 5 0 0 2.5 A 1 2 0 0 0 0 -2.5" fill="#c7c7c7" stroke="#c7c7c7"></path></g></svg><svg overflow="visible" data-type="rect" y="60" x="125"><rect stroke-width="2" width="120" height="40" fill="#c7c7c7" stroke="#7f7f7f"></rect><svg overflow="visible" data-type="text" x="60" y="20"><text xml:space="preserve" dominant-baseline="central" font-size="14" font-family="DejaVu Sans Mono" text-anchor="middle" fill="#ffffff" stroke="transparent">model</text></svg></svg><svg overflow="visible" data-type="path" y="80" x="265"><path id="path-uuid-4" fill="transparent" stroke-width="2" d="M 0 0 40 0" stroke="#c7c7c7"></path><svg overflow="visible" data-type="text"><text xml:space="preserve" dominant-baseline="central" font-size="14" font-family="DejaVu Sans Mono" text-anchor="middle"><textPath href="#path-uuid-4" startOffset="50%"></textPath></text></svg><g data-x="40" transform="translate(40, 0) rotate(0)" data-y="0" data-rotate="0"><path d="M 0 -2.5 5 0 0 2.5 A 1 2 0 0 0 0 -2.5" fill="#c7c7c7" stroke="#c7c7c7"></path></g></svg><svg overflow="visible" data-type="text" y="72" x="330"><text xml:space="preserve" dominant-baseline="text-before-edge" font-size="14" font-family="DejaVu Sans Mono">white: 1</text></svg></svg>