<svg xmlns="http://www.w3.org/2000/svg" width="361.0546875" height="264" viewBox="-46.84375 -18 361.0546875 264"><svg overflow="visible"><svg overflow="visible" class="grid"><svg overflow="visible" data-type="path" class="tick tick-x"><path id="path-uuid-1" fill="transparent" stroke-width="2" d="M 0 200 0 0" stroke="#eee"></path><svg overflow="visible" data-type="text"><text xml:space="preserve" dominant-baseline="central" font-size="14" font-family="DejaVu Sans Mono" text-anchor="middle"><textPath href="#path-uuid-1" startOffset="50%"></textPath></text></svg></svg><svg overflow="visible" data-type="path" class="tick tick-x"><path id="path-uuid-2" fill="transparent" stroke-width="2" d="M 75 200 75 0" stroke="#eee"></path><svg overflow="visible" data-type="text"><text xml:space="preserve" dominant-baseline="central" font-size="14" font-family="DejaVu Sans Mono" text-anchor="middle"><textPath href="#path-uuid-2" startOffset="50%"></textPath></text></svg></svg><svg overflow="visible" data-type="path" class="tick tick-x"><path id="path-uuid-4" fill="transparent" stroke-width="2" d="M 225 200 225 0" stroke="#eee"></path><svg overflow="visible" data-type="text"><text xml:space="preserve" dominant-baseline="central" font-size="14" font-family="DejaVu Sans Mono" text-anchor="middle"><textPath href="#path-uuid-4" startOffset="50%"></textPath></text></svg></svg><svg overflow="visible" data-type="path" class="tick tick-x"><path id="path-uuid-5" fill="transparent" stroke-width="2" d="M 300 200 300 0" stroke="#eee"></path><svg overflow="visible" data-type="text"><text xml:space="preserve" dominant-baseline="central" font-size="14" font-family="DejaVu Sans Mono" text-anchor="middle"><textPath href="#path-uuid-5" startOffset="50%"></textPath></text></svg></svg><svg overflow="visible" data-type="path" class="tick tick-y"><path id="path-uuid-6" fill="transparent" stroke-width="2" d="M 0 200 300 200" stroke="#eee"></path><svg overflow="visible" data-type="text"><text xml:space="preserve" dominant-baseline="central" font-size="14" font-family="DejaVu Sans Mono" text-anchor="middle"><textPath href="#path-uuid-6" startOffset="50%"></textPath></text></svg></svg><svg overflow="visible" data-type="path" class="tick tick-y"><path id="path-uuid-8" fill="transparent" stroke-width="2" d="M 0 100 300 100" stroke="#eee"></path><svg overflow="visible" data-type="text"><text xml:space="preserve" dominant-baseline="central" font-size="14" font-family="DejaVu Sans Mono" text-anchor="middle"><textPath href="#path-uuid-8" startOffset="50%"></textPath></text></svg></svg><svg overflow="visible" data-type="path" class="tick tick-y"><path id="path-uuid-9" fill="transparent" stroke-width="2" d="M 0 50 300 50" stroke="#eee"></path><svg overflow="visible" data-type="text"><text xml:space="preserve" dominant-baseline="central" font-size="14" font-family="DejaVu Sans Mono" text-anchor="middle"><textPath href="#path-uuid-9" startOffset="50%"></textPath></text></svg></svg><svg overflow="visible" data-type="path" class="tick tick-y"><path id="path-uuid-10" fill="transparent" stroke-width="2" d="M 0 0 300 0" stroke="#eee"></path><svg overflow="visible" data-type="text"><text xml:space="preserve" dominant-baseline="central" font-size="14" font-family="DejaVu Sans Mono" text-anchor="middle"><textPath href="#path-uuid-10" startOffset="50%"></textPath></text></svg></svg><svg overflow="visible" data-type="path" class="tick tick-x"><path id="path-uuid-3" fill="transparent" stroke-width="2" d="M 150 200 150 0" stroke="#111111"></path><svg overflow="visible" data-type="text"><text xml:space="preserve" dominant-baseline="central" font-size="14" font-family="DejaVu Sans Mono" text-anchor="middle"><textPath href="#path-uuid-3" startOffset="50%"></textPath></text></svg></svg><svg overflow="visible" data-type="path" class="tick tick-y"><path id="path-uuid-7" fill="transparent" stroke-width="2" d="M 0 150 300 150" stroke="#111111"></path><svg overflow="visible" data-type="text"><text xml:space="preserve" dominant-baseline="central" font-size="14" font-family="DejaVu Sans Mono" text-anchor="middle"><textPath href="#path-uuid-7" startOffset="50%"></textPath></text></svg></svg></svg><svg overflow="visible" class="axis axis-x" y="220"><svg overflow="visible" data-type="text" class="tick-label tick-label-x" x="-8.421875"><text xml:space="preserve" dominant-baseline="text-before-edge" font-size="14" font-family="DejaVu Sans Mono">-2</text></svg><svg overflow="visible" data-type="text" class="tick-label tick-label-x" x="66.578125"><text xml:space="preserve" dominant-baseline="text-before-edge" font-size="14" font-family="DejaVu Sans Mono">-1</text></svg><svg overflow="visible" data-type="text" class="tick-label tick-label-x" x="145.7890625"><text xml:space="preserve" dominant-baseline="text-before-edge" font-size="14" font-family="DejaVu Sans Mono">0</text></svg><svg overflow="visible" data-type="text" class="tick-label tick-label-x" x="220.7890625"><text xml:space="preserve" dominant-baseline="text-before-edge" font-size="14" font-family="DejaVu Sans Mono">1</text></svg><svg overflow="visible" data-type="text" class="tick-label tick-label-x" x="295.7890625"><text xml:space="preserve" dominant-baseline="text-before-edge" font-size="14" font-family="DejaVu Sans Mono">2</text></svg></svg><svg overflow="visible" class="axis axis-y" x="-36.84375"><svg overflow="visible" data-type="text" class="tick-label tick-label-y" y="192" x="0"><text xml:space="preserve" dominant-baseline="text-before-edge" font-size="14" font-family="DejaVu Sans Mono">-1</text></svg><svg overflow="visible" data-type="text" class="tick-label tick-label-y" y="142" x="4.2109375"><text xml:space="preserve" dominant-baseline="text-before-edge" font-size="14" font-family="DejaVu Sans Mono">0</text></svg><svg overflow="visible" data-type="text" class="tick-label tick-label-y" y="92" x="4.2109375"><text xml:space="preserve" dominant-baseline="text-before-edge" font-size="14" font-family="DejaVu Sans Mono">1</text></svg><svg overflow="visible" data-type="text" class="tick-label tick-label-y" y="42" x="4.2109375"><text xml:space="preserve" dominant-baseline="text-before-edge" font-size="14" font-family="DejaVu Sans Mono">2</text></svg><svg overflow="visible" data-type="text" class="tick-label tick-label-y" y="-8" x="4.2109375"><text xml:space="preserve" dominant-baseline="text-before-edge" font-size="14" font-family="DejaVu Sans Mono">3</text></svg></svg><svg overflow="visible" data-type="path"><path id="path-uuid-11" fill="transparent" stroke-width="2" d="M85.00000000000047,0L86.00000000000045,4.364444444446491L87.00000000000044,8.880000000002013L88.00000000000045,13.324444444446414L89.00000000000045,17.69777777777972L90.00000000000044,22.000000000001904L91.00000000000044,26.231111111112995L92.00000000000044,30.391111111112934L93.00000000000045,34.48000000000178L94.00000000000044,38.497777777779504L95.00000000000043,42.44444444444616L96.00000000000044,46.32000000000167L97.00000000000044,50.124444444446084L98.00000000000043,53.857777777779376L99.00000000000043,57.52000000000157L100.00000000000043,61.11111111111262L101.00000000000044,64.6311111111126L102.00000000000043,68.08000000000146L103.00000000000041,71.45777777777917L104.00000000000043,74.76444444444583L105.00000000000043,78.00000000000134L106.00000000000041,81.16444444444575L107.00000000000041,84.25777777777905L108.00000000000041,87.28000000000122L109.00000000000041,90.23111111111231L110.00000000000041,93.11111111111228L111.0000000000004,95.92000000000111L112.0000000000004,98.65777777777889L113.00000000000041,101.3244444444455L114.0000000000004,103.92000000000104L115.0000000000004,106.44444444444542L116.0000000000004,108.89777777777874L117.0000000000004,111.28000000000094L118.0000000000004,113.59111111111201L119.00000000000038,115.83111111111197L120.00000000000038,118.00000000000084L121.0000000000004,120.09777777777857L122.00000000000038,122.12444444444522L123.00000000000037,124.08000000000075L124.00000000000038,125.96444444444515L125.00000000000038,127.77777777777845L126.00000000000038,129.52000000000066L127.00000000000037,131.19111111111172L128.00000000000037,132.79111111111172L129.00000000000037,134.32000000000056L130.00000000000037,135.7777777777783L131.00000000000037,137.16444444444494L132.00000000000037,138.48000000000047L133.00000000000037,139.72444444444488L134.00000000000037,140.8977777777782L135.00000000000037,142.0000000000004L136.00000000000037,143.03111111111147L137.00000000000037,143.99111111111145L138.00000000000037,144.88000000000034L139.00000000000037,145.69777777777807L140.00000000000037,146.4444444444447L141.00000000000037,147.12000000000023L142.00000000000037,147.72444444444466L143.00000000000037,148.25777777777796L144.00000000000037,148.72000000000017L145.00000000000037,149.11111111111126L146.00000000000037,149.43111111111122L147.00000000000037,149.68000000000006L148.00000000000037,149.85777777777784L149.00000000000037,149.96444444444447L150.00000000000037,150L151.00000000000037,149.96444444444444L152.00000000000037,149.85777777777773L153.00000000000037,149.67999999999992L154.00000000000037,149.431111111111L155.00000000000037,149.11111111111097L156.00000000000037,148.71999999999986L157.00000000000037,148.2577777777776L158.0000000000004,147.72444444444423L159.00000000000037,147.11999999999978L160.00000000000037,146.44444444444417L161.0000000000004,145.69777777777747L162.00000000000037,144.87999999999968L163.00000000000037,143.99111111111077L164.0000000000004,143.03111111111073L165.00000000000037,141.9999999999996L166.00000000000037,140.89777777777735L167.00000000000037,139.724444444444L168.00000000000037,138.47999999999954L169.00000000000037,137.16444444444394L170.00000000000037,135.77777777777726L171.00000000000034,134.31999999999945L172.00000000000037,132.79111111111052L173.00000000000037,131.1911111111105L174.00000000000034,129.51999999999938L175.00000000000037,127.77777777777713L176.00000000000037,125.96444444444379L177.00000000000037,124.07999999999932L178.00000000000034,122.12444444444374L179.00000000000034,120.09777777777705L180.00000000000037,117.99999999999925L181.00000000000034,115.83111111111035L182.00000000000034,113.59111111111032L183.00000000000037,111.27999999999919L184.00000000000034,108.89777777777694L185.00000000000034,106.44444444444359L186.00000000000034,103.91999999999912L187.0000000000003,101.32444444444356L188.00000000000034,98.65777777777687L189.00000000000034,95.91999999999908L190.0000000000003,93.11111111111016L191.00000000000034,90.23111111111015L192.00000000000034,87.279999999999L193.00000000000034,84.2577777777768L194.0000000000003,81.16444444444343L195.0000000000003,77.99999999999896L196.00000000000034,74.76444444444338L197.0000000000003,71.4577777777767L198.0000000000003,68.07999999999893L199.00000000000034,64.63111111111002L200.0000000000003,61.111111111110006L201.0000000000003,57.51999999999887L202.0000000000003,53.85777777777662L203.00000000000028,50.12444444444327L204.0000000000003,46.31999999999883L205.0000000000003,42.44444444444326L206.00000000000028,38.49777777777658L207.0000000000003,34.47999999999877L208.0000000000003,30.391111111109893L209.00000000000028,26.23111111110987L210.00000000000028,21.99999999999872L211.00000000000028,17.69777777777651L212.0000000000003,13.324444444443174L213.00000000000028,8.879999999998716L214.00000000000028,4.364444444443137L215.0000000000003,0" stroke="#1f77b4"></path><svg overflow="visible" data-type="text"><text xml:space="preserve" dominant-baseline="central" font-size="14" font-family="DejaVu Sans Mono" text-anchor="middle"><textPath href="#path-uuid-11" startOffset="50%"></textPath></text></svg></svg><svg overflow="visible" data-type="path"><path id="path-uuid-12" fill="transparent" stroke-width="2" d="M0,100L1.0000000000000064,100.66444444444444L2.000000000000013,101.32444444444445L3.0000000000000195,101.98000000000002L4.000000000000026,102.63111111111112L5.000000000000032,103.2777777777778L6.000000000000039,103.92000000000003L7.000000000000045,104.5577777777778L8.000000000000052,105.19111111111114L9.000000000000059,105.82000000000004L10.000000000000064,106.44444444444449L11.000000000000071,107.06444444444449L12.000000000000078,107.68000000000004L13.000000000000083,108.29111111111116L14.00000000000009,108.89777777777783L15.000000000000096,109.50000000000006L16.000000000000103,110.09777777777784L17.00000000000011,110.69111111111117L18.000000000000117,111.28000000000007L19.00000000000012,111.86444444444452L20.000000000000128,112.44444444444453L21.000000000000135,113.02000000000008L22.000000000000142,113.5911111111112L23.00000000000015,114.15777777777787L24.000000000000156,114.72000000000008L25.00000000000016,115.27777777777787L26.000000000000167,115.8311111111112L27.000000000000174,116.3800000000001L28.00000000000018,116.92444444444455L29.00000000000019,117.46444444444455L30.000000000000192,118.0000000000001L31.0000000000002,118.53111111111122L32.000000000000206,119.05777777777789L33.00000000000021,119.58000000000011L34.00000000000022,120.09777777777789L35.00000000000023,120.61111111111123L36.000000000000234,121.12000000000012L37.00000000000024,121.62444444444456L38.00000000000024,122.12444444444456L39.00000000000025,122.62000000000013L40.000000000000256,123.11111111111124L41.00000000000026,123.5977777777779L42.00000000000027,124.08000000000013L43.00000000000028,124.55777777777791L44.000000000000284,125.03111111111124L45.00000000000029,125.50000000000013L46.0000000000003,125.96444444444458L47.000000000000306,126.42444444444459L48.00000000000031,126.88000000000014L49.00000000000031,127.33111111111126L50.00000000000032,127.77777777777793L51.00000000000033,128.22000000000014L52.000000000000334,128.65777777777794L53.00000000000034,129.09111111111127L54.00000000000035,129.52000000000015L55.000000000000355,129.9444444444446L56.00000000000036,130.3644444444446L57.00000000000037,130.78000000000014L58.00000000000038,131.19111111111124L59.00000000000038,131.59777777777794L60.000000000000384,132.00000000000017L61.00000000000039,132.39777777777795L62.0000000000004,132.79111111111126L63.000000000000405,133.18000000000015L64.00000000000041,133.5644444444446L65.00000000000041,133.9444444444446L66.00000000000043,134.32000000000016L67.00000000000043,134.69111111111127L68.00000000000044,135.05777777777794L69.00000000000044,135.42000000000016L70.00000000000045,135.77777777777794L71.00000000000045,136.13111111111127L72.00000000000047,136.48000000000016L73.00000000000047,136.8244444444446L74.00000000000048,137.1644444444446L75.00000000000047,137.50000000000017L76.00000000000047,137.83111111111128L77.00000000000048,138.15777777777794L78.00000000000047,138.48000000000013L79.00000000000045,138.79777777777792L80.00000000000047,139.11111111111126L81.00000000000047,139.42000000000013L82.00000000000045,139.7244444444446L83.00000000000045,140.02444444444458L84.00000000000045,140.32000000000014L85.00000000000047,140.61111111111126L86.00000000000045,140.89777777777792L87.00000000000044,141.18000000000012L88.00000000000045,141.4577777777779L89.00000000000045,141.73111111111123L90.00000000000044,142.0000000000001L91.00000000000044,142.26444444444456L92.00000000000044,142.52444444444455L93.00000000000045,142.78000000000011L94.00000000000044,143.03111111111122L95.00000000000043,143.27777777777789L96.00000000000044,143.5200000000001L97.00000000000044,143.75777777777787L98.00000000000043,143.99111111111122L99.00000000000043,144.22000000000008L100.00000000000043,144.44444444444454L101.00000000000044,144.66444444444454L102.00000000000043,144.88000000000008L103.00000000000041,145.09111111111122L104.00000000000043,145.29777777777787L105.00000000000043,145.50000000000009L106.00000000000041,145.69777777777784L107.00000000000041,145.8911111111112L108.00000000000041,146.08000000000007L109.00000000000041,146.2644444444445L110.00000000000041,146.4444444444445L111.0000000000004,146.62000000000006L112.0000000000004,146.79111111111118L113.00000000000041,146.95777777777784L114.0000000000004,147.12000000000006L115.0000000000004,147.27777777777783L116.0000000000004,147.43111111111116L117.0000000000004,147.58000000000004L118.0000000000004,147.7244444444445L119.00000000000038,147.8644444444445L120.00000000000038,148.00000000000006L121.0000000000004,148.13111111111115L122.00000000000038,148.25777777777782L123.00000000000037,148.38000000000005L124.00000000000038,148.49777777777783L125.00000000000038,148.61111111111114L126.00000000000038,148.72000000000003L127.00000000000037,148.82444444444448L128.00000000000037,148.92444444444448L129.00000000000037,149.02000000000004L130.00000000000037,149.11111111111114L131.00000000000037,149.19777777777782L132.00000000000037,149.28000000000003L133.00000000000037,149.3577777777778L134.00000000000037,149.43111111111114L135.00000000000037,149.50000000000003L136.00000000000037,149.56444444444446L137.00000000000037,149.62444444444446L138.00000000000037,149.68L139.00000000000037,149.73111111111112L140.00000000000037,149.7777777777778L141.00000000000037,149.82000000000002L142.00000000000037,149.85777777777778L143.00000000000037,149.89111111111112L144.00000000000037,149.92000000000002L145.00000000000037,149.94444444444446L146.00000000000037,149.96444444444444L147.00000000000037,149.98000000000002L148.00000000000037,149.9911111111111L149.00000000000037,149.99777777777777L150.00000000000037,150L151.00000000000037,149.99777777777777L152.00000000000037,149.9911111111111L153.00000000000037,149.98L154.00000000000037,149.96444444444444L155.00000000000037,149.94444444444443L156.00000000000037,149.92L157.00000000000037,149.8911111111111L158.0000000000004,149.85777777777776L159.00000000000037,149.82L160.00000000000037,149.77777777777777L161.0000000000004,149.7311111111111L162.00000000000037,149.67999999999998L163.00000000000037,149.62444444444444L164.0000000000004,149.5644444444444L165.00000000000037,149.49999999999997L166.00000000000037,149.43111111111108L167.00000000000037,149.35777777777776L168.00000000000037,149.27999999999997L169.00000000000037,149.19777777777776L170.00000000000037,149.1111111111111L171.00000000000034,149.01999999999995L172.00000000000037,148.92444444444442L173.00000000000037,148.8244444444444L174.00000000000034,148.71999999999997L175.00000000000037,148.6111111111111L176.00000000000037,148.49777777777774L177.00000000000037,148.37999999999994L178.00000000000034,148.25777777777773L179.00000000000034,148.13111111111107L180.00000000000037,147.99999999999994L181.00000000000034,147.86444444444442L182.00000000000034,147.7244444444444L183.00000000000037,147.57999999999993L184.00000000000034,147.43111111111105L185.00000000000034,147.27777777777771L186.00000000000034,147.11999999999995L187.0000000000003,146.95777777777772L188.00000000000034,146.79111111111104L189.00000000000034,146.61999999999995L190.0000000000003,146.4444444444444L191.00000000000034,146.2644444444444L192.00000000000034,146.07999999999993L193.00000000000034,145.89111111111106L194.0000000000003,145.69777777777773L195.0000000000003,145.49999999999994L196.00000000000034,145.29777777777772L197.0000000000003,145.09111111111105L198.0000000000003,144.87999999999994L199.00000000000034,144.66444444444437L200.0000000000003,144.44444444444437L201.0000000000003,144.2199999999999L202.0000000000003,143.99111111111102L203.00000000000028,143.7577777777777L204.0000000000003,143.51999999999992L205.0000000000003,143.27777777777771L206.00000000000028,143.03111111111104L207.0000000000003,142.77999999999992L208.0000000000003,142.52444444444436L209.00000000000028,142.26444444444436L210.00000000000028,141.99999999999994L211.00000000000028,141.73111111111103L212.0000000000003,141.4577777777777L213.00000000000028,141.17999999999992L214.00000000000028,140.8977777777777L215.0000000000003,140.61111111111103L216.00000000000028,140.3199999999999L217.00000000000028,140.02444444444436L218.00000000000028,139.72444444444437L219.00000000000026,139.4199999999999L220.00000000000028,139.11111111111103L221.00000000000028,138.7977777777777L222.00000000000026,138.4799999999999L223.00000000000028,138.15777777777768L224.00000000000028,137.83111111111103L225.00000000000026,137.49999999999991L226.00000000000028,137.16444444444437L227.00000000000028,136.82444444444434L228.00000000000026,136.4799999999999L229.00000000000028,136.131111111111L230.0000000000003,135.77777777777766L231.0000000000003,135.4199999999999L232.00000000000028,135.05777777777766L233.0000000000003,134.691111111111L234.00000000000034,134.31999999999988L235.00000000000034,133.94444444444431L236.0000000000003,133.56444444444432L237.00000000000034,133.17999999999986L238.00000000000037,132.79111111111098L239.00000000000037,132.39777777777763L240.00000000000034,131.99999999999986L241.00000000000037,131.59777777777762L242.0000000000004,131.19111111111096L243.00000000000037,130.77999999999986L244.00000000000037,130.3644444444443L245.0000000000004,129.9444444444443L246.00000000000043,129.51999999999984L247.0000000000004,129.09111111111093L248.0000000000004,128.6577777777776L249.00000000000043,128.2199999999998L250.00000000000045,127.77777777777759L251.00000000000043,127.33111111111091L252.00000000000043,126.87999999999981L253.00000000000045,126.42444444444423L254.00000000000048,125.96444444444424L255.00000000000045,125.49999999999979L256.00000000000045,125.03111111111089L257.00000000000045,124.55777777777755L258.0000000000005,124.07999999999977L259.0000000000005,123.59777777777754L260.00000000000045,123.11111111111087L261.0000000000005,122.61999999999975L262.0000000000005,122.1244444444442L263.0000000000005,121.62444444444418L264.0000000000005,121.11999999999973L265.0000000000005,120.61111111111084L266.00000000000057,120.09777777777751L267.0000000000005,119.57999999999971L268.0000000000005,119.05777777777749L269.00000000000057,118.53111111111082L270.00000000000057,117.9999999999997L271.00000000000057,117.46444444444415L272.00000000000057,116.92444444444415L273.00000000000057,116.37999999999968L274.0000000000006,115.8311111111108L275.00000000000057,115.27777777777746L276.00000000000057,114.71999999999967L277.0000000000006,114.15777777777744L278.0000000000006,113.59111111111076L279.0000000000006,113.01999999999965L280.0000000000006,112.44444444444409L281.0000000000006,111.86444444444408L282.0000000000006,111.27999999999962L283.0000000000006,110.69111111111074L284.0000000000006,110.0977777777774L285.0000000000006,109.4999999999996L286.0000000000007,108.89777777777738L287.0000000000007,108.29111111111071L288.0000000000007,107.67999999999958L289.0000000000007,107.06444444444404L290.0000000000007,106.44444444444402L291.0000000000007,105.81999999999955L292.0000000000007,105.19111111111067L293.0000000000007,104.55777777777733L294.00000000000074,103.91999999999955L295.00000000000074,103.27777777777732L296.0000000000007,102.63111111111064L297.00000000000074,101.97999999999952L298.00000000000074,101.32444444444396L299.00000000000074,100.66444444444396L300,100" stroke="#2ca02c"></path><svg overflow="visible" data-type="text"><text xml:space="preserve" dominant-baseline="central" font-size="14" font-family="DejaVu Sans Mono" text-anchor="middle"><textPath href="#path-uuid-12" startOffset="50%"></textPath></text></svg></svg><svg overflow="visible" data-type="path"><path id="path-uuid-13" fill="transparent" stroke-width="2" d="M20.000000000000128,0L21.000000000000135,2.0800000000002967L22.000000000000142,4.364444444444757L23.00000000000015,6.631111111111466L24.000000000000156,8.880000000000365L25.00000000000016,11.111111111111484L26.000000000000167,13.324444444444794L27.000000000000174,15.52000000000038L28.00000000000018,17.697777777778157L29.00000000000019,19.857777777778182L30.000000000000192,22.000000000000426L31.0000000000002,24.124444444444862L32.000000000000206,26.231111111111545L33.00000000000021,28.320000000000448L34.00000000000022,30.39111111111157L35.00000000000023,32.44444444444491L36.000000000000234,34.48000000000047L37.00000000000024,36.49777777777825L38.00000000000024,38.49777777777828L39.00000000000025,40.4800000000005L40.000000000000256,42.44444444444494L41.00000000000026,44.39111111111163L42.00000000000027,46.320000000000505L43.00000000000028,48.23111111111166L44.000000000000284,50.124444444445004L45.00000000000029,52.00000000000054L46.0000000000003,53.857777777778324L47.000000000000306,55.69777777777833L48.00000000000031,57.52000000000055L49.00000000000031,59.32444444444499L50.00000000000032,61.11111111111168L51.00000000000033,62.88000000000059L52.000000000000334,64.6311111111117L53.00000000000034,66.36444444444501L54.00000000000035,68.08000000000058L55.000000000000355,69.7777777777784L56.00000000000036,71.45777777777838L57.00000000000037,73.1200000000006L58.00000000000038,74.76444444444506L59.00000000000038,76.39111111111173L60.000000000000384,78.0000000000006L61.00000000000039,79.59111111111174L62.0000000000004,81.16444444444508L63.000000000000405,82.72000000000061L64.00000000000041,84.25777777777841L65.00000000000041,85.7777777777784L66.00000000000043,87.28000000000064L67.00000000000043,88.76444444444509L68.00000000000044,90.23111111111174L69.00000000000044,91.68000000000065L70.00000000000045,93.11111111111177L71.00000000000045,94.52444444444508L72.00000000000047,95.92000000000063L73.00000000000047,97.29777777777842L74.00000000000048,98.65777777777842L75.00000000000047,100.00000000000064L76.00000000000047,101.32444444444506L77.00000000000048,102.63111111111172L78.00000000000047,103.9200000000006L79.00000000000045,105.1911111111117L80.00000000000047,106.44444444444503L81.00000000000047,107.68000000000058L82.00000000000045,108.89777777777834L83.00000000000045,110.09777777777833L84.00000000000045,111.28000000000054L85.00000000000047,112.44444444444497L86.00000000000045,113.59111111111162L87.00000000000044,114.72000000000051L88.00000000000045,115.83111111111161L89.00000000000045,116.92444444444493L90.00000000000044,118.00000000000048L91.00000000000044,119.05777777777824L92.00000000000044,120.09777777777823L93.00000000000045,121.12000000000045L94.00000000000044,122.12444444444488L95.00000000000043,123.11111111111154L96.00000000000044,124.08000000000041L97.00000000000044,125.03111111111151L98.00000000000043,125.96444444444485L99.00000000000043,126.8800000000004L100.00000000000043,127.77777777777816L101.00000000000044,128.65777777777816L102.00000000000043,129.52000000000038L103.00000000000041,130.3644444444448L104.00000000000043,131.19111111111147L105.00000000000043,132.00000000000034L106.00000000000041,132.79111111111143L107.00000000000041,133.56444444444475L108.00000000000041,134.3200000000003L109.00000000000041,135.05777777777809L110.00000000000041,135.77777777777806L111.0000000000004,136.48000000000027L112.0000000000004,137.1644444444447L113.00000000000041,137.83111111111137L114.0000000000004,138.48000000000025L115.0000000000004,139.11111111111137L116.0000000000004,139.72444444444469L117.0000000000004,140.32000000000022L118.0000000000004,140.897777777778L119.00000000000038,141.457777777778L120.00000000000038,142.0000000000002L121.0000000000004,142.52444444444464L122.00000000000038,143.0311111111113L123.00000000000037,143.52000000000018L124.00000000000038,143.9911111111113L125.00000000000038,144.4444444444446L126.00000000000038,144.88000000000017L127.00000000000037,145.29777777777792L128.00000000000037,145.69777777777793L129.00000000000037,146.08000000000015L130.00000000000037,146.44444444444457L131.00000000000037,146.79111111111123L132.00000000000037,147.12000000000012L133.00000000000037,147.43111111111122L134.00000000000037,147.72444444444454L135.00000000000037,148.0000000000001L136.00000000000037,148.25777777777787L137.00000000000037,148.49777777777786L138.00000000000037,148.72000000000008L139.00000000000037,148.92444444444453L140.00000000000037,149.11111111111117L141.00000000000037,149.28000000000006L142.00000000000037,149.43111111111116L143.00000000000037,149.5644444444445L144.00000000000037,149.68000000000004L145.00000000000037,149.7777777777778L146.00000000000037,149.8577777777778L147.00000000000037,149.92000000000002L148.00000000000037,149.96444444444444L149.00000000000037,149.9911111111111L150.00000000000037,150L151.00000000000037,149.9911111111111L152.00000000000037,149.96444444444444L153.00000000000037,149.91999999999996L154.00000000000037,149.85777777777776L155.00000000000037,149.77777777777774L156.00000000000037,149.67999999999995L157.00000000000037,149.5644444444444L158.0000000000004,149.43111111111105L159.00000000000037,149.27999999999994L160.00000000000037,149.11111111111106L161.0000000000004,148.92444444444436L162.00000000000037,148.7199999999999L163.00000000000037,148.49777777777769L164.0000000000004,148.25777777777768L165.00000000000037,147.9999999999999L166.00000000000037,147.72444444444434L167.00000000000037,147.431111111111L168.00000000000037,147.1199999999999L169.00000000000037,146.79111111111098L170.00000000000037,146.44444444444431L171.00000000000034,146.07999999999987L172.00000000000037,145.69777777777765L173.00000000000037,145.29777777777764L174.00000000000034,144.87999999999982L175.00000000000037,144.4444444444443L176.00000000000037,143.99111111111094L177.00000000000037,143.5199999999998L178.00000000000034,143.03111111111093L179.00000000000034,142.52444444444427L180.00000000000037,141.99999999999983L181.00000000000034,141.45777777777758L182.00000000000034,140.89777777777758L183.00000000000037,140.3199999999998L184.00000000000034,139.72444444444423L185.00000000000034,139.1111111111109L186.00000000000034,138.4799999999998L187.0000000000003,137.83111111111089L188.00000000000034,137.16444444444423L189.00000000000034,136.47999999999976L190.0000000000003,135.77777777777754L191.00000000000034,135.05777777777755L192.00000000000034,134.31999999999977L193.00000000000034,133.56444444444418L194.0000000000003,132.79111111111087L195.0000000000003,131.99999999999974L196.00000000000034,131.19111111111084L197.0000000000003,130.3644444444442L198.0000000000003,129.51999999999973L199.00000000000034,128.6577777777775L200.0000000000003,127.7777777777775L201.0000000000003,126.87999999999971L202.0000000000003,125.96444444444415L203.00000000000028,125.03111111111083L204.0000000000003,124.0799999999997L205.0000000000003,123.11111111111082L206.00000000000028,122.12444444444415L207.0000000000003,121.11999999999969L208.0000000000003,120.09777777777747L209.00000000000028,119.05777777777746L210.00000000000028,117.99999999999969L211.00000000000028,116.92444444444412L212.0000000000003,115.8311111111108L213.00000000000028,114.71999999999967L214.00000000000028,113.59111111111078L215.0000000000003,112.44444444444412L216.00000000000028,111.27999999999967L217.00000000000028,110.09777777777745L218.00000000000028,108.89777777777743L219.00000000000026,107.67999999999967L220.00000000000028,106.4444444444441L221.00000000000028,105.19111111111077L222.00000000000026,103.91999999999966L223.00000000000028,102.63111111111076L224.00000000000028,101.32444444444408L225.00000000000026,99.99999999999964L226.00000000000028,98.65777777777743L227.00000000000028,97.2977777777774L228.00000000000026,95.9199999999996L229.00000000000028,94.52444444444403L230.0000000000003,93.1111111111107L231.0000000000003,91.67999999999957L232.00000000000028,90.23111111111066L233.0000000000003,88.76444444444398L234.00000000000034,87.27999999999952L235.00000000000034,85.77777777777729L236.0000000000003,84.25777777777728L237.00000000000034,82.71999999999946L238.00000000000037,81.16444444444389L239.00000000000037,79.59111111111055L240.00000000000034,77.9999999999994L241.00000000000037,76.3911111111105L242.0000000000004,74.76444444444384L243.00000000000037,73.11999999999937L244.00000000000037,71.45777777777712L245.0000000000004,69.77777777777709L246.00000000000043,68.07999999999933L247.0000000000004,66.36444444444373L248.0000000000004,64.63111111111039L249.00000000000043,62.87999999999926L250.00000000000045,61.11111111111035L251.00000000000043,59.32444444444366L252.00000000000043,57.519999999999214L253.00000000000045,55.69777777777696L254.00000000000048,53.85777777777693L255.00000000000045,51.99999999999915L256.00000000000045,50.12444444444358L257.00000000000045,48.23111111111021L258.0000000000005,46.319999999999084L259.0000000000005,44.39111111111015L260.00000000000045,42.44444444444349L261.0000000000005,40.479999999998995L262.0000000000005,38.497777777776776L263.0000000000005,36.49777777777675L264.0000000000005,34.47999999999897L265.0000000000005,32.44444444444338L266.00000000000057,30.391111111110007L267.0000000000005,28.319999999998885L268.0000000000005,26.231111111109954L269.00000000000057,24.12444444444327L270.00000000000057,21.999999999998806L271.00000000000057,19.857777777776562L272.00000000000057,17.697777777776537L273.00000000000057,15.519999999998731L274.0000000000006,13.324444444443174L275.00000000000057,11.111111111109807L276.00000000000057,8.87999999999866L277.0000000000006,6.631111111109732L278.0000000000006,4.364444444443052L279.0000000000006,2.0799999999985914L280.0000000000006,0" stroke="#d62728"></path><svg overflow="visible" data-type="text"><text xml:space="preserve" dominant-baseline="central" font-size="14" font-family="DejaVu Sans Mono" text-anchor="middle"><textPath href="#path-uuid-13" startOffset="50%"></textPath></text></svg></svg></svg></svg>