<svg xmlns="http://www.w3.org/2000/svg" width="361.0546875" height="264" viewBox="-46.84375 -18 361.0546875 264"><svg overflow="visible"><svg overflow="visible" class="grid"><svg overflow="visible" data-type="path" class="tick tick-x"><path id="path-uuid-1" fill="transparent" stroke-width="2" d="M 0 200 0 0" stroke="#eee"></path><svg overflow="visible" data-type="text"><text xml:space="preserve" dominant-baseline="central" font-size="14" font-family="DejaVu Sans Mono" text-anchor="middle"><textPath href="#path-uuid-1" startOffset="50%"></textPath></text></svg></svg><svg overflow="visible" data-type="path" class="tick tick-x"><path id="path-uuid-2" fill="transparent" stroke-width="2" d="M 75 200 75 0" stroke="#eee"></path><svg overflow="visible" data-type="text"><text xml:space="preserve" dominant-baseline="central" font-size="14" font-family="DejaVu Sans Mono" text-anchor="middle"><textPath href="#path-uuid-2" startOffset="50%"></textPath></text></svg></svg><svg overflow="visible" data-type="path" class="tick tick-x"><path id="path-uuid-4" fill="transparent" stroke-width="2" d="M 225 200 225 0" stroke="#eee"></path><svg overflow="visible" data-type="text"><text xml:space="preserve" dominant-baseline="central" font-size="14" font-family="DejaVu Sans Mono" text-anchor="middle"><textPath href="#path-uuid-4" startOffset="50%"></textPath></text></svg></svg><svg overflow="visible" data-type="path" class="tick tick-x"><path id="path-uuid-5" fill="transparent" stroke-width="2" d="M 300 200 300 0" stroke="#eee"></path><svg overflow="visible" data-type="text"><text xml:space="preserve" dominant-baseline="central" font-size="14" font-family="DejaVu Sans Mono" text-anchor="middle"><textPath href="#path-uuid-5" startOffset="50%"></textPath></text></svg></svg><svg overflow="visible" data-type="path" class="tick tick-y"><path id="path-uuid-6" fill="transparent" stroke-width="2" d="M 0 200 300 200" stroke="#eee"></path><svg overflow="visible" data-type="text"><text xml:space="preserve" dominant-baseline="central" font-size="14" font-family="DejaVu Sans Mono" text-anchor="middle"><textPath href="#path-uuid-6" startOffset="50%"></textPath></text></svg></svg><svg overflow="visible" data-type="path" class="tick tick-y"><path id="path-uuid-7" fill="transparent" stroke-width="2" d="M 0 150 300 150" stroke="#eee"></path><svg overflow="visible" data-type="text"><text xml:space="preserve" dominant-baseline="central" font-size="14" font-family="DejaVu Sans Mono" text-anchor="middle"><textPath href="#path-uuid-7" startOffset="50%"></textPath></text></svg></svg><svg overflow="visible" data-type="path" class="tick tick-y"><path id="path-uuid-9" fill="transparent" stroke-width="2" d="M 0 50 300 50" stroke="#eee"></path><svg overflow="visible" data-type="text"><text xml:space="preserve" dominant-baseline="central" font-size="14" font-family="DejaVu Sans Mono" text-anchor="middle"><textPath href="#path-uuid-9" startOffset="50%"></textPath></text></svg></svg><svg overflow="visible" data-type="path" class="tick tick-y"><path id="path-uuid-10" fill="transparent" stroke-width="2" d="M 0 0 300 0" stroke="#eee"></path><svg overflow="visible" data-type="text"><text xml:space="preserve" dominant-baseline="central" font-size="14" font-family="DejaVu Sans Mono" text-anchor="middle"><textPath href="#path-uuid-10" startOffset="50%"></textPath></text></svg></svg><svg overflow="visible" data-type="path" class="tick tick-x"><path id="path-uuid-3" fill="transparent" stroke-width="2" d="M 150 200 150 0" stroke="#111111"></path><svg overflow="visible" data-type="text"><text xml:space="preserve" dominant-baseline="central" font-size="14" font-family="DejaVu Sans Mono" text-anchor="middle"><textPath href="#path-uuid-3" startOffset="50%"></textPath></text></svg></svg><svg overflow="visible" data-type="path" class="tick tick-y"><path id="path-uuid-8" fill="transparent" stroke-width="2" d="M 0 100 300 100" stroke="#111111"></path><svg overflow="visible" data-type="text"><text xml:space="preserve" dominant-baseline="central" font-size="14" font-family="DejaVu Sans Mono" text-anchor="middle"><textPath href="#path-uuid-8" startOffset="50%"></textPath></text></svg></svg></svg><svg overflow="visible" class="axis axis-x" y="220"><svg overflow="visible" data-type="text" class="tick-label tick-label-x" x="-8.421875"><text xml:space="preserve" dominant-baseline="text-before-edge" font-size="14" font-family="DejaVu Sans Mono">-2</text></svg><svg overflow="visible" data-type="text" class="tick-label tick-label-x" x="66.578125"><text xml:space="preserve" dominant-baseline="text-before-edge" font-size="14" font-family="DejaVu Sans Mono">-1</text></svg><svg overflow="visible" data-type="text" class="tick-label tick-label-x" x="145.7890625"><text xml:space="preserve" dominant-baseline="text-before-edge" font-size="14" font-family="DejaVu Sans Mono">0</text></svg><svg overflow="visible" data-type="text" class="tick-label tick-label-x" x="220.7890625"><text xml:space="preserve" dominant-baseline="text-before-edge" font-size="14" font-family="DejaVu Sans Mono">1</text></svg><svg overflow="visible" data-type="text" class="tick-label tick-label-x" x="295.7890625"><text xml:space="preserve" dominant-baseline="text-before-edge" font-size="14" font-family="DejaVu Sans Mono">2</text></svg></svg><svg overflow="visible" class="axis axis-y" x="-36.84375"><svg overflow="visible" data-type="text" class="tick-label tick-label-y" y="192" x="0"><text xml:space="preserve" dominant-baseline="text-before-edge" font-size="14" font-family="DejaVu Sans Mono">-2</text></svg><svg overflow="visible" data-type="text" class="tick-label tick-label-y" y="142" x="0"><text xml:space="preserve" dominant-baseline="text-before-edge" font-size="14" font-family="DejaVu Sans Mono">-1</text></svg><svg overflow="visible" data-type="text" class="tick-label tick-label-y" y="92" x="4.2109375"><text xml:space="preserve" dominant-baseline="text-before-edge" font-size="14" font-family="DejaVu Sans Mono">0</text></svg><svg overflow="visible" data-type="text" class="tick-label tick-label-y" y="42" x="4.2109375"><text xml:space="preserve" dominant-baseline="text-before-edge" font-size="14" font-family="DejaVu Sans Mono">1</text></svg><svg overflow="visible" data-type="text" class="tick-label tick-label-y" y="-8" x="4.2109375"><text xml:space="preserve" dominant-baseline="text-before-edge" font-size="14" font-family="DejaVu Sans Mono">2</text></svg></svg><svg overflow="visible" data-type="path"><path id="path-uuid-11" fill="transparent" stroke-width="2" d="M37.00000000000024,200L38.00000000000024,199.333333333333L39.00000000000025,197.99999999999966L40.000000000000256,196.66666666666632L41.00000000000026,195.33333333333297L42.00000000000027,193.99999999999963L43.00000000000028,192.6666666666663L44.000000000000284,191.33333333333294L45.00000000000029,189.9999999999996L46.0000000000003,188.66666666666626L47.000000000000306,187.33333333333292L48.00000000000031,185.9999999999996L49.00000000000031,184.66666666666623L50.00000000000032,183.33333333333292L51.00000000000033,181.99999999999957L52.000000000000334,180.66666666666623L53.00000000000034,179.3333333333329L54.00000000000035,177.99999999999955L55.000000000000355,176.6666666666662L56.00000000000036,175.33333333333286L57.00000000000037,173.99999999999952L58.00000000000038,172.66666666666617L59.00000000000038,171.33333333333283L60.000000000000384,169.9999999999995L61.00000000000039,168.66666666666615L62.0000000000004,167.3333333333328L63.000000000000405,165.99999999999946L64.00000000000041,164.66666666666612L65.00000000000041,163.33333333333277L66.00000000000043,161.99999999999943L67.00000000000043,160.6666666666661L68.00000000000044,159.33333333333275L69.00000000000044,157.9999999999994L70.00000000000045,156.66666666666606L71.00000000000045,155.33333333333272L72.00000000000047,153.99999999999937L73.00000000000047,152.66666666666603L74.00000000000048,151.3333333333327L75.00000000000047,149.99999999999937L76.00000000000047,148.66666666666603L77.00000000000048,147.3333333333327L78.00000000000047,145.99999999999937L79.00000000000045,144.66666666666606L80.00000000000047,143.33333333333272L81.00000000000047,141.99999999999937L82.00000000000045,140.66666666666606L83.00000000000045,139.33333333333272L84.00000000000045,137.99999999999937L85.00000000000047,136.66666666666606L86.00000000000045,135.33333333333275L87.00000000000044,133.9999999999994L88.00000000000045,132.66666666666606L89.00000000000045,131.33333333333275L90.00000000000044,129.9999999999994L91.00000000000044,128.66666666666606L92.00000000000044,127.33333333333275L93.00000000000045,125.99999999999942L94.00000000000044,124.66666666666609L95.00000000000043,123.33333333333275L96.00000000000044,121.99999999999942L97.00000000000044,120.66666666666609L98.00000000000043,119.33333333333276L99.00000000000043,117.99999999999943L100.00000000000043,116.6666666666661L101.00000000000044,115.33333333333276L102.00000000000043,113.99999999999943L103.00000000000041,112.6666666666661L104.00000000000043,111.33333333333277L105.00000000000043,109.99999999999945L106.00000000000041,108.66666666666612L107.00000000000041,107.33333333333277L108.00000000000041,105.99999999999945L109.00000000000041,104.66666666666612L110.00000000000041,103.33333333333279L111.0000000000004,101.99999999999946L112.0000000000004,100.66666666666613L113.00000000000041,99.33333333333279L114.0000000000004,97.99999999999946L115.0000000000004,96.66666666666615L116.0000000000004,95.3333333333328L117.0000000000004,93.99999999999946L118.0000000000004,92.66666666666615L119.00000000000038,91.33333333333282L120.00000000000038,89.99999999999947L121.0000000000004,88.66666666666615L122.00000000000038,87.33333333333282L123.00000000000037,85.9999999999995L124.00000000000038,84.66666666666616L125.00000000000038,83.33333333333282L126.00000000000038,81.99999999999949L127.00000000000037,80.66666666666617L128.00000000000037,79.33333333333283L129.00000000000037,77.99999999999949L130.00000000000037,76.66666666666617L131.00000000000037,75.33333333333286L132.00000000000037,73.99999999999952L133.00000000000037,72.66666666666617L134.00000000000037,71.33333333333286L135.00000000000037,69.99999999999952L136.00000000000037,68.66666666666617L137.00000000000037,67.33333333333286L138.00000000000037,65.99999999999952L139.00000000000037,64.66666666666617L140.00000000000037,63.33333333333283L141.00000000000037,61.99999999999949L142.00000000000037,60.666666666666146L143.00000000000037,59.33333333333283L144.00000000000037,57.99999999999952L145.00000000000037,56.666666666666174L146.00000000000037,55.33333333333283L147.00000000000037,53.99999999999952L148.00000000000037,52.666666666666174L149.00000000000037,51.33333333333283L150.00000000000037,49.99999999999952L151.00000000000037,48.666666666666174L152.00000000000037,47.33333333333283L153.00000000000037,45.99999999999952L154.00000000000037,44.666666666666174L155.00000000000037,43.33333333333283L156.00000000000037,41.99999999999952L157.00000000000037,40.666666666666174L158.0000000000004,39.33333333333283L159.00000000000037,37.99999999999949L160.00000000000037,36.666666666666174L161.0000000000004,35.33333333333283L162.00000000000037,33.99999999999949L163.00000000000037,32.666666666666174L164.0000000000004,31.33333333333283L165.00000000000037,29.99999999999949L166.00000000000037,28.666666666666174L167.00000000000037,27.33333333333283L168.00000000000037,25.99999999999949L169.00000000000037,24.666666666666174L170.00000000000037,23.33333333333286L171.00000000000034,21.999999999999517L172.00000000000037,20.666666666666174L173.00000000000037,19.33333333333286L174.00000000000034,17.999999999999517L175.00000000000037,16.666666666666174L176.00000000000037,15.333333333332831L177.00000000000037,13.999999999999517L178.00000000000034,12.666666666666202L179.00000000000034,11.33333333333286L180.00000000000037,9.999999999999517L181.00000000000034,8.666666666666202L182.00000000000034,7.333333333332888L183.00000000000037,5.999999999999545L184.00000000000034,4.6666666666662024L185.00000000000034,3.333333333332888L186.00000000000034,1.9999999999995453L187.0000000000003,0.6666666666662024L188.00000000000034,0" stroke="#1f77b4"></path><svg overflow="visible" data-type="text"><text xml:space="preserve" dominant-baseline="central" font-size="14" font-family="DejaVu Sans Mono" text-anchor="middle"><textPath href="#path-uuid-11" startOffset="50%"></textPath></text></svg></svg><svg overflow="visible" data-type="path"><path id="path-uuid-12" fill="transparent" stroke-width="2" d="M0,150L1.0000000000000064,149.33333333333331L2.000000000000013,148.66666666666666L3.0000000000000195,148L4.000000000000026,147.33333333333331L5.000000000000032,146.66666666666663L6.000000000000039,145.99999999999997L7.000000000000045,145.33333333333331L8.000000000000052,144.66666666666663L9.000000000000059,143.99999999999997L10.000000000000064,143.3333333333333L11.000000000000071,142.66666666666663L12.000000000000078,141.99999999999994L13.000000000000083,141.3333333333333L14.00000000000009,140.6666666666666L15.000000000000096,139.99999999999994L16.000000000000103,139.33333333333326L17.00000000000011,138.6666666666666L18.000000000000117,137.99999999999991L19.00000000000012,137.33333333333326L20.000000000000128,136.66666666666657L21.000000000000135,135.99999999999991L22.000000000000142,135.33333333333326L23.00000000000015,134.66666666666657L24.000000000000156,133.9999999999999L25.00000000000016,133.33333333333323L26.000000000000167,132.66666666666657L27.000000000000174,131.9999999999999L28.00000000000018,131.3333333333332L29.00000000000019,130.66666666666654L30.000000000000192,129.9999999999999L31.0000000000002,129.3333333333332L32.000000000000206,128.66666666666652L33.00000000000021,127.99999999999986L34.00000000000022,127.33333333333319L35.00000000000023,126.66666666666652L36.000000000000234,125.99999999999984L37.00000000000024,125.33333333333317L38.00000000000024,124.6666666666665L39.00000000000025,123.99999999999983L40.000000000000256,123.33333333333316L41.00000000000026,122.66666666666649L42.00000000000027,121.99999999999982L43.00000000000028,121.33333333333314L44.000000000000284,120.66666666666647L45.00000000000029,119.9999999999998L46.0000000000003,119.33333333333313L47.000000000000306,118.66666666666646L48.00000000000031,117.9999999999998L49.00000000000031,117.33333333333313L50.00000000000032,116.66666666666646L51.00000000000033,115.99999999999979L52.000000000000334,115.33333333333312L53.00000000000034,114.66666666666644L54.00000000000035,113.99999999999977L55.000000000000355,113.3333333333331L56.00000000000036,112.66666666666643L57.00000000000037,111.99999999999976L58.00000000000038,111.33333333333309L59.00000000000038,110.66666666666642L60.000000000000384,109.99999999999974L61.00000000000039,109.33333333333307L62.0000000000004,108.6666666666664L63.000000000000405,107.99999999999973L64.00000000000041,107.33333333333306L65.00000000000041,106.66666666666639L66.00000000000043,105.99999999999972L67.00000000000043,105.33333333333304L68.00000000000044,104.66666666666637L69.00000000000044,103.9999999999997L70.00000000000045,103.33333333333303L71.00000000000045,102.66666666666636L72.00000000000047,101.99999999999969L73.00000000000047,101.33333333333302L74.00000000000048,100.66666666666634L75.00000000000047,99.99999999999969L76.00000000000047,99.333333333333L77.00000000000048,98.66666666666634L78.00000000000047,97.99999999999969L79.00000000000045,97.33333333333303L80.00000000000047,96.66666666666637L81.00000000000047,95.99999999999969L82.00000000000045,95.33333333333303L83.00000000000045,94.66666666666637L84.00000000000045,93.99999999999969L85.00000000000047,93.33333333333303L86.00000000000045,92.66666666666636L87.00000000000044,91.9999999999997L88.00000000000045,91.33333333333304L89.00000000000045,90.66666666666636L90.00000000000044,89.9999999999997L91.00000000000044,89.33333333333304L92.00000000000044,88.66666666666636L93.00000000000045,87.9999999999997L94.00000000000044,87.33333333333304L95.00000000000043,86.66666666666639L96.00000000000044,85.99999999999972L97.00000000000044,85.33333333333304L98.00000000000043,84.66666666666637L99.00000000000043,83.99999999999972L100.00000000000043,83.33333333333303L101.00000000000044,82.66666666666637L102.00000000000043,81.99999999999972L103.00000000000041,81.33333333333306L104.00000000000043,80.6666666666664L105.00000000000043,79.99999999999972L106.00000000000041,79.33333333333306L107.00000000000041,78.6666666666664L108.00000000000041,77.99999999999972L109.00000000000041,77.33333333333306L110.00000000000041,76.6666666666664L111.0000000000004,75.99999999999973L112.0000000000004,75.33333333333307L113.00000000000041,74.66666666666639L114.0000000000004,73.99999999999973L115.0000000000004,73.33333333333307L116.0000000000004,72.66666666666639L117.0000000000004,71.99999999999974L118.0000000000004,71.33333333333306L119.00000000000038,70.6666666666664L120.00000000000038,69.99999999999974L121.0000000000004,69.33333333333306L122.00000000000038,68.6666666666664L123.00000000000037,67.99999999999974L124.00000000000038,67.33333333333306L125.00000000000038,66.6666666666664L126.00000000000038,65.99999999999974L127.00000000000037,65.33333333333309L128.00000000000037,64.66666666666643L129.00000000000037,63.999999999999744L130.00000000000037,63.33333333333309L131.00000000000037,62.66666666666643L132.00000000000037,61.999999999999744L133.00000000000037,61.33333333333309L134.00000000000037,60.66666666666643L135.00000000000037,59.999999999999744L136.00000000000037,59.33333333333309L137.00000000000037,58.66666666666643L138.00000000000037,57.999999999999744L139.00000000000037,57.33333333333309L140.00000000000037,56.66666666666643L141.00000000000037,55.999999999999744L142.00000000000037,55.33333333333309L143.00000000000037,54.66666666666643L144.00000000000037,53.99999999999977L145.00000000000037,53.33333333333309L146.00000000000037,52.66666666666643L147.00000000000037,51.999999999999744L148.00000000000037,51.33333333333309L149.00000000000037,50.6666666666664L150.00000000000037,49.999999999999744L151.00000000000037,49.33333333333309L152.00000000000037,48.6666666666664L153.00000000000037,47.999999999999744L154.00000000000037,47.33333333333309L155.00000000000037,46.6666666666664L156.00000000000037,45.999999999999744L157.00000000000037,45.33333333333309L158.0000000000004,44.6666666666664L159.00000000000037,43.999999999999744L160.00000000000037,43.33333333333309L161.0000000000004,42.6666666666664L162.00000000000037,41.999999999999744L163.00000000000037,41.33333333333309L164.0000000000004,40.6666666666664L165.00000000000037,39.999999999999744L166.00000000000037,39.33333333333309L167.00000000000037,38.6666666666664L168.00000000000037,37.999999999999744L169.00000000000037,37.33333333333309L170.00000000000037,36.66666666666643L171.00000000000034,35.99999999999977L172.00000000000037,35.33333333333309L173.00000000000037,34.66666666666643L174.00000000000034,33.99999999999977L175.00000000000037,33.33333333333309L176.00000000000037,32.66666666666643L177.00000000000037,31.999999999999773L178.00000000000034,31.333333333333115L179.00000000000034,30.66666666666643L180.00000000000037,29.999999999999773L181.00000000000034,29.333333333333087L182.00000000000034,28.66666666666643L183.00000000000037,27.999999999999773L184.00000000000034,27.333333333333087L185.00000000000034,26.66666666666643L186.00000000000034,25.999999999999773L187.0000000000003,25.333333333333115L188.00000000000034,24.66666666666643L189.00000000000034,23.999999999999773L190.0000000000003,23.333333333333115L191.00000000000034,22.66666666666643L192.00000000000034,21.999999999999773L193.00000000000034,21.333333333333115L194.0000000000003,20.66666666666646L195.0000000000003,19.9999999999998L196.00000000000034,19.333333333333115L197.0000000000003,18.66666666666646L198.0000000000003,17.9999999999998L199.00000000000034,17.333333333333115L200.0000000000003,16.66666666666646L201.0000000000003,15.999999999999801L202.0000000000003,15.333333333333144L203.00000000000028,14.666666666666458L204.0000000000003,13.999999999999801L205.0000000000003,13.333333333333144L206.00000000000028,12.666666666666458L207.0000000000003,11.999999999999801L208.0000000000003,11.333333333333115L209.00000000000028,10.666666666666458L210.00000000000028,9.999999999999801L211.00000000000028,9.333333333333144L212.0000000000003,8.666666666666458L213.00000000000028,7.999999999999801L214.00000000000028,7.333333333333144L215.0000000000003,6.666666666666458L216.00000000000028,5.999999999999801L217.00000000000028,5.333333333333144L218.00000000000028,4.666666666666487L219.00000000000026,3.9999999999998295L220.00000000000028,3.333333333333144L221.00000000000028,2.6666666666664867L222.00000000000026,1.9999999999998295L223.00000000000028,1.3333333333331439L224.00000000000028,0.6666666666664867L225.00000000000026,0" stroke="#2ca02c"></path><svg overflow="visible" data-type="text"><text xml:space="preserve" dominant-baseline="central" font-size="14" font-family="DejaVu Sans Mono" text-anchor="middle"><textPath href="#path-uuid-12" startOffset="50%"></textPath></text></svg></svg><svg overflow="visible" data-type="path"><path id="path-uuid-13" fill="transparent" stroke-width="2" d="M74.00000000000048,0L75.00000000000047,3.126388037344441e-13L76.00000000000047,0.6666666666669983L77.00000000000048,1.3333333333336554L78.00000000000047,2.0000000000003126L79.00000000000045,2.66666666666697L80.00000000000047,3.333333333333627L81.00000000000047,4.000000000000313L82.00000000000045,4.66666666666697L83.00000000000045,5.333333333333627L84.00000000000045,6.000000000000313L85.00000000000047,6.66666666666697L86.00000000000045,7.333333333333627L87.00000000000044,8.000000000000284L88.00000000000045,8.66666666666697L89.00000000000045,9.333333333333627L90.00000000000044,10.000000000000284L91.00000000000044,10.66666666666697L92.00000000000044,11.333333333333627L93.00000000000045,12.000000000000313L94.00000000000044,12.66666666666697L95.00000000000043,13.333333333333627L96.00000000000044,14.000000000000284L97.00000000000044,14.66666666666697L98.00000000000043,15.333333333333627L99.00000000000043,16.000000000000284L100.00000000000043,16.66666666666697L101.00000000000044,17.333333333333627L102.00000000000043,18.000000000000284L103.00000000000041,18.66666666666694L104.00000000000043,19.3333333333336L105.00000000000043,20.000000000000284L106.00000000000041,20.66666666666694L107.00000000000041,21.3333333333336L108.00000000000041,22.000000000000284L109.00000000000041,22.66666666666694L110.00000000000041,23.3333333333336L111.0000000000004,24.000000000000256L112.0000000000004,24.666666666666913L113.00000000000041,25.3333333333336L114.0000000000004,26.000000000000256L115.0000000000004,26.666666666666913L116.0000000000004,27.3333333333336L117.0000000000004,28.000000000000256L118.0000000000004,28.66666666666694L119.00000000000038,29.3333333333336L120.00000000000038,30.000000000000256L121.0000000000004,30.66666666666694L122.00000000000038,31.3333333333336L123.00000000000037,32.000000000000256L124.00000000000038,32.66666666666694L125.00000000000038,33.3333333333336L126.00000000000038,34.000000000000256L127.00000000000037,34.66666666666691L128.00000000000037,35.33333333333357L129.00000000000037,36.000000000000256L130.00000000000037,36.66666666666691L131.00000000000037,37.33333333333357L132.00000000000037,38.000000000000256L133.00000000000037,38.66666666666691L134.00000000000037,39.33333333333357L135.00000000000037,40.000000000000256L136.00000000000037,40.66666666666691L137.00000000000037,41.33333333333357L138.00000000000037,42.000000000000256L139.00000000000037,42.66666666666691L140.00000000000037,43.33333333333357L141.00000000000037,44.000000000000256L142.00000000000037,44.66666666666691L143.00000000000037,45.33333333333357L144.00000000000037,46.000000000000256L145.00000000000037,46.66666666666691L146.00000000000037,47.33333333333357L147.00000000000037,48.000000000000256L148.00000000000037,48.66666666666691L149.00000000000037,49.3333333333336L150.00000000000037,50.000000000000256L151.00000000000037,50.66666666666691L152.00000000000037,51.3333333333336L153.00000000000037,52.000000000000256L154.00000000000037,52.66666666666691L155.00000000000037,53.3333333333336L156.00000000000037,54.000000000000256L157.00000000000037,54.66666666666691L158.0000000000004,55.3333333333336L159.00000000000037,56.000000000000256L160.00000000000037,56.66666666666691L161.0000000000004,57.3333333333336L162.00000000000037,58.000000000000256L163.00000000000037,58.66666666666691L164.0000000000004,59.3333333333336L165.00000000000037,60.000000000000256L166.00000000000037,60.66666666666691L167.00000000000037,61.3333333333336L168.00000000000037,62.000000000000256L169.00000000000037,62.66666666666691L170.00000000000037,63.33333333333357L171.00000000000034,64.00000000000023L172.00000000000037,64.66666666666691L173.00000000000037,65.33333333333357L174.00000000000034,66.00000000000023L175.00000000000037,66.66666666666691L176.00000000000037,67.33333333333357L177.00000000000037,68.00000000000023L178.00000000000034,68.66666666666688L179.00000000000034,69.33333333333357L180.00000000000037,70.00000000000023L181.00000000000034,70.66666666666691L182.00000000000034,71.33333333333357L183.00000000000037,72.00000000000024L184.00000000000034,72.6666666666669L185.00000000000034,73.33333333333356L186.00000000000034,74.00000000000023L187.0000000000003,74.66666666666688L188.00000000000034,75.33333333333357L189.00000000000034,76.00000000000023L190.0000000000003,76.66666666666688L191.00000000000034,77.33333333333357L192.00000000000034,78.00000000000023L193.00000000000034,78.66666666666688L194.0000000000003,79.33333333333354L195.0000000000003,80.0000000000002L196.00000000000034,80.66666666666688L197.0000000000003,81.33333333333354L198.0000000000003,82.0000000000002L199.00000000000034,82.66666666666688L200.0000000000003,83.33333333333354L201.0000000000003,84.00000000000021L202.0000000000003,84.66666666666687L203.00000000000028,85.33333333333353L204.0000000000003,86.00000000000021L205.0000000000003,86.66666666666687L206.00000000000028,87.33333333333353L207.0000000000003,88.00000000000021L208.0000000000003,88.66666666666687L209.00000000000028,89.33333333333353L210.00000000000028,90.00000000000018L211.00000000000028,90.66666666666686L212.0000000000003,91.33333333333353L213.00000000000028,92.0000000000002L214.00000000000028,92.66666666666686L215.0000000000003,93.33333333333354L216.00000000000028,94.0000000000002L217.00000000000028,94.66666666666686L218.00000000000028,95.33333333333351L219.00000000000026,96.00000000000017L220.00000000000028,96.66666666666686L221.00000000000028,97.33333333333351L222.00000000000026,98.00000000000017L223.00000000000028,98.66666666666686L224.00000000000028,99.33333333333351L225.00000000000026,100.00000000000017L226.00000000000028,100.66666666666684L227.00000000000028,101.33333333333351L228.00000000000026,102.00000000000018L229.00000000000028,102.66666666666686L230.0000000000003,103.33333333333353L231.0000000000003,104.0000000000002L232.00000000000028,104.66666666666687L233.0000000000003,105.33333333333354L234.00000000000034,106.00000000000021L235.00000000000034,106.66666666666688L236.0000000000003,107.33333333333356L237.00000000000034,108.00000000000023L238.00000000000037,108.6666666666669L239.00000000000037,109.33333333333357L240.00000000000034,110.00000000000024L241.00000000000037,110.66666666666691L242.0000000000004,111.33333333333358L243.00000000000037,112.00000000000026L244.00000000000037,112.66666666666693L245.0000000000004,113.3333333333336L246.00000000000043,114.00000000000027L247.0000000000004,114.66666666666694L248.0000000000004,115.33333333333361L249.00000000000043,116.00000000000028L250.00000000000045,116.66666666666696L251.00000000000043,117.33333333333363L252.00000000000043,118.0000000000003L253.00000000000045,118.66666666666697L254.00000000000048,119.33333333333364L255.00000000000045,120.00000000000031L256.00000000000045,120.66666666666698L257.00000000000045,121.33333333333366L258.0000000000005,122.00000000000031L259.0000000000005,122.66666666666698L260.00000000000045,123.33333333333366L261.0000000000005,124.00000000000033L262.0000000000005,124.666666666667L263.0000000000005,125.33333333333367L264.0000000000005,126.00000000000034L265.0000000000005,126.66666666666701L266.00000000000057,127.33333333333368L267.0000000000005,128.00000000000034L268.0000000000005,128.66666666666703L269.00000000000057,129.3333333333337L270.00000000000057,130.00000000000037L271.00000000000057,130.66666666666703L272.00000000000057,131.3333333333337L273.00000000000057,132.0000000000004L274.0000000000006,132.66666666666706L275.00000000000057,133.3333333333337L276.00000000000057,134.0000000000004L277.0000000000006,134.66666666666708L278.0000000000006,135.33333333333374L279.0000000000006,136.0000000000004L280.0000000000006,136.66666666666708L281.0000000000006,137.33333333333377L282.0000000000006,138.00000000000043L283.0000000000006,138.66666666666708L284.0000000000006,139.33333333333377L285.0000000000006,140.00000000000043L286.0000000000007,140.6666666666671L287.0000000000007,141.33333333333377L288.0000000000007,142.00000000000045L289.0000000000007,142.6666666666671L290.0000000000007,143.3333333333338L291.0000000000007,144.00000000000045L292.0000000000007,144.66666666666714L293.0000000000007,145.3333333333338L294.00000000000074,146.00000000000048L295.00000000000074,146.66666666666714L296.0000000000007,147.33333333333383L297.00000000000074,148.00000000000048L298.00000000000074,148.66666666666714L299.00000000000074,149.33333333333383L300,150" stroke="#d62728"></path><svg overflow="visible" data-type="text"><text xml:space="preserve" dominant-baseline="central" font-size="14" font-family="DejaVu Sans Mono" text-anchor="middle"><textPath href="#path-uuid-13" startOffset="50%"></textPath></text></svg></svg></svg></svg>